<?xml version="1.0" standalone="no"?>
<!DOCTYPE svg PUBLIC "-//W3C//DTD SVG 1.1//EN" "http://www.w3.org/Graphics/SVG/1.1/DTD/svg11.dtd" >
<svg xmlns="http://www.w3.org/2000/svg">
<metadata>Generated by IcoMoon</metadata>
<defs>
<font id="ADC-icons" horiz-adv-x="512">
<font-face units-per-em="512" ascent="480" descent="-32" />
<missing-glyph horiz-adv-x="512" />
<glyph unicode="&#x20;" d="" horiz-adv-x="256" />
<glyph unicode="&#xe000;" d="M266.9 351.006c76.347 0 76.347 118.327 0 118.327-76.345 0-76.345-118.327 0-118.327zM325.11 262.113l30.364-100.638 37.295 10.616-33.093 108.512c0 0-20.488 63.398-91.904 63.727-68.544 0.315-88.497-63.894-88.497-63.894l-35.441-106.359 37.305-12.887 32.164 100.44c4.191-2.792 15.423-5.249 20.157-7.271l-83.623-296.655 241.884-0.752-86.541 299.019c3.196 1.546 17.003 4.233 19.93 6.142z" />
<glyph unicode="&#xe001;" d="M249.528 255.737c102.204 0 102.204 158.404 0 158.404-102.203 0-102.203-158.404 0-158.404zM129.373 209.845v-84.109h46.201v48.392c5.664-1.713 20.81-3.199 27.2-4.435v-159.164h96.602v160.365c4.293 0.964 17.493 2.046 21.426 3.235v-48.392h46.197v84.109c0 0-22.609 39.718-118.813 39.718-92.335 0-118.815-39.717-118.815-39.717z" />
<glyph unicode="&#xe002;" d="M249.528 255.737c102.204 0 102.204 158.404 0 158.404-102.203 0-102.203-158.404 0-158.404zM129.373 209.845l-29.373-44.512 51.667-27 23.906 35.793c5.664-1.713 20.81-3.199 27.2-4.435v-49.164h96.602v50.365c4.293 0.964 17.493 2.046 21.426 3.235l26.868-36.459 49.331 30.668-30 41.512c0 0-22.609 39.718-118.813 39.718-92.335-0.001-118.815-39.718-118.815-39.718zM194.179 106.509l39-39-64.347-64.346-39 39zM273.846 66.849l40.317 40.317 64.345-64.346-40.317-40.317z" />
<glyph unicode="&#xe003;" d="M424.986 325.991h-84.493v56.329c0 15.49-12.674 28.164-28.164 28.164h-112.657c-15.49 0-28.164-12.674-28.164-28.164v-56.329h-84.493c-30.981 0-56.329-25.348-56.329-56.329v-225.315c0-30.981 25.348-56.329 56.329-56.329h337.972c30.981 0 56.329 25.348 56.329 56.329v225.315c0 30.981-25.348 56.329-56.329 56.329zM199.671 382.32h112.657v-56.329h-112.657v56.329zM368.658 128.84h-84.493v-84.493h-56.329v84.493h-84.493v56.329h84.493v84.493h56.329v-84.493h84.493v-56.329z" />
<glyph unicode="&#xe004;" d="M0-42.667h256v512h-256v-512zM160 405.333h64v-64h-64v64zM160 277.333h64v-64h-64v64zM160 149.333h64v-64h-64v64zM32 405.333h64v-64h-64v64zM32 277.333h64v-64h-64v64zM32 149.333h64v-64h-64v64zM288 309.333h224v-32h-224zM288-42.667h64v128h96v-128h64v288h-224z" />
<glyph unicode="&#xe005;" d="M384 149.333v64h-160v64h160v64l96-96zM352 181.333v-128h-160v-96l-192 96v416h352v-160h-32v128h-256l128-64v-288h128v96z" />
<glyph unicode="&#xe006;" d="M364.496 213.333c68.876 43.668 115.504 127.605 115.504 224 0 10.838-0.596 21.517-1.74 32h-444.52c-1.145-10.484-1.741-21.163-1.741-32 0-96.397 46.627-180.332 115.503-224-68.876-43.668-115.503-127.605-115.503-224 0-10.837 0.596-21.517 1.739-32h444.521c1.144 10.483 1.74 21.162 1.74 32 0 96.395-46.627 180.332-115.504 224zM80-10.667c0 93.456 40.081 172.707 112 198.853v50.293c-71.919 26.147-112 105.397-112 198.853v0h352c0-93.457-40.081-172.708-112-198.852v-50.293c71.919-26.147 112-105.399 112-198.855h-352zM309.813 134.537c-35.827 20.322-37.805 46.685-37.813 62.683v32.113c0 15.996 1.901 42.457 37.872 62.832 19.252 11.181 35.904 28.173 48.524 49.168h-204.792c12.633-21.016 29.306-38.021 48.583-49.204 35.827-20.322 37.803-46.684 37.813-62.684l0.001-32.113c0-15.997-1.901-42.457-37.872-62.832-36.311-21.091-63.369-62.842-71.545-113.168h250.835c-8.183 50.355-35.265 92.125-71.607 113.204z" />
<glyph unicode="&#xe007;" d="M256.001 372.728v32.606h64v32c0 17.673-14.327 32-32.001 32h-95.999c-17.673 0-32-14.327-32-32v-32h64v-32.606c-107.399-8.169-192-97.901-192-207.395 0-114.875 93.124-208 208-208s208 93.124 208 208c0 109.492-84.601 199.224-192 207.395zM353.139 52.196c-30.221-30.219-70.399-46.863-113.137-46.863s-82.916 16.644-113.137 46.863c-30.219 30.221-46.863 70.4-46.863 113.137s16.644 82.917 46.863 113.137c29.019 29.019 67.224 45.509 108.057 46.774l-10.839-157.011c-0.93-13.145 6.232-18.901 15.917-18.901s16.849 5.757 15.917 18.901l-10.838 157.012c40.833-1.266 79.037-17.756 108.059-46.775 30.219-30.22 46.863-70.4 46.863-113.137s-16.644-82.916-46.863-113.137z" />
<glyph unicode="&#xe008;" d="M469.796 359.147c-15.606 4.457-31.873-4.579-36.332-20.185l-2.306-8.074h-274.116l-4.129 33.034c-1.839 14.707-14.341 25.744-29.162 25.744h-73.472c-16.231 0-29.389-13.158-29.389-29.389s13.158-29.389 29.389-29.389h47.528l26.171-209.368c1.839-14.706 14.341-25.743 29.162-25.743h249.805c13.121 0 24.654 8.7 28.259 21.315l58.778 205.722c4.459 15.606-4.579 31.873-20.185 36.332zM256 213.333v29.389h58.776v-29.389h-58.776zM314.776 183.945v-29.389h-58.776v29.389h58.776zM256 272.111v29.388h58.776v-29.388h-58.776zM160.715 301.5h65.897v-29.388h-62.222l-3.674 29.388zM168.062 242.722h58.549v-29.389h-54.876l-3.674 29.389zM175.41 183.945h51.202v-29.389h-47.528l-3.674 29.389zM380.776 154.555h-36.611v29.389h45.008l-8.397-29.389zM397.57 213.333h-53.404v29.389h61.801l-8.397-29.389zM414.364 272.111h-70.2v29.388h78.596l-8.397-29.388zM138.445 22.305c0-24.346 19.737-44.084 44.084-44.084s44.084 19.737 44.084 44.084c0 24.346-19.737 44.084-44.084 44.084s-44.084-19.737-44.084-44.084zM314.778 22.305c0-24.346 19.737-44.084 44.084-44.084s44.084 19.737 44.084 44.084c0 24.346-19.737 44.084-44.084 44.084s-44.084-19.737-44.084-44.084z" />
<glyph unicode="&#xe009;" d="M240 437.333c-132.548 0-240-107.451-240-240s107.451-240 240-240c132.548 0 240 107.451 240 240s-107.452 240-240 240zM240 5.333c-106.039 0-192 85.961-192 192s85.961 192 192 192c106.039 0 192-85.961 192-192s-85.961-192-192-192zM256 213.333v64h64v32h-64v32h-32v-32h-64v-128h64v-64h-64v-32h64v-32h32v32h64.001l-0.001 128h-64zM224 213.333h-32v64h32v-64zM288.001 117.333h-32.001v64h32.001v-64z" />
<glyph unicode="&#xe00a;" d="M418.224 381.098c11.309-5.534 21.165-13.417 28.385-23.096 15.199-20.375 19.466-48.131 12.69-82.497-6.849-34.777-22.187-64.134-44.52-85.393-4.084-4.271-8.459-8.249-13.115-11.918-23.921-18.836-54.128-28.793-87.356-28.793l-105.644 0.001-28.413-133.22h-58.276l4.439 20.375h20.299l28.413 133.221h82.851c79.322 0 145.635 48.882 163.378 131.992 20.121 94.101-47.351 136.878-105.356 136.878h-197.714l-87.601-402.091h66.904l-10.576-48.539h116.028l28.413 133.221h82.851c79.322 0 145.635 48.882 163.378 131.992 14.838 69.39-17.956 110.866-59.461 127.867zM216.545 356.759h56.827c28.425 0 47.352-24.44 39.072-54.988-7.101-30.559-36.695-54.999-66.292-54.999h-54.462l24.856 109.986z" />
<glyph unicode="&#xe00b;" d="M453.151 382.32h-394.301c-15.547 0-28.163-12.618-28.163-28.163v-281.643c0-15.546 12.617-28.164 28.163-28.164h394.301c15.546 0 28.164 12.618 28.164 28.164v281.643c0 15.547-12.618 28.163-28.164 28.163zM72.931 354.155h366.136c7.788 0 14.082-6.295 14.082-14.082v-42.247h-394.301v42.247c0 7.787 6.295 14.082 14.082 14.082zM439.068 72.511h-366.137c-7.787 0-14.081 6.295-14.081 14.082v126.74h394.301v-126.74c0-7.788-6.295-14.082-14.082-14.082z" />
<glyph unicode="&#xe00c;" d="M298.786 138.924c-43.644-16.784-85.73-37.605-128.448-56.779-51.167-22.967-102.319-45.957-152.76-68.613-17.473 18.652-17.098 21.674 4.971 31.717 48.586 22.117 97.406 43.719 146.090 65.624 39.23 17.646 78.396 35.418 118.34 53.478zM231.188 147.839c-67.098-30.303-133.434-60.258-198.957-89.849-2.853 2.227-4.588 2.93-5.246 4.19-27.253 52.446-29.144 62.687 29.5 86.574 35.326 14.396 69.607 31.341 104.463 46.906 34.404 15.366 44.406 11.301 60.022-23.848 3.248-7.311 6.284-14.723 10.218-23.973zM95.369-32.123c-19.194 5.008-31.362 26.050-26.461 45.747 4.873 19.577 25.419 31.674 45.252 26.643 20.012-5.078 31.5-24.947 26.126-45.199-5.39-20.316-25.238-32.332-44.917-27.191zM430.391 328.505c90.22 0 90.22 139.828 0 139.828-90.218 0-90.218-139.828 0-139.828zM441.759 202.014v-244.775h-106.556v246.62c-4.735 1.482-19.297 3.147-23.635 4.975v-68.419h-50.961v123.35c0 0 24.939 61.081 131.058 61.081 18.873 0 61.335-8.513 71.335-19.513l-8.996-92.398-12.245-10.921z" />
<glyph unicode="&#xe00d;" d="M264.284 329.609c90.219 0 90.219 139.828 0 139.828s-90.219-139.828 0-139.828zM182.304 206.833c6.233-2.635 22.9-4.92 29.934-6.82v-244.775h106.315v246.62c4.724 1.483 19.252 3.147 23.581 4.975v-74.419h50.846l0.001 129.351c0 0-24.884 61.081-130.762 61.081-101.62 0-130.762-61.081-130.762-61.081zM110.313 305.251c60.716 4.695 53.439 98.797-7.276 94.101-60.715-4.696-53.438-98.799 7.276-94.101zM82.638 252.43l12.912-29.123 50.587 3.915-2.315 29.917c2.506 0.772 10.298 2.019 12.581 2.905l17.636-20.423 27.899 20.482-19.731 23.283c0 0-15.335 23.486-72.408 18.137-22.564-2.115-29.768-9.144-29.768-9.144zM174.608 158.89l-41.18 35.271 22.099 25.803 41.181-35.272z" />
<glyph unicode="&#xe00e;" d="M146.747 276.915c65.121 0 65.121 100.928 0 100.928-65.119 0-65.119-100.928 0-100.928zM35.611 250.202c43.824 3.389 38.572 71.313-5.252 67.923s-38.571-71.313 5.252-67.923zM82.015 126.607l-29.725 25.459 15.951 18.625 29.725-25.459-15.951-18.625zM304.1 290.761c55.105 0 55.105 85.409 0 85.409-55.108-0.001-55.108-85.409 0-85.409zM451.148 113.566c44.334 0 44.334 68.712 0 68.712-44.332 0-44.332-68.712 0-68.712zM440.566 96.562c-15.23 0-34.229 8.53-34.229 8.53l-8.388 18.306-26.885 101.564c0 0-14.789 52.621-66.338 52.894-49.474 0.262-63.875-53.032-63.875-53.032l-2.738-10.217c-5.663 11.4-28.582 47.256-92.856 47.256-33.099 0-55.542-10.323-70.209-21.653-8.045 3.914-20.673 7.016-39.807 4.954-16.288-1.754-21.486-7.589-21.486-7.589l1.881-33.159 9.32-24.172 36.514 3.25-1.065 15.834 27.171-33.755c4.499-2.188 16.53-4.084 21.606-5.66v-203.166h76.738v204.697c3.411 1.229 13.897 2.611 17.021 4.129v-61.769h36.7v5.376l25.77 100.035c3.027-2.318 11.133-4.357 14.551-6.035l-60.359-246.225 174.592-0.622-62.467 248.186c2.307 1.283 12.271 3.515 14.385 5.098l24.918-95.027 0.271 0.089 17.79-26.324c-0.038-0.061-0.063-0.104-0.063-0.104l20.041-17.816 11.799-13.711v-99.391h41.902v99.989c1.863 0.482 7.59 1.021 9.295 1.613v-24.137h20.039v41.952c0 0-9.808 19.812-51.539 19.812z" />
<glyph unicode="&#xe00f;" d="M352 469.333c-88.365 0-160-71.634-160-160 0-10.013 0.929-19.808 2.688-29.312l-194.688-194.688v-96c0-17.673 14.327-32 32-32h32v32h64v64h64v64h64l41.521 41.521c17.005-6.158 35.348-9.521 54.479-9.521 88.365 0 160 71.635 160 160s-71.635 160-160 160zM399.937 309.27c-26.51 0-48 21.49-48 48s21.49 48 48 48 48-21.49 48-48-21.49-48-48-48z" />
<glyph unicode="&#xe010;" d="M192 213.333c35.376 0 64 28.656 64 64v128c0 35.344-28.624 64-64 64s-64-28.656-64-64v-128c0-35.344 28.624-64 64-64zM256 21.333h-32v67.248c90.624 15.312 160 93.84 160 188.752v31.008c0 17.68-14.32 32-32 32s-32-14.32-32-32v-31.008c0-70.592-57.376-128-128-128s-128 57.408-128 128v31.008c0 17.68-14.32 32-32 32s-32-14.32-32-32v-31.008c0-94.912 69.376-173.44 160-188.752v-67.248h-32c-35.376 0-64-28.624-64-64h256c0 35.376-28.624 64-64 64z" horiz-adv-x="384" />
<glyph unicode="&#xe011;" d="M256 340.5c-70.111 0-127.166-57.055-127.166-127.167s57.055-127.166 127.166-127.166 127.166 57.055 127.166 127.166c0 70.111-57.055 127.166-127.166 127.166zM256 122.5c-50.173 0-90.833 40.661-90.833 90.833s40.66 90.833 90.833 90.833 90.833-40.66 90.833-90.833-40.661-90.833-90.833-90.833zM256 376.832c10.029 0 18.166 8.137 18.166 18.166v36.334c0 10.029-8.137 18.166-18.166 18.166s-18.166-8.137-18.166-18.166v-36.334c0-10.029 8.137-18.166 18.166-18.166zM256 49.834c-10.029 0-18.166-8.137-18.166-18.166v-36.334c0-10.029 8.137-18.166 18.166-18.166s18.166 8.137 18.166 18.166v36.334c0 10.029-8.137 18.166-18.166 18.166zM397.288 328.956l25.689 25.689c7.097 7.097 7.097 18.593 0 25.689s-18.593 7.097-25.689 0l-25.689-25.689c-7.097-7.097-7.097-18.593 0-25.689 7.095-7.097 18.593-7.097 25.689 0zM114.713 97.709l-25.689-25.689c-7.097-7.095-7.097-18.591 0-25.688s18.593-7.097 25.689 0l25.689 25.688c7.097 7.12 7.097 18.594 0 25.689-7.095 7.098-18.593 7.122-25.689 0zM92.501 213.333c0 10.029-8.138 18.167-18.166 18.167h-36.334c-10.029 0-18.166-8.138-18.166-18.167s8.137-18.166 18.166-18.166h36.334c10.029 0 18.166 8.137 18.166 18.166zM473.999 231.5h-36.334c-10.029 0-18.166-8.137-18.166-18.167s8.137-18.166 18.166-18.166h36.334c10.029 0 18.166 8.137 18.166 18.166s-8.137 18.167-18.166 18.167zM114.687 328.956c7.098-7.097 18.594-7.097 25.689 0 7.098 7.097 7.098 18.593 0 25.689l-25.689 25.689c-7.097 7.097-18.59 7.097-25.689 0-7.097-7.097-7.097-18.593 0-25.689l25.689-25.689zM397.313 97.734c-7.12 7.097-18.594 7.097-25.689 0-7.098-7.097-7.12-18.593 0-25.689l25.689-25.689c7.095-7.097 18.591-7.097 25.688 0s7.097 18.591 0 25.689l-25.688 25.689z" />
<glyph unicode="&#xe012;" d="M208 405.333c8.833 0 16 7.167 16 16v32c0 8.833-7.167 16-16 16s-16-7.167-16-16v-32c0-8.833 7.167-16 16-16zM332.438 363.166l22.625 22.625c6.249 6.25 6.249 16.375 0 22.625-6.25 6.25-16.375 6.25-22.625 0l-22.625-22.625c-6.25-6.25-6.25-16.375 0-22.625 6.249-6.25 16.375-6.25 22.625 0zM16 245.333h32c8.833 0 16 7.167 16 16s-7.167 16-16 16h-32c-8.833 0-16-7.167-16-16s7.167-16 16-16zM352 261.333c0-8.833 7.167-16 16-16h32c8.833 0 16 7.167 16 16s-7.167 16-16 16h-32c-8.833 0-16-7.167-16-16zM83.54 363.166c6.252-6.25 16.376-6.25 22.625 0 6.252 6.25 6.252 16.375 0 22.625l-22.625 22.625c-6.251 6.25-16.373 6.25-22.625 0-6.251-6.25-6.251-16.375 0-22.625l22.625-22.625zM400 213.333c-5.312 0-10.563-0.375-15.792-1.125-16.772 22.876-39.123 40.333-64.459 51.501-1.291 60.624-50.812 109.624-111.75 109.624-61.75 0-112-50.251-112-112 0-17.438 4.334-33.749 11.501-48.438-59.625-2.438-107.501-51.375-107.501-111.563 0-61.75 50.251-112 112-112 13.688 0 27.084 2.5 39.709 7.332 28.958-25.249 65.792-39.332 104.291-39.332 38.541 0 75.332 14.083 104.291 39.332 12.624-4.833 26.021-7.332 39.709-7.332 61.75 0 112 50.25 112 112s-50.25 112-112 112zM208 341.333c39.811 0 72.563-29.167 78.709-67.25-10.021 2-20.249 3.25-30.707 3.25-45.939 0-88.5-19.812-118.375-53.251-5.939 11.167-9.626 23.709-9.626 37.251 0 44.188 35.813 80 80 80zM400 21.333c-17.125 0-32.916 5.5-45.938 14.668-23.478-28.293-58.438-46.668-98.062-46.668s-74.584 18.375-98.061 46.668c-13-9.168-28.814-14.668-45.939-14.668-44.189 0-80 35.812-80 80s35.811 80 80 80c7.749 0 15.061-1.459 22.125-3.541 2.811-0.792 5.667-1.417 8.312-2.521 4.375 8.563 9.875 16.397 15.98 23.75 23.376 28.125 58.147 46.312 97.584 46.312 10.125 0 19.834-1.458 29.25-3.708 10.563-2.5 20.541-6.292 29.834-11.292 23.291-12.375 42.416-31.542 54.457-55.063 9.397 3.875 19.668 6.063 30.459 6.063 44.188 0 80-35.812 80-80s-35.813-80-80-80z" />
<glyph unicode="&#xe013;" d="M400 309.333c-5.312 0-10.563-0.375-15.792-1.125-29.875 40.707-77.021 65.124-128.208 65.124s-98.312-24.417-128.208-65.124c-5.23 0.75-10.48 1.125-15.792 1.125-61.749 0-112-50.25-112-112s50.251-112 112-112c13.688 0 27.084 2.5 39.709 7.332 28.958-25.249 65.792-39.332 104.291-39.332 38.541 0 75.332 14.084 104.291 39.332 12.624-4.833 26.021-7.332 39.709-7.332 61.75 0 112 50.25 112 112s-50.25 112-112 112zM400 117.333c-17.125 0-32.916 5.5-45.938 14.668-23.478-28.291-58.438-46.668-98.062-46.668s-74.584 18.376-98.061 46.668c-13-9.168-28.814-14.668-45.939-14.668-44.189 0-80 35.812-80 80s35.811 80 80 80c10.811 0 21.061-2.208 30.438-6.084 21.23 41.416 63.853 70.084 113.563 70.084s92.334-28.668 113.541-70.084c9.397 3.875 19.668 6.084 30.459 6.084 44.188 0 80-35.812 80-80s-35.813-80-80-80z" />
<glyph unicode="&#xe014;" d="M400 405.333c-5.312 0-10.563-0.375-15.792-1.125-29.875 40.707-77.021 65.124-128.208 65.124s-98.312-24.417-128.208-65.124c-5.23 0.75-10.48 1.125-15.792 1.125-61.749 0-112-50.251-112-112s50.251-112 112-112c13.688 0 27.084 2.5 39.709 7.332 28.958-25.249 65.792-39.332 104.291-39.332 38.541 0 75.332 14.084 104.291 39.332 12.624-4.833 26.021-7.332 39.709-7.332 61.75 0 112 50.251 112 112s-50.25 112-112 112zM400 213.333c-17.125 0-32.916 5.5-45.938 14.668-23.478-28.293-58.438-46.668-98.062-46.668s-74.584 18.375-98.061 46.668c-13-9.168-28.814-14.668-45.939-14.668-44.189 0-80 35.812-80 80s35.811 80 80 80c10.811 0 21.061-2.208 30.438-6.084 21.23 41.416 63.853 70.084 113.563 70.084s92.334-28.667 113.541-70.084c9.397 3.876 19.668 6.084 30.459 6.084 44.188 0 80-35.812 80-80s-35.813-80-80-80zM225-10.667c0-17.688 14.312-32 32-32s32 14.312 32 32-32 64-32 64-32-46.312-32-64zM352 21.333c0-17.688 14.312-32 32-32s32 14.312 32 32-32 64-32 64-32-46.312-32-64zM96 85.333c0-17.688 14.312-32 32-32s32 14.312 32 32-32 64-32 64-32-46.312-32-64z" />
<glyph unicode="&#xe015;" d="M326.043 25.645l-18 10.376c0.541 3.125 0.957 6.311 0.957 9.624 0 3.312-0.416 6.5-1 9.625l18.043 10.397c8.417 4.916 11.291 15.729 6.459 24.104-4.877 8.479-15.668 11.375-24.125 6.5l-18.188-10.5c-4.877 4.147-10.375 7.396-16.5 9.603v20.896c0 9.772-7.938 17.688-17.688 17.688s-17.666-7.916-17.666-17.688v-20.875c-6.125-2.188-11.645-5.479-16.521-9.625l-18.147 10.5c-8.479 4.875-19.292 2-24.167-6.479-4.875-8.417-1.939-19.25 6.5-24.125l17.959-10.375c-0.584-3.147-0.959-6.334-0.959-9.646s0.375-6.5 0.959-9.624l-17.959-10.376c-8.459-4.875-11.375-15.75-6.5-24.188s15.688-11.312 24.125-6.438l18.167 10.438c4.875-4.125 10.397-7.375 16.541-9.563v-20.938c0-9.748 7.917-17.624 17.666-17.624s17.688 7.875 17.688 17.624v20.938c6.125 2.188 11.688 5.438 16.521 9.625l18.167-10.5c8.459-4.875 19.249-2 24.125 6.438 4.875 8.439 2.001 19.252-6.457 24.188zM256 27.958c-9.75 0-17.688 7.938-17.688 17.688s7.939 17.645 17.688 17.645 17.668-7.896 17.668-17.645-7.918-17.688-17.668-17.688zM474.166 73.083l-12.084 3.208c-0.291 3.833-1.208 7.479-2.896 10.979l8.772 8.772c4.125 4.125 4.104 10.792 0 14.853-4.084 4.104-10.709 4.125-14.833 0l-8.791-8.75c-3.459 1.625-7.147 2.563-10.959 2.875l-3.209 12.062c-1.5 5.583-7.25 8.938-12.875 7.438-5.604-1.521-8.875-7.271-7.417-12.875l3.209-11.896c-1.584-1.084-3.084-2.291-4.5-3.668-1.375-1.417-2.541-2.916-3.627-4.459l-11.896 3.209c-5.604 1.5-11.397-1.875-12.896-7.438-1.5-5.625 1.875-11.354 7.417-12.875l12-3.228c0.334-3.772 1.293-7.459 2.979-10.959l-8.812-8.812c-4.084-4.104-4.062-10.729 0.043-14.812 4.084-4.084 10.709-4.125 14.792-0.043l8.832 8.833c3.459-1.707 7.168-2.666 11.001-2.957l3.166-12.021c1.541-5.604 7.25-8.938 12.875-7.438 5.583 1.5 8.957 7.249 7.459 12.916l-3.209 11.896c1.5 1.062 3.043 2.25 4.459 3.625 1.375 1.396 2.541 2.938 3.624 4.479l11.916-3.209c5.604-1.5 11.375 1.853 12.853 7.417 1.5 5.584-1.812 11.332-7.396 12.875zM438.312 66.395c-4.125-4.125-10.772-4.104-14.875 0-4.062 4.062-4.104 10.729 0 14.853 4.104 4.084 10.772 4.084 14.875 0 4.063-4.103 4.063-10.791 0-14.853zM118.939 126.833l-11.876-3.188c-1.104 1.5-2.251 3.021-3.645 4.438-1.416 1.375-2.915 2.563-4.479 3.625l3.189 11.938c1.501 5.604-1.835 11.375-7.375 12.853-5.625 1.5-11.375-1.834-12.876-7.417l-3.251-12.062c-3.811-0.312-7.459-1.25-10.939-2.896l-8.812 8.772c-4.124 4.125-10.749 4.104-14.834 0-4.104-4.104-4.104-10.75 0-14.853l8.772-8.772c-1.645-3.5-2.605-7.188-2.896-10.979l-12.043-3.208c-5.625-1.541-8.959-7.25-7.459-12.875 1.521-5.583 7.271-8.875 12.896-7.417l11.876 3.229c1.062-1.604 2.251-3.105 3.688-4.5 1.375-1.375 2.876-2.604 4.438-3.625l-3.188-11.896c-1.501-5.625 1.834-11.417 7.416-12.916 5.626-1.5 11.334 1.833 12.835 7.438l3.251 12c3.811 0.312 7.501 1.271 11 2.938l8.791-8.792c4.084-4.123 10.709-4.041 14.835 0.043 4.061 4.062 4.124 10.709 0 14.812l-8.811 8.812c1.688 3.459 2.688 7.188 2.939 11.001l12.061 3.188c5.562 1.521 8.896 7.25 7.396 12.875-1.501 5.561-7.251 8.895-12.897 7.437zM88.563 98.376c-4.104-4.104-10.749-4.104-14.876 0-4.061 4.084-4.061 10.772 0 14.833 4.124 4.084 10.772 4.084 14.876 0s4.063-10.751 0-14.833zM512 293.333c0 61.749-50.25 112-112 112-5.312 0-10.563-0.375-15.792-1.125-29.875 40.707-77.021 65.124-128.208 65.124s-98.312-24.417-128.208-65.124c-5.23 0.75-10.48 1.125-15.792 1.125-61.749 0-112-50.251-112-112s50.251-112 112-112c13.688 0 27.084 2.5 39.709 7.332 28.958-25.249 65.792-39.332 104.291-39.332 38.541 0 75.332 14.084 104.291 39.332 12.624-4.833 26.021-7.332 39.709-7.332 61.75 0 112 50.251 112 112zM354.062 228.001c-23.478-28.293-58.438-46.668-98.062-46.668s-74.584 18.375-98.061 46.668c-13-9.168-28.814-14.668-45.939-14.668-44.189 0-80 35.812-80 80s35.811 80 80 80c10.811 0 21.061-2.208 30.438-6.084 21.23 41.416 63.853 70.084 113.563 70.084s92.334-28.667 113.541-70.084c9.397 3.876 19.668 6.084 30.459 6.084 44.188 0 80-35.812 80-80s-35.812-80-80-80c-17.125 0-32.916 5.5-45.938 14.668z" />
<glyph unicode="&#xe016;" d="M70.165 131.206c-15.971 0-30.813 0-46.932 0 16.884 58.863 33.38 116.377 49.877 173.892-1.359 0.5-2.719 1.001-4.078 1.5-1.46-2.979-3.358-5.823-4.312-8.956-8.393-27.548-16.616-55.148-24.891-82.733-0.772-2.572-1.428-5.188-2.346-7.711-3.737-10.269-11.642-15.195-20.176-12.672-9.24 2.733-14.277 11.524-11.412 22.125 3.904 14.452 8.784 28.636 13.132 42.968 6.355 20.947 12.506 41.957 18.935 62.883 7.707 25.089 25.032 37.707 51.438 37.731 15.419 0.015 30.843 0.033 46.261-0.005 23.46-0.057 42.633-13.64 49.547-35.921 10.697-34.479 21.207-69.024 31.101-103.74 1.643-5.765 1.678-13.642-1.101-18.514-2.398-4.204-10.709-8.553-14.868-7.382-5.554 1.568-11.964 7.589-13.904 13.136-7.344 20.995-13.004 42.577-19.349 63.924-2.844 9.567-5.675 19.143-8.828 28.609-0.787 2.363-2.8 4.313-4.25 6.454-1.332-0.566-2.664-1.132-3.995-1.699 16.64-57.448 33.28-114.896 50.326-173.74-16.243 0-31.080 0-47.177 0 0-8.665 0-16.26 0-23.856 0-34.311 0.052-68.62-0.026-102.933-0.033-14.365-6.168-21.696-17.954-21.937-12.416-0.248-18.705 7.104-18.72 22.167-0.043 41.594-0.015 83.188-0.015 124.49-10.293 5.308-9.421-1.589-9.421-7.452-0.008-39.709 0.076-79.418-0.052-119.124-0.044-14.105-7.688-21.173-20.728-19.812-10.597 1.104-15.995 8.021-16.037 21.473-0.12 37.781-0.043 75.564-0.043 113.341 0.002 4.149 0.002 8.295 0.002 13.493zM416.995 177.122c0-4.132 0-8.26 0-12.389 0-52.447-0.068-104.894 0.053-157.341 0.025-11.354-4.497-19.439-15.404-23.053-9.831-3.26-19.156-0.904-24.503 7.714-3.372 5.433-4.426 13.033-4.479 19.678-0.372 44.348-0.195 88.695-0.195 133.045 0 47.818 0.040 95.639-0.072 143.457-0.010 4.001-1.047 8-1.604 12-1.3-0.045-2.599-0.091-3.899-0.135-0.269-3.839-0.765-7.676-0.774-11.514-0.063-30.465-0.084-60.932-0.012-91.397 0.024-9.931-3.257-17.608-13.868-19.577-11.252-2.088-20.068 4.448-20.204 16.503-0.44 40.481-1.329 81.029 0.473 121.438 1.354 30.364 28.419 46.323 50.476 45.013 24.211-1.438 48.644-1.52 72.848-0.017 28.459 1.765 52.683-21.355 52.363-51.981-0.344-33.163-0.070-66.329-0.075-99.496 0-5.012 0.226-10.043-0.127-15.033-0.836-11.796-6.509-17.010-17.592-16.598-10.027 0.375-15.276 6.065-15.328 17.493-0.14 30.852-0.050 61.704-0.050 92.555 0 4.093 0 8.187 0 14.56-3.661-2.595-6.284-3.476-6.576-4.856-0.709-3.332-0.385-6.892-0.385-10.36-0.009-92.937-0.067-185.877 0.082-278.817 0.016-9.696-2.252-18.865-11.548-21.813-6.921-2.192-16.967-2.397-22.541 1.236-5.548 3.616-9.417 12.899-10.184 20.104-1.543 14.491-0.485 29.259-0.49 43.912-0.005 38.18 0.055 76.358-0.081 114.535-0.017 3.947-1.169 7.892-1.793 11.837-1.503-0.236-3.008-0.467-4.513-0.702zM247.367 441.334c14.357 0 28.059 0 42.484 0 0-151.971 0-303.312 0-455.324-14.058 0-27.803 0-42.484 0 0 151.244 0 302.552 0 455.324zM112.684 445.865c21.509-0.1 38.127-16.891 37.768-38.16-0.355-20.894-17.963-37.938-38.895-37.649-21.219 0.295-37.829 17.443-37.531 38.75 0.299 21.467 16.669 37.16 38.659 37.059zM382.452 408.761c0.072 22.050 15.675 37.201 38.212 37.104 21.308-0.092 38.245-17.172 37.831-38.155-0.411-20.892-18.027-37.936-38.92-37.653-21.304 0.288-37.195 16.86-37.123 38.704z" />
<glyph unicode="&#xe017;" d="M210.801 432.497c30.129 0 60.262 0 90.393 0 20.002-5.965 27.411-19.527 25.52-39.925-1.119-12.074-0.204-24.335-0.204-37.305 23.269 0 45.452 0 68.426 0 0-113.185 0-225.55 0-337.915-92.627 0-185.252 0-277.877 0 0.115 3.613 0.326 7.229 0.327 10.846 0.019 105.363 0.013 210.726 0.013 316.088 0 3.511 0 7.021 0 11.496 23.368 0 45.494 0 68.147 0 0 16.553 0.041 32.131-0.015 47.709-0.043 12.345 6.464 20.265 17.020 25.463 2.679 1.319 5.495 2.368 8.249 3.544zM211.044 356.077c30.351 0 59.922 0 89.261 0 0 16.683 0 32.648 0 48.803-30.046 0-59.411 0-89.26 0 0-16.453 0-32.445 0-48.803zM91.948 17.353c-13.95 0-27.9 0-41.849 0-8.065 3.264-16.548 5.772-24.099 9.968-11.675 6.488-16.3 18.558-21.099 30.207 0 85.931 0 171.862 0 257.792 3.533 6.799 6.244 14.209 10.753 20.284 14.413 19.416 48.534 27.458 77.025 18.607 0-2.344 0-4.84 0-7.335 0-107.076 0.005-214.153-0.031-321.228 0.001-2.764-0.456-5.529-0.701-8.293zM461.896 17.353c-13.947 0-27.899 0-41.851 0-0.243 3.043-0.7 6.086-0.702 9.129-0.036 106.493-0.029 212.984-0.029 319.477 0 2.979 0 5.957 0 9.587 14.003 0 27.043 0.476 40.039-0.101 25.676-1.141 47.415-22.636 47.531-48.121 0.361-80.564 0.193-161.131 0.026-241.694-0.024-11.49-4.56-21.609-11.873-30.515-8.631-10.51-20.652-14.537-33.14-17.762z" />
<glyph unicode="&#xe018;" d="M438.857 85.333v-36.572q0-7.428-5.428-12.857t-12.857-5.428h-402.286q-7.428 0-12.857 5.428t-5.428 12.857v36.572q0 7.428 5.428 12.857t12.857 5.428h402.286q7.428 0 12.857-5.428t5.428-12.857zM438.857 231.619v-36.572q0-7.428-5.428-12.857t-12.857-5.428h-402.286q-7.428 0-12.857 5.428t-5.428 12.857v36.572q0 7.428 5.428 12.857t12.857 5.429h402.286q7.428 0 12.857-5.428t5.428-12.857zM438.857 377.905v-36.571q0-7.428-5.428-12.857t-12.857-5.429h-402.286q-7.428 0-12.857 5.428t-5.428 12.857v36.571q0 7.429 5.428 12.857t12.857 5.429h402.286q7.428 0 12.857-5.429t5.428-12.857z" horiz-adv-x="439" />
<glyph unicode="&#xe019;" d="M432 309.333c-17.6 0-32-14.4-32-32v-128c0-17.6 14.4-32 32-32s32 14.4 32 32v128c0 17.6-14.4 32-32 32zM48 309.333c-17.6 0-32-14.4-32-32v-128c0-17.6 14.4-32 32-32s32 14.4 32 32v128c0 17.6-14.401 32-32 32zM96 101.333c0-26.51 21.49-48 48-48h16v-64c0-17.6 14.4-32 32-32s32 14.4 32 32v64h32v-64c0-17.6 14.401-32 32-32s32 14.4 32 32v64h16c26.51 0 48 21.49 48 48v176h-288v-176zM299.3 424.586l20.252 38.903c1.016 1.951 0.25 4.38-1.7 5.396s-4.38 0.25-5.396-1.701l-20.559-39.493c-16.099 6.223-33.596 9.643-51.896 9.643-18.298 0-35.797-3.42-51.899-9.644l-20.558 39.493c-1.016 1.951-3.444 2.716-5.395 1.7s-2.716-3.443-1.701-5.395l20.25-38.904c-45.315-20.509-78.12-63.792-83.811-115.253h286.221c-5.688 51.463-38.493 94.745-83.809 115.255zM176 334.133c-12.813 0-23.2 10.388-23.2 23.2s10.387 23.2 23.2 23.2 23.2-10.387 23.2-23.2c-0.001-12.813-10.387-23.2-23.2-23.2zM304 334.133c-12.813 0-23.201 10.388-23.201 23.2s10.389 23.2 23.201 23.2 23.199-10.387 23.199-23.2c0-12.813-10.387-23.2-23.199-23.2z" />
<glyph unicode="&#xe01a;" d="M395.748 197.288c-0.647 64.841 52.879 95.939 55.271 97.484-30.077 44.010-76.924 50.039-93.62 50.736-39.871 4.036-77.798-23.475-98.033-23.475-20.184 0-51.409 22.876-84.476 22.275-43.459-0.645-83.529-25.268-105.906-64.189-45.152-78.349-11.563-194.42 32.445-257.964 21.504-31.101 47.147-66.037 80.813-64.789 32.421 1.293 44.681 20.979 83.877 20.979s50.214-20.979 84.524-20.335c34.887 0.648 56.991 31.7 78.346 62.899 24.695 36.084 34.863 71.019 35.462 72.813-0.772 0.353-68.029 26.118-68.703 103.567zM331.281 387.572c17.868 21.679 29.93 51.757 26.64 81.761-25.74-1.048-56.94-17.145-75.404-38.775-16.572-19.189-31.075-49.813-27.188-79.219 28.733-2.243 58.064 14.602 75.952 36.232z" />
<glyph unicode="&#xe01b;" d="M240 437.333c-132.548 0-240-107.451-240-240s107.451-240 240-240c132.548 0 240 107.451 240 240s-107.452 240-240 240zM375.796 117.333c4.291 20.228 6.998 41.696 7.879 64h63.724c-1.668-22.099-6.813-43.557-15.339-64h-56.263zM104.204 277.333c-4.29-20.228-6.998-41.696-7.879-64h-63.721c1.669 22.097 6.812 43.557 15.34 64h56.261zM343.019 277.333c4.807-20.481 7.7-41.927 8.64-64h-95.659v64h87.019zM256 309.333v93.668c7.295-2.124 14.522-5.685 21.613-10.685 13.291-9.37 26.005-23.803 36.771-41.743 7.441-12.401 13.875-26.208 19.248-41.243h-77.632zM165.616 350.576c10.763 17.94 23.477 32.374 36.77 41.743 7.091 5 14.319 8.563 21.613 10.684v-93.669h-77.632c5.373 15.033 11.808 28.84 19.248 41.242zM224 277.333v-64h-95.657c0.94 22.073 3.833 43.519 8.639 64h87.019zM47.944 117.333c-8.528 20.443-13.671 41.901-15.34 64h63.722c0.881-22.304 3.588-43.772 7.879-64h-56.261zM128.343 181.333h95.657v-64h-87.019c-4.805 20.48-7.698 41.927-8.639 64zM224 85.333v-93.669c-7.293 2.123-14.523 5.685-21.613 10.685-13.291 9.37-26.007 23.805-36.77 41.743-7.441 12.402-13.875 26.209-19.249 41.243h77.633zM314.384 44.091c-10.764-17.938-23.479-32.373-36.77-41.743-7.091-4.999-14.319-8.563-21.613-10.685v93.67h77.633c-5.373-15.033-11.808-28.84-19.249-41.243zM256 117.333v64h95.657c-0.94-22.073-3.833-43.52-8.64-64h-87.017zM383.675 213.333c-0.881 22.304-3.589 43.773-7.879 64h56.262c8.528-20.444 13.672-41.903 15.339-64h-63.723zM415.329 309.333h-47.95c-9.319 29.38-22.188 55.147-37.659 75.714 21.269-10.17 40.529-23.808 57.356-40.635 10.74-10.739 20.182-22.469 28.252-35.079zM92.922 344.411c16.829 16.828 36.091 30.466 57.356 40.635-15.471-20.567-28.338-46.332-37.659-75.715l-47.948 0.001c8.069 12.609 17.511 24.339 28.251 35.077zM64.672 85.333h47.948c9.32-29.38 22.189-55.147 37.66-75.716-21.268 10.171-40.529 23.808-57.356 40.637-10.74 10.74-20.183 22.469-28.252 35.079zM387.077 50.256c-16.827-16.829-36.091-30.467-57.356-40.637 15.471 20.567 28.339 46.334 37.659 75.716h47.95c-8.070-12.611-17.511-24.341-28.252-35.079z" />
<glyph unicode="&#xe01c;" d="M437.019 394.353c48.352-48.352 74.981-112.64 74.981-181.021 0-68.38-26.628-132.667-74.981-181.019s-112.64-74.98-181.019-74.98c-68.38 0-132.667 26.628-181.019 74.98s-74.981 112.639-74.981 181.019c0 68.381 26.628 132.669 74.981 181.021 48.352 48.352 112.64 74.981 181.019 74.981s132.668-26.629 181.019-74.981zM414.392 54.94c31.529 31.531 52.493 70.805 61.136 113.531-6.737-9.919-13.18-13.598-17.171 8.603-4.111 36.195-37.354 13.075-58.258 25.93-22.002-14.829-71.454 28.831-63.049-20.411 12.967-22.212 70.004 29.724 41.574-17.271-18.137-32.808-66.321-105.466-60.053-143.129 0.791-54.872-56.067-11.442-75.657 6.76-13.178 36.459-4.492 100.187-38.948 118.043-37.401 1.624-69.503 5.023-83.998 46.836-8.724 29.915 9.282 74.447 41.34 81.323 46.924 29.482 63.687-34.527 107.695-35.718 13.664 14.297 50.907 18.844 53.995 34.876-28.875 5.095 36.635 24.279-2.764 35.191-21.735-2.556-35.74-22.537-24.184-39.479-42.119-9.821-43.469 60.952-83.956 38.628-1.029-35.295-66.111-11.442-22.518-4.286 14.978 6.544-24.429 25.507-3.139 22.062 10.457 0.568 45.665 12.906 36.137 21.201 19.606 12.171 36.080-29.145 55.269 0.941 13.853 23.133-5.81 27.404-23.176 15.678-9.79 10.963 17.286 34.638 41.167 44.869 7.959 3.41 15.561 5.269 21.373 4.741 12.029-13.896 34.276-16.303 35.439 1.671-29.791 14.267-62.637 21.805-96.645 21.805-48.811 0-95.236-15.512-133.654-44.196 10.325-4.729 16.186-10.618 6.239-18.147-7.728-23.028-39.084-53.939-66.612-49.563-14.293-24.648-23.705-51.803-27.729-80.264 23.056-7.627 28.371-22.725 23.417-27.775-11.748-10.244-18.968-24.765-22.688-40.661 7.505-45.919 29.087-88.239 62.635-121.788 42.309-42.308 98.559-65.607 158.392-65.607s116.084 23.3 158.392 65.607z" />
<glyph unicode="&#xe01d;" d="M0 405.333h64v-320h-64zM96 405.333h32v-320h-32zM160 405.333h32v-320h-32zM256 405.333h32v-320h-32zM384 405.333h32v-320h-32zM480 405.333h32v-320h-32zM320 405.333h16v-320h-16zM224 405.333h16v-320h-16zM432 405.333h16v-320h-16zM0 53.333h32v-32h-32zM96 53.333h32v-32h-32zM160 53.333h32v-32h-32zM320 53.333h32v-32h-32zM480 53.333h32v-32h-32zM384 53.333h64v-32h-64zM224 53.333h64v-32h-64z" />
<glyph unicode="&#xe01e;" d="M144 277.333h-96c-8.8 0-16-7.2-16-16v-288c0-8.8 7.2-16 16-16h96c8.8 0 16 7.2 16 16v288c0 8.8-7.2 16-16 16zM144-10.667h-96v128h96v-128zM304 341.333h-96c-8.8 0-16-7.2-16-16v-352c0-8.8 7.2-16 16-16h96c8.8 0 16 7.2 16 16v352c0 8.8-7.2 16-16 16zM304-10.667h-96v160h96v-160zM464 405.333h-96c-8.8 0-16-7.2-16-16v-416c0-8.8 7.2-16 16-16h96c8.8 0 16 7.2 16 16v416c0 8.8-7.2 16-16 16zM464-10.667h-96v192h96v-192z" />
<glyph unicode="&#xe01f;" d="M154.333-15.398v-24.096h251.788l0.001 26.507 11.533 64.711c6.912 4.631 39.695 72.229 17.209 91.217-22.485 18.986-220.466-9.296-229.244-3.445-8.779 5.853-19.104 55.591-19.104 55.591h128.956c18.617 0.975 17.153 43.032-0.517 44.405l-145.131 1.548c0 0-36.156 105.96-33.216 122.195 10.892 69.599 0 84.332 0 84.332-11.609 17.37-56.279 24.515-56.279-0.002v-110.147c0 0 58.874-279.572 63.679-283.977l10.325-68.84z" />
<glyph unicode="&#xe020;" d="M232.528 158.581l-169.248 169.248c-84.368-97.376-84.368-241.12 0-338.496l169.248 169.248zM256 181.333v288c-78.496-4.88-149.248-34.88-206.352-81.632l206.352-206.368zM288.032 405.077v-236.992l-166.128-166.128c37.248-27.376 82.128-44.624 131.76-44.624 125.088 0 226.336 101.248 226.336 226.128 0 113.248-83.632 204.992-191.968 221.616z" horiz-adv-x="480" />
<glyph unicode="&#xe021;" d="M214.647 404.808h88.353v-88.353h-88.353zM214.647 257.814h88.353v-88.353h-88.353zM214.647 110.449h88.353v-88.353h-88.353z" />
<glyph unicode="&#xe022;" d="M105.769-5.751c-56.044 0-101.639 45.596-101.639 101.639s45.596 101.64 101.639 101.64 101.639-45.596 101.639-101.64-45.596-101.639-101.639-101.639zM105.769 180.528c-46.669 0-84.639-37.969-84.639-84.64 0-46.67 37.969-84.639 84.639-84.639s84.639 37.969 84.639 84.639c-0.001 46.672-37.971 84.64-84.639 84.64zM406.861-5.751c-56.044 0-101.641 45.596-101.641 101.639s45.596 101.64 101.641 101.64c56.043 0 101.637-45.596 101.637-101.64s-45.594-101.639-101.637-101.639zM406.861 180.528c-46.671 0-84.641-37.969-84.641-84.64 0-46.67 37.971-84.639 84.641-84.639 46.668 0 84.637 37.969 84.637 84.639 0.001 46.672-37.968 84.64-84.637 84.64zM240.848 371.873c-9.104-0.875-100.413-57.864-112.907-115.877-7.039-32.685 101.292-61.633 107.080-77.253 5.79-15.62 6.018-92.642 9.142-103.995 3.125-11.354 33.445-16.611 37.711-6.858 4.267 9.752 7.606 136.62 1.885 148.991-5.759 12.453-64.281 40.712-64.281 40.712s40.561 40.287 46.339 35.798c8.224-6.389 27.303-31.037 36.94-36.941s72.81-0.027 81.284 2.286c8.291 2.264 9.959 27.93 0 30.855-7.574 2.225-52.62-3.298-64.492 2.457-10.216 4.952-14.973 32.219-22.249 43.455-7.274 11.238-47.346 37.247-56.452 36.37zM273.188 390.843c-0-0.066-0-0.144-0-0.223 0-23.984 19.443-43.427 43.428-43.427s43.428 19.443 43.428 43.428c0 0.079 0 0.156-0 0.235 0 0.054 0 0.133 0 0.211 0 23.985-19.443 43.428-43.428 43.428s-43.428-19.443-43.428-43.428c0-0.078 0-0.156 0-0.235z" />
<glyph unicode="&#xe024;" d="M125.279 411.403c24.698-44.572 48.565-87.644 73.489-132.623-22.859 0.234-43.654 0.13-64.412 0.97-3.436 0.139-7.237 3.916-9.977 6.849-16.763 17.942-33.017 36.37-50.060 54.038-3.551 3.681-9.564 6.442-14.671 6.868-12.671 1.060-25.472 0.524-39.328 0.637 13.073-49.23 25.779-97.075 38.847-146.289 23.816-0.346 47.792-0.796 71.768-1.023 103.067-0.967 206.132-2.151 309.199-2.394 11.428-0.024 24.384 3.001 33.995 8.909 24.144 14.839 23.223 47.333-1.334 61.541-8.317 4.814-19.091 7.183-28.819 7.428-45.483 1.155-90.991 1.509-136.487 1.339-9.923-0.038-16.456 2.803-22.784 10.404-32.92 39.538-66.191 78.787-99.844 117.7-3.409 3.94-10.133 6.769-15.435 6.965-13.901 0.52-27.868-0.703-44.145-1.32zM112.651 164.097c0 0 0 0 0 0 0-11.536 9.352-20.887 20.887-20.887s20.887 9.351 20.887 20.887c0 0 0 0 0 0s0 0 0 0c0 11.536-9.351 20.887-20.887 20.887s-20.887-9.351-20.887-20.887 0 0 0 0zM394.136 164.097c0 0 0 0 0 0 0-11.536 9.351-20.887 20.887-20.887s20.887 9.351 20.887 20.887c0 0 0 0 0 0s0 0 0 0c0 11.536-9.351 20.887-20.887 20.887s-20.887-9.351-20.887-20.887 0 0 0 0zM0.887 131.894h512.226v-35.783h-512.226z" />
<glyph unicode="&#xe025;" d="M0.887 131.894h512.226v-35.783h-512.226v35.783zM74.521 398.304c42.637-27.906 83.839-54.874 126.863-83.035-20.328-10.456-38.674-20.247-57.428-29.186-3.105-1.48-8.228 0.088-12.020 1.406-23.196 8.053-46.169 16.771-69.485 24.45-4.858 1.6-11.465 1.237-16.18-0.769-11.702-4.972-22.775-11.417-35.084-17.779 34.526-37.449 68.081-73.844 102.595-111.283 21.228 10.803 42.646 21.588 63.96 32.569 91.619 47.217 183.339 94.242 274.621 142.102 10.12 5.307 20.169 14.028 25.914 23.736 14.435 24.388-1.535 52.701-29.884 53.816-9.603 0.378-20.237-2.552-28.958-6.871-40.77-20.194-81.189-41.106-121.354-62.478-8.759-4.662-15.863-5.196-25.007-1.424-47.561 19.618-95.298 38.819-143.218 57.543-4.853 1.897-12.121 1.261-16.901-1.037-12.539-6.026-24.324-13.622-38.434-21.76zM201.515 186.813c0-9.594-7.778-17.371-17.371-17.371s-17.371 7.777-17.371 17.371c0 9.594 7.778 17.371 17.371 17.371s17.371-7.777 17.371-17.371zM473.591 322.456c0-9.593-7.777-17.371-17.371-17.371s-17.371 7.778-17.371 17.371c0 9.594 7.777 17.371 17.371 17.371s17.371-7.777 17.371-17.371z" />
<glyph unicode="&#xe027;" d="M320 365.333h-288c-17.6 0-32-14.4-32-32v-216l32-32h40.583c-5.449-9.416-8.583-20.339-8.583-32 0-35.346 28.654-64 64-64 35.347 0 64 28.654 64 64 0 11.661-3.133 22.584-8.583 32h177.167c-5.448-9.416-8.584-20.339-8.584-32 0-35.346 28.654-64 64-64s64 28.654 64 64c0 11.661-3.135 22.584-8.584 32h40.584v96l-64 184h-96zM368 217.333v105h66.334l40-105h-106.334zM24.956 320.833h60.905v-81.5h-60.905zM109.033 320.833h60.907v-81.5h-60.906zM187.152 320.833h60.906v-81.5h-60.906zM266.594 320.833h60.906v-81.5h-60.906z" />
<glyph unicode="&#xe028;" d="M256 469.333c-88.365 0-160-71.634-160-160 0-160 160-352 160-352s160 192 160 352c0 88.365-71.635 160-160 160zM256 211.333c-54.124 0-98 43.877-98 98s43.876 98 98 98 98-43.877 98-98-43.875-98-98-98zM194 309.333c0-34.242 27.758-62 62-62s62 27.758 62 62c0 34.241-27.759 62-62 62s-62-27.759-62-62z" />
<glyph unicode="&#xe029;" d="M256 469.333c-88.365 0-160-71.634-160-160 0-160 160-352 160-352s160 192 160 352c0 88.365-71.635 160-160 160zM256 213.333c-53.020 0-96 42.98-96 96s42.98 96 96 96 96-42.98 96-96-42.981-96-96-96z" />
<glyph unicode="&#xe02a;" d="M480 53.333c-17.664 0-32 14.336-32 32v128c0 106.032-85.968 192-192 192s-192-85.968-192-192v-128c0-17.664-14.336-32-32-32s-32 14.336-32 32v128c0 141.392 114.624 256 256 256s256-114.608 256-256v-128c0-17.664-14.336-32-32-32zM112 181.333h32c8.832 0 16-7.152 16-16v-160c0-8.848-7.168-16-16-16h-32c-8.832 0-16 7.152-16 16v160c0 8.848 7.168 16 16 16zM368 181.333h32c8.848 0 16-7.152 16-16v-160c0-8.848-7.152-16-16-16h-32c-8.848 0-16 7.152-16 16v160c0 8.848 7.152 16 16 16z" />
<glyph unicode="&#xe02b;" d="M507-43.494h-395.666c-25.909 48.807-42.956 350.719-47.004 377.913 0 0-6.581 71.164 0 110.146 4.249 25.175 59.569 13.153 79.278 0 0 0 113.988-91.115-15.022-129.277 1.596-17.285 18.238-57.248 18.238-57.248s109.176 30.2 145.132 18.452c124.626-19.752 215.044-319.986 215.044-319.986z" />
<glyph unicode="&#xe02c;" d="M441.495 249.768c-37.515 0-67.927-34.477-67.927-77.007v-54.245l-235.715-0.001v54.245c0 42.529-30.412 77.007-67.925 77.007s-67.927-34.477-67.927-77.006c0-27.784 12.983-52.123 32.443-65.668v-149.76h452.168v157.879c13.99 14.105 22.812 34.654 22.812 57.548 0 42.529-30.411 77.007-67.927 77.007zM159.143 175.954v-33.305h193.643v33.305c0 0-11.152 93.2 88.709 91.105 0 0 0.129 1.788 0.274 4.957-5.339 89.244-66.293 162.684-146.995 182.74-37.449 4.887-74.627 2.436-111.669-7.252-63.213-24.765-110.605-83.449-121.998-154.907-1.316-15.304-1.318-25.536-1.318-25.536 106.544 5.274 99.355-91.107 99.355-91.107z" />
<glyph unicode="&#xe02d;" d="M256.5 465.333c-139.452 0-252.5-113.048-252.5-252.5 0-139.451 113.048-252.499 252.5-252.499 139.451 0 252.5 113.049 252.5 252.499 0 139.453-113.049 252.5-252.5 252.5zM399.173 70.161c-18.538-18.541-40.119-33.092-64.142-43.252-24.858-10.514-51.281-15.844-78.531-15.844-27.251 0-53.672 5.332-78.531 15.844-19.904 8.42-38.125 19.861-54.335 34.079l55.115 55.116-18.981 18.981-55.117-55.116c-14.219 16.211-25.66 34.432-34.080 54.335-10.512 24.858-15.843 51.282-15.843 78.531 0 27.252 5.331 53.672 15.845 78.531 10.162 24.023 24.713 45.605 43.252 64.143s40.12 33.091 64.143 43.252c24.858 10.514 51.279 15.844 78.531 15.844 27.249 0 53.672-5.332 78.531-15.844 19.903-8.42 38.125-19.861 54.335-34.080l-54.748-54.749 18.981-18.981 54.748 54.749c14.219-16.211 25.661-34.431 34.079-54.335 10.514-24.858 15.844-51.279 15.844-78.531 0-27.249-5.332-53.672-15.844-78.531-10.16-24.022-24.713-45.603-43.252-64.142zM248.308 318.281v-84.063c0-5.254-1.577-10.073-4.729-14.448-3.152-4.384-17.183-7.446-22.083-9.196v-102.451c0-4.548-1.667-8.488-4.992-11.82-3.333-3.325-7.273-4.991-11.821-4.991h3.189c-4.555 0-8.497 1.666-11.821 4.991-3.333 3.332-4.991 7.273-4.991 11.82l-0.001 102.449c-4.909 1.75-18.933 4.813-22.083 9.196-3.152 4.375-4.729 9.195-4.729 14.448v84.063c0 2.101 0.869 4.021 2.627 5.78 1.749 1.748 3.678 2.627 5.78 2.627s4.022-0.878 5.78-2.627c1.749-1.757 2.627-3.678 2.627-5.78v-54.641c0-2.101 0.869-4.031 2.627-5.78 1.749-1.757 3.678-2.627 5.78-2.627 2.101 0 4.022 0.869 5.78 2.627 1.749 1.748 2.626 3.678 2.626 5.78v54.641c0 2.101 0.869 4.021 2.627 5.78 1.749 1.748 3.677 2.627 5.78 2.627 2.101 0 4.022-0.878 5.78-2.627 1.749-1.757 2.627-3.678 2.627-5.78v-54.641c0-2.101 0.869-4.031 2.627-5.78 1.749-1.757 3.678-2.627 5.78-2.627s4.022 0.869 5.78 2.627c1.749 1.748 2.627 3.678 2.627 5.78v54.641c0 2.101 0.869 4.021 2.627 5.78 1.749 1.748 3.677 2.627 5.78 2.627 2.101 0 4.022-0.878 5.78-2.627 1.742-1.757 2.62-3.678 2.62-5.779zM329.182 318.281v-210.158c0-4.548-1.665-8.488-4.99-11.82-3.332-3.325-7.274-4.991-11.82-4.991h3.188c-4.556 0-8.497 1.666-11.822 4.991-3.332 3.332-4.99 7.273-4.99 11.82v67.251h-29.423c-1.051 0-2.021 0.435-2.889 1.313-0.879 0.87-1.315 1.84-1.315 2.89l-0.001 105.078c0 11.559 4.113 21.452 12.349 29.684 8.226 8.226 18.125 12.348 29.685 12.348h13.624c2.101 0 4.023-0.877 5.781-2.627 1.744-1.759 2.623-3.68 2.623-5.78z" />
<glyph unicode="&#xe02e;" d="M287.575 159.825c0 8.401-2.411 15.245-7.235 20.535-4.822 5.289-13.094 10.214-24.811 14.779-23.024 8.4-40.112 17.759-51.26 28.080-11.149 10.318-16.724 24.863-16.724 43.636 0 17.423 5.573 31.707 16.724 42.858 11.148 11.147 26.159 17.708 45.036 19.679v33.447h24.734v-33.757c18.252-2.698 32.591-10.321 43.014-22.867 10.423-12.55 15.529-28.833 15.324-48.848l-0.467-0.779h-44.336c0 12.237-2.517 21.676-7.545 28.313-5.032 6.636-11.901 9.956-20.611 9.956-8.921 0-15.555-2.567-19.912-7.7-4.356-5.133-6.534-11.955-6.534-20.457 0-8.089 2.308-14.65 6.923-19.679 4.613-5.032 13.093-9.983 25.436-14.857 22.919-9.022 39.901-18.668 50.947-28.936 11.046-10.267 16.568-24.632 16.568-43.091 0-18.046-5.55-32.462-16.645-43.248-11.099-10.788-26.188-17.163-45.269-19.134v-30.803h-24.733v30.647c-19.395 1.971-35.418 8.84-48.070 20.611-12.654 11.771-18.772 29.063-18.357 51.881l0.311 0.779h44.336c0-13.899 3.189-23.855 9.567-29.868 6.379-6.016 14.493-9.022 24.346-9.022 9.435 0 16.668 2.514 21.7 7.545 5.029 5.031 7.544 11.798 7.544 20.301zM430.456 389.056c-46.52 46.52-108.37 72.139-174.159 72.139-0.005 0 0.005 0-0.001 0-85.156-0.001-163.547-43.697-208.493-115.112l-48.312 14.1 35.512-145.291 108.072 103.384-44.829 13.084c36.711 49.828 95.053 79.833 158.050 79.833 108.239 0 196.299-88.059 196.299-196.3s-88.060-196.298-196.298-196.298c-13.807 0-25-11.193-25-25s11.193-25 25-25c65.788 0 127.64 25.62 174.16 72.14s72.139 108.37 72.139 174.159c0 65.789-25.62 127.64-72.14 174.16z" />
<glyph unicode="&#xe02f;" d="M256.5 465.333c-139.452 0-252.5-113.048-252.5-252.5 0-139.451 113.048-252.499 252.5-252.499 139.451 0 252.5 113.049 252.5 252.499 0 139.453-113.049 252.5-252.5 252.5zM399.173 70.161c-18.538-18.541-40.119-33.092-64.142-43.252-24.858-10.514-51.281-15.844-78.531-15.844-27.251 0-53.672 5.332-78.531 15.844-19.904 8.42-38.125 19.861-54.335 34.079l55.115 55.116-18.981 18.981-55.117-55.116c-14.219 16.211-25.66 34.432-34.080 54.335-10.512 24.858-15.843 51.282-15.843 78.531 0 27.252 5.331 53.672 15.845 78.531 10.162 24.023 24.713 45.605 43.252 64.143s40.12 33.091 64.143 43.252c24.858 10.514 51.279 15.844 78.531 15.844 27.249 0 53.672-5.332 78.531-15.844 19.903-8.42 38.125-19.861 54.335-34.080l-54.748-54.749 18.981-18.981 54.748 54.749c14.219-16.211 25.661-34.431 34.079-54.335 10.514-24.858 15.844-51.279 15.844-78.531 0-27.249-5.332-53.672-15.844-78.531-10.16-24.022-24.713-45.603-43.252-64.142zM286.466 167.513c0 8.401-2.411 15.245-7.235 20.535-4.822 5.289-13.094 10.214-24.811 14.779-23.024 8.4-40.112 17.759-51.26 28.080-11.149 10.317-16.724 24.863-16.724 43.636 0 17.423 5.573 31.708 16.724 42.858 11.148 11.148 26.159 17.707 45.036 19.679l-0.001 33.446h24.735v-33.756c18.252-2.699 32.591-10.321 43.014-22.868 10.423-12.549 15.529-28.833 15.324-48.848l-0.467-0.779h-44.336c0 12.236-2.517 21.675-7.545 28.313-5.032 6.635-11.901 9.955-20.611 9.955-8.921 0-15.556-2.567-19.913-7.7-4.356-5.134-6.534-11.956-6.534-20.457 0-8.089 2.308-14.65 6.923-19.679 4.613-5.032 13.093-9.983 25.435-14.857 22.919-9.022 39.901-18.668 50.947-28.936 11.046-10.267 16.568-24.632 16.568-43.091 0-18.046-5.55-32.462-16.645-43.248-11.099-10.788-26.188-17.163-45.269-19.134v-30.803h-24.735v30.647c-19.395 1.971-35.418 8.84-48.070 20.611-12.654 11.771-18.772 29.063-18.357 51.881l0.311 0.779h44.336c0-13.899 3.189-23.855 9.567-29.868 6.379-6.016 14.493-9.022 24.346-9.022 9.435 0 16.668 2.514 21.7 7.545 5.029 5.031 7.546 11.798 7.546 20.303z" />
<glyph unicode="&#xe030;" d="M89 406.040h239.060v-29.348h-239.060zM369.753 335.081h6.936v-6.935h-6.936zM383.623 335.081h6.936v-6.935h-6.936zM369.753 411.369h6.936v-69.353h-6.936zM348.947 411.369h13.87v-69.353h-13.87zM432.171 411.369h6.936v-69.353h-6.936zM397.493 411.369h3.469v-69.353h-3.469zM418.3 411.369h3.469v-69.353h-3.469zM348.947 335.081h6.936v-6.935h-6.936zM452.976 335.081h6.936v-6.935h-6.936zM442.572 411.369h3.469v-69.353h-3.469zM432.171 335.081h13.871v-6.935h-13.871zM452.976 411.369h6.936v-69.353h-6.936zM418.3 335.081h6.937v-6.935h-6.937zM397.493 335.081h13.871v-6.935h-13.871zM404.43 411.369h6.935v-69.353h-6.935zM383.623 411.369h6.936v-69.353h-6.936zM456.24 445.433h-355.608c-24.059 0-43.632-18.352-43.632-40.911v-119.983l-37.972-56.289c-9.961-14.765-5.015-35.517 11.044-46.351l307.48-207.424c16.060-10.835 37.156-7.649 47.115 7.115l74.26 110.082c9.962 14.764 5.017 35.517-11.043 46.352l-145.729 98.309h154.086c24.060 0 43.632 18.352 43.632 40.91v127.279c0 22.559-19.572 40.911-43.632 40.911zM479.872 277.243c0-11.53-10.603-20.909-23.632-20.909h-183.732l-132.104 89.116c-16.061 10.834-37.156 7.647-47.115-7.116l-16.288-24.147v90.335c0 11.53 10.601 20.909 23.632 20.909h355.608c13.029 0 23.632-9.38 23.632-20.909v-127.279z" />
<glyph unicode="&#xe031;" d="M433.036 273.252c-6.171 0-10.351-0.597-12.538-1.195v-39.595c2.587-0.596 5.772-0.797 10.149-0.797 16.12 0 26.070 8.156 26.070 21.887 0.002 12.337-8.555 19.7-23.68 19.7zM512.080 319.442l-150.032 149.92-212.124-0.057-149.953-150.002 0.057-212.077 150.035-149.92 212.124 0.058 149.955 150-0.061 212.078zM69.844 159.042c-15.325 0-30.451 3.979-38.013 8.158l6.169 25.070c8.16-4.177 20.698-8.356 33.635-8.356 13.933 0 21.293 5.772 21.293 14.524 0 8.356-6.368 13.132-22.488 18.901-22.291 7.76-36.817 20.096-36.817 39.596 0 22.881 19.105 40.391 50.748 40.391 15.124 0 26.269-3.183 34.23-6.763l-6.767-24.475c-5.373 2.587-14.924 6.367-28.061 6.367s-19.504-5.969-19.504-12.933c0-8.555 7.564-12.336 24.877-18.903 23.683-8.755 34.828-21.091 34.828-39.995 0.001-22.48-17.314-41.583-54.132-41.583zM237.411 269.67h-36.62v-108.639h-30.451v108.639h-36.022v25.468h103.091v-25.468zM304.675 158.842c-39.805 0-63.088 30.046-63.088 68.248 0 40.193 25.673 70.237 65.278 70.237 41.195 0 63.685-30.84 63.685-67.85 0-43.972-26.668-70.635-65.875-70.635zM474.433 222.514c-10.351-9.75-25.675-14.128-43.587-14.128-3.979 0-7.563 0.2-10.349 0.598v-47.952h-30.053l0.001 132.317c9.354 1.592 22.488 2.786 40.997 2.786 18.707 0 32.041-3.582 40.996-10.744 8.558-6.766 14.331-17.909 14.331-31.040s-4.377-24.276-12.337-31.837zM306.067 273.252c-20.498 0-32.438-19.5-32.438-45.565 0-26.265 12.339-44.768 32.639-44.768 20.5 0 32.241 19.5 32.241 45.564-0.001 24.076-11.545 44.769-32.442 44.769z" />
<glyph unicode="&#xe032;" d="M349 134.333c18.617 0.975-39.404 144-78.449 142.158l-185.132-18.452c0 0-18.237 57.248-19.834 74.532 108.677 35.095-3.382 111.993-3.382 111.993-19.709 13.153-55.029 25.175-59.278 0-6.58-38.981-2.925-110.147-2.925-110.147l-1-378.913 343.776-0.173c-0.008 0 104.3-1.827 149.483-0.172h20.74v179.172z" />
<glyph unicode="&#xe033;" d="M211.044 356.077c30.352 0 59.922 0 89.261 0 0 16.685 0 32.648 0 48.803-30.047 0-59.411 0-89.26 0 0-16.453 0-32.445 0-48.803zM64 355.781c0 0 98.895 0 121.546 0 0 16.553 0.041 32.13-0.015 47.708-0.043 12.345 6.464 20.265 17.020 25.463 2.681 1.319 5.496 2.369 8.25 3.544 30.131 0 60.263 0 90.395 0 20.002-5.965 27.411-19.526 25.521-39.925-1.119-12.074-0.204-24.335-0.204-37.305 23.269 0 45.452 0 68.427 0l24.377 0.28c14.003 0 27.043 0.477 40.039-0.101 25.676-1.141 47.415-22.636 47.531-48.121 0.36-80.564 0.192-161.131 0.025-241.694-0.023-11.489-4.56-21.608-11.873-30.515-8.63-10.509-20.651-14.536-33.141-17.762-13.947 0-27.899 0-41.851 0h-328.099c-13.95 0-27.9 0-41.849 0-8.065 3.264-16.55 5.772-24.099 9.968-11.675 6.488-16.3 18.559-21.099 30.207 0 85.932 0 257.792 0 257.792s-4.902 40.462 59.098 40.462z" />
<glyph unicode="&#xe034;" d="M535.143 455.905c-8.952 8.953-19.715 13.428-32.286 13.428h-457.143c-12.572 0-23.332-4.475-32.285-13.428-8.952-8.952-13.428-19.714-13.428-32.286v-310.857c0-12.572 4.476-23.332 13.428-32.286 8.953-8.952 19.715-13.428 32.285-13.428h155.429c0-7.238-1.524-14.666-4.571-22.286s-6.095-14.286-9.143-20c-3.047-5.714-4.571-9.904-4.571-12.572 0-4.952 1.81-9.238 5.428-12.857 3.619-3.618 7.905-5.428 12.857-5.428h146.286c4.953 0 9.239 1.81 12.857 5.428 3.62 3.62 5.428 7.905 5.428 12.857 0 2.476-1.524 6.62-4.572 12.428-3.047 5.81-6.095 12.572-9.143 20.286s-4.572 15.096-4.572 22.143h155.428c12.572 0 23.333 4.476 32.285 13.428s13.428 19.714 13.428 32.286v310.857c0 12.572-4.476 23.334-13.428 32.286zM512 117.333c0-2.476-0.904-4.618-2.714-6.428-1.809-1.809-3.952-2.714-6.428-2.714h-457.143c-2.475 0-4.618 0.905-6.428 2.714-1.809 1.81-2.715 3.953-2.715 6.428v306.286c0 2.477 0.905 4.62 2.715 6.429 1.81 1.81 3.953 2.714 6.428 2.714h457.143c2.476 0 4.62-0.904 6.428-2.714 1.81-1.809 2.714-3.952 2.714-6.429v-306.286zM390.675 360.852l-248.188-164.073-24.069 36.889-49.275-98.621 109.488 6.336-24.069 36.888 248.187 164.075 24.068-36.889 49.276 98.62-109.489-6.335z" horiz-adv-x="549" />
<glyph unicode="&#xe035;" d="M512 328.083l-45.252 45.25-89.373-89.376-50.75 50.751 89.375 89.375-45.25 45.25-89.375-89.375-57.374 57.375-43.313-43.312 256.001-256.001 43.312 43.312-57.376 57.376zM137.374 94.706c82.883-82.881 192.597-18.18 259.645 37.733l-221.911 221.912c-55.913-67.048-120.615-176.761-37.735-259.644zM95.999 117.331l63.996-63.998-95.996-95.995-63.998 63.996z" />
<glyph unicode="&#xe036;" d="M264.284 329.609c90.219 0 90.219 139.828 0 139.828s-90.219-139.828 0-139.828zM131.457 261.765v-129.351h50.847v74.418c6.233-2.635 22.9-4.92 29.934-6.82v-244.775h106.315v246.62c4.724 1.483 19.252 3.147 23.581 4.975v-74.419h50.846l0.001 129.351c0 0-24.884 61.081-130.762 61.081-101.618 0-130.761-61.081-130.761-61.081z" />
<glyph unicode="&#xe037;" d="M420.465 244.026c-0.913 26.117-3.101 52.189-4.64 78.285-1.408 23.892-11.413 41.532-33.255 53.504-32.341 17.726-63.601 37.423-95.449 56.060-23.908 13.988-48.72 13.005-67.805-2.236-18.715-14.947-25.93-39.988-18.333-65.454 7.285-24.415 14.418-48.906 22.84-72.937 4.46-12.732 0.954-18.62-11.607-21.093-5.231-1.029-10.254-3.131-15.355-4.795-18.479-6.023-37.321-11.141-55.315-18.371-16.995-6.829-25.147-25.556-20.091-41.237 4.674-14.496 23.112-26.075 38.917-21.216 42.268 12.999 84.316 26.849 125.896 41.901 16.38 5.931 21.798 20.221 17.892 37.989-2.875 13.077-6.983 25.877-10.096 38.909-0.837 3.509-0.036 7.413 0.012 11.134 3.12-0.828 6.599-1.031 9.3-2.585 14.531-8.365 29.387-16.343 43.019-26.025 5.193-3.689 9.26-11.163 10.625-17.597 3.056-14.372 4.063-29.176 5.952-43.796 2.017-15.646 9.324-26.971 23.803-34.851 26.507-14.42 52.543-29.777 78.147-45.75 13.716-8.553 26.072-9.349 38.966 0.42 0 10.747 0 21.496 0 32.243-22.053 12.784-43.907 25.942-66.248 38.207-12.005 6.589-16.709 15.872-17.178 29.291zM476.685-11.555c-4.668-3.4-14.271-2.92-20.42-0.755-9.975 3.517-19.089 9.632-28.324 15.060-132.32 77.774-264.665 155.499-396.752 233.661-11.071 6.552-19.312 7.679-27.093-3.452 0-2.688 0-5.376 0-8.063 6.599-3.196 13.453-5.957 19.759-9.656 136.988-80.363 273.892-160.873 410.873-241.254 30.322-17.796 43.653-15.888 69.163 9.075 0 1.341 0 2.685 0 4.029-8.76 6.139-16.728 8.99-27.208 1.354zM463.796 267.514c25.040 0 45.341 20.070 45.341 44.827s-20.3 44.829-45.341 44.829c-25.043 0-45.344-20.070-45.344-44.829 0-24.756 20.3-44.827 45.344-44.827z" />
<glyph unicode="&#xe038;" d="M291.369 231.826c0 0 0 0 0 0 0-14.333 11.619-25.952 25.952-25.952s25.952 11.619 25.952 25.952c0 0 0 0 0 0s0 0 0 0c0 14.333-11.619 25.952-25.952 25.952s-25.952-11.619-25.952-25.952 0 0 0 0zM399.877-8.445c1.284 3.188 1.325 6.925-0.372 10.563-1.642 3.526-3.979 6.738-6.132 10.003-17.767 26.954-35.459 53.959-53.454 80.757-2.979 4.439-3.592 8.315-2.224 13.426 5.86 21.848 11.351 43.792 16.936 65.709 2.616 10.263-0.563 15.209-11.043 17.152-28.322 5.25-56.653 10.452-87.319 16.108l-12.56 2.603c-1.53-1.021-3.046-2.064-4.5-3.187-4.21-3.245-6.877-7.887-4.492-12.637 1.797-3.575 5.807-7.543 9.484-8.368 17.168-3.847 34.563-6.651 51.87-9.864 1.74-0.325 3.44-0.896 5.668-1.487-5.176-20.979-9.086-41.914-15.617-61.979-2.603-7.99-4.263-15.94-5.169-23.888l-125.449 215.719-114.983 122.548c0 0-35.365-81.564-36.179-110.465-3.59-127.524 58.486-307.51 58.486-307.51l226.923-11.58c1.543-4.649 4.699-7.683 8.903-8.767-1.735-0.008-3.474-0.014-5.221-0.014-124.459 0-225.353-6.825-225.353-12.171 0-5.343 100.892 0 225.353 0 124.459 0 214.514 23.791 214.514 29.135-0.001 3.648-41.92-5.575-108.073-11.805zM12.219 311.729l78.013 21.245 2.078-8.501-78.013-21.247-2.078 8.503zM32.841 167.244l-3.412 8.007 125.575 59.625 3.411-8.008-125.575-59.624zM64.21 65.101l151.954 72.147 3.411-8.008-151.956-72.149-3.41 8.009zM187.933 9.146l-2.907 8.313 74.677 42.82 2.906-8.313-74.675-42.82zM306.385-13.519c5.688 1.541 9.823 6.617 9.252 13.060-1.158 13.118-3.033 26.171-4.719 39.239-1.507 11.695-3.603 23.332-4.537 35.071-0.397 5.001 1.5 10.19 2.637 16.995 2.463-3.521 3.925-5.495 5.269-7.545 19.986-30.469 39.981-60.927 59.906-91.435 0.534-0.818 1.084-1.599 1.652-2.339-21.337-1.587-44.648-2.74-69.462-3.046z" />
<glyph unicode="&#xe039;" d="M368.393 322.694c-62.16 41.001-121.601 80.208-182.039 120.074-3.888-5.516-7.442-10.748-11.197-15.834-4.794-6.493-10.749-10.299-18.431-4.936-7.315 5.105-7.325 11.87-2.518 18.899 6.179 9.035 12.419 18.033 18.982 27.552 3.357-1.837 6.052-3.072 8.499-4.683 69.206-45.572 138.389-91.184 207.565-136.799 2.538-1.673 5.058-3.388 7.474-5.231 6.997-5.332 11.425-12.959 7.464-20.757-2.984-5.877-9.647-12.397-15.755-13.75-28.515-6.32-57.406-10.926-86.151-16.207-2.895-0.533-5.714-1.469-9.416-2.44 8.596-34.466 15.091-68.859 25.937-101.82 12.565-38.164 12.159-75.75 5.039-114.373-3.853-20.892-5.8-42.139-8.665-63.212-0.459-3.384-0.997-6.788-1.899-10.072-3.276-11.905-12.646-18.007-24.986-16.476-11.019 1.365-19.546 10.363-18.497 22.088 1.923 21.548 5.040 42.995 7.837 64.462 2.504 19.212 5.981 38.332 7.533 57.613 0.661 8.217-2.488 16.745-4.377 27.923-4.091-5.785-6.517-9.027-8.748-12.396-33.196-50.051-66.407-100.092-99.499-150.212-5.535-8.383-11.893-14.653-22.93-14.091-15.98 0.819-25.95 16.426-19.117 30.927 2.731 5.795 6.611 11.070 10.188 16.437 29.507 44.28 58.892 88.644 88.779 132.668 4.952 7.293 5.965 13.661 3.69 22.058-9.726 35.889-18.851 71.939-28.125 107.948-4.343 16.859 0.939 24.986 18.339 28.177 47.036 8.627 94.089 17.177 145.025 26.464zM212.177 382.794c20.963 0.169 38.1-16.508 38.162-37.138 0.063-20.478-17.388-37.723-37.995-37.545-20.193 0.173-37.137 16.734-37.667 36.815-0.535 20.297 16.702 37.703 37.501 37.868z" />
<glyph unicode="&#xe03a;" d="M110.525 192.37c26.176 0 47.393 20.764 47.393 46.375 0 25.614-21.217 46.38-47.393 46.38-26.172 0-47.391-20.767-47.391-46.38 0-25.612 21.22-46.375 47.391-46.375zM212.861 251.897h189.437c27.791 0 44.163-17.504 44.163-40.94v-67.103h-233.6v108.043zM161.297 227.888v-40.246l-72.835-0.001c-35.163-0.123-35.219-44.355 0-44.355h95.485c13.943 0 22.674 11.012 22.674 23.469v61.131c0.001 33.487-45.325 33.487-45.325 0.001zM54.086 290.564c0 36.52-51.777 36.52-51.777 0v-292.851h52.925v75.629h402.7v-75.060h51.774v226.19c0 38.54-52.349 38.54-52.349 0v-90.283h-403.273v156.375z" />
<glyph unicode="&#xe03b;" d="M157.667 86.139c0-33.171-25.343-60.061-56.604-60.061s-56.604 26.89-56.604 60.061c0 33.171 25.343 60.061 56.604 60.061s56.604-26.89 56.604-60.061zM462.667 86.139c0-33.171-25.343-60.061-56.604-60.061s-56.604 26.89-56.604 60.061c0 33.171 25.343 60.061 56.604 60.061s56.604-26.89 56.604-60.061zM408.327 233.519c-5.672 2.294-21.446 16.912-26.387 22.013-20.773 21.445-40.783 45.065-61.976 65.243-20.076 19.114-42.636 26.744-65.571 29.955-29.968 4.196-59.824 3.692-89.369-7.476-0.326-0.13-0.663-0.278-0.993-0.413-0.591 0.387-1.255 0.493-1.921 0.24-1.5-0.57-3.464-0.325-6.663 5.784-12.194 23.285-24.656 46.861-36.707 69.659l-2.064 3.904c-1.2 2.271-3.276 2.487-4.637 0.481-1.36-2.008-1.489-5.475-0.288-7.747l2.063-3.903c12.046-22.789 24.503-46.354 36.687-69.621 0.486-0.93 1.292-2.46 2.378-4.036-29.050-15.231-62.881-37.646-87.058-72.389-17.496-25.143-25.157-60.397-32.763-71.379-5.255-7.588-29.953-38.93-29.953-38.93-1.768-15.783-4.631-31.794 0.949-48.039 1.405-4.088 0.862-10.043 1.269-15.944 6.206-6.334 12.957-10.864 20.303-13.401-0.321 3.15-0.503 6.348-0.503 9.593 0 46.576 33.998 84.334 75.937 84.334s75.94-37.76 75.94-84.337c0-7.543-0.904-14.847-2.577-21.805 69.622 0 90.005 0 157.281 0-1.673 6.958-2.577 14.262-2.577 21.805 0 46.576 33.998 84.334 75.937 84.334s75.936-37.757 75.936-84.334c0-6.115-0.601-12.073-1.714-17.818 7.757 1.365 15.319 5.208 22.932 8.258 1.491 0.594 3.373 3.069 3.852 5.385 3.827 18.498 6.805 37.258 4.112 52.88-10.932 9.25-15.609 27.872-21.601 41.613-9.405 21.59-19.293 34.241-36.937 41.503s-43.317 14.588-43.317 14.588zM190.009 329.954v-81.221c-27.554 0-55.142 0-82.831 0 7.402 30.666 20.868 47.204 36.841 59.26 15.062 11.369 30.448 18.913 46.072 23.327-0.047-0.445-0.082-0.899-0.082-1.366zM348.352 248.732c-49.652 0-99.326 0-149.144 0v81.221c0 1.255-0.198 2.423-0.517 3.47 19.799 4.148 39.951 3.528 60.283-0.512 25.585-5.086 50.356-15.925 71.677-42.385 8.591-10.663 15.751-22.706 18.358-40.696l-0.657-1.098z" />
<glyph unicode="&#xe03c;" d="M474.352 104.499c0 59.666-23.236 115.76-65.427 157.95-38.635 38.635-88.933 61.36-142.951 64.918v11.132h39.935v50l-107.799 0.001v-50h37.864v-11.132c-54.019-3.558-104.315-26.284-142.948-64.918-42.188-42.19-65.424-98.284-65.424-157.95v-25h446.748l0.001 24.999zM79.4 129.499c12.156 83.795 84.468 148.375 171.575 148.375 87.109 0 159.422-64.58 171.581-148.375h-343.156zM0.943 61.309h510.401v-50h-510.401z" />
<glyph unicode="&#xe600;" d="M86.178 286.732c-4.119-14.574-8.237-29.465-12.674-44.039-2.852-10.456-5.703-20.911-8.871-31.366-1.901-6.337-6.654-9.822-13.307-9.188-6.971 0.95-10.773 5.703-10.773 12.673 0 12.040 5.703 22.812 8.554 34.218 4.752 18.693 10.456 37.070 15.841 55.762 4.436 14.891 17.742 25.663 33.584 25.98 13.307 0.317 26.297 0.317 39.604 0 15.841-0.317 29.782-10.773 34.218-26.297 7.287-25.346 14.575-50.693 21.862-76.040 1.268-4.435 2.535-8.554 2.218-13.307-0.317-6.971-3.168-12.039-10.456-13.307s-12.040 2.851-13.941 9.505c-6.020 20.594-11.723 41.505-17.425 62.416-1.268 4.435-1.901 9.188-5.703 14.257-1.268-7.604 1.268-13.307 2.851-18.693 9.505-34.852 19.010-69.703 28.832-104.555 2.851-9.822 2.535-10.455-7.921-10.455-5.070 0-10.138-0.317-15.208 0-6.654 0.634-8.554-2.218-8.554-8.872 0.317-30.099 0.317-59.881 0-89.98 0-10.455-4.435-15.841-12.99-16.159-8.871-0.634-14.575 5.070-14.575 15.208 0 29.466 0 58.93-0.317 88.396 0 3.485 2.218 10.139-2.534 10.139-5.703 0-2.852-6.654-2.852-10.455-0.317-29.466 0-58.93-0.317-88.396 0-11.723-10.138-18.376-19.96-13.624-6.337 3.168-7.921 8.872-7.921 15.525 0 29.149-0.317 58.297 0.317 87.445 0 8.555-2.218 11.723-10.773 10.772-5.070-0.634-10.138 0-15.208 0-6.971-0.317-8.237 2.534-6.337 8.555 6.654 22.812 12.674 45.94 19.010 68.752 4.752 18.060 9.822 36.119 14.575 53.862-0.951 0.633-1.901 0.95-2.852 1.267zM380.198 283.248c-3.168-3.168-1.901-6.97-1.901-10.138 0-69.386 0-139.089 0-208.475 0-3.485 0-6.654-0.317-10.139-0.634-8.238-7.287-14.257-15.525-14.575-8.555-0.317-15.525 4.752-17.109 12.99-0.95 5.070-1.267 10.455-1.267 15.841 0 36.435 0 72.872 0 109.307 0 3.168 0.634 6.654-1.267 9.822-2.534-3.168-1.584-6.337-1.584-9.188 0-39.921 0-79.525 0-119.445 0-10.772-4.435-17.109-12.673-19.010-9.505-2.218-18.376 3.168-20.277 12.673-0.95 4.435-0.95 8.872-0.95 13.307 0 68.752 0 137.188 0 205.94 0 3.168 0.634 6.337-1.267 9.822-2.534-3.168-1.267-6.337-1.584-9.188 0-22.178 0-44.356 0-66.534 0-11.723-4.119-16.792-12.673-17.109-8.872 0-13.307 5.070-13.307 16.475 0 28.198 0 56.713 0 84.911 0 24.713 17.425 41.188 39.921 39.604 15.841-1.268 32-0.951 47.841 0 26.297 1.584 41.188-13.94 42.139-39.287 0.95-28.832 0.317-57.663 0-86.495 0-10.139-4.435-14.575-12.356-14.891-8.555-0.317-13.307 4.119-13.307 13.624 0 23.446 0 47.208 0 70.654-0.95 3.168 0.317 6.337-2.534 9.505zM249.663 217.98c0-54.812 0-109.94 0-164.752 0-11.723 0-11.723-11.723-11.723-22.178 0-22.178 0-22.178 22.178 0 105.822 0 211.961 0 317.782 0 12.040 0 12.356 12.040 12.356 25.030-0.317 21.862 2.852 21.862-21.861 0.317-51.327 0-102.654 0-153.98zM119.129 396.039c16.159 0 28.515-12.356 28.198-28.832 0-16.159-12.673-29.148-28.515-29.148-15.525 0-28.515 12.99-28.831 28.832 0 16.792 12.356 29.465 29.148 29.149zM314.614 368.159c0 17.109 11.406 28.198 28.515 28.198 16.475 0 28.198-12.356 27.881-29.148 0-16.159-12.673-29.149-28.515-28.832-16.159-0.317-27.881 12.357-27.881 29.782z" horiz-adv-x="450" />
<glyph unicode="&#xe601;" d="M33.307 434.913c33.916 0 67.63 0 101.547 0 6.499-4.671 9.139-10.764 9.139-18.888-0.203-118.404 0-236.604-0.203-355.009 0-15.232-5.889-20.918-20.715-20.918-26.808 0-53.413 0-80.222 0-15.841 0-19.903 3.859-19.903 19.7 0 118.404 0 236.604-0.203 355.009 0.203 8.936 2.437 15.841 10.561 20.106zM421.014 434.913c33.916 0 67.63 0 101.547 0 6.499-4.671 9.139-10.561 9.139-18.888-0.203-118.404-0.203-236.604-0.203-355.009 0-15.638-5.687-20.918-21.731-21.122-26.402 0-52.805 0-79.207 0-15.841 0-19.903 4.062-19.903 19.7 0 118.404 0 236.605-0.203 355.009 0.406 9.139 2.64 16.044 10.561 20.31zM157.195 285.842c0 34.12 0 68.24 0 102.563 0 16.248 5.889 21.934 22.137 21.934 65.6 0 131.198 0 196.798 0 15.841 0 21.528-5.686 21.528-21.325 0-68.24 0-136.683 0-204.922 0-16.044-6.093-21.934-22.137-21.934-65.599 0-131.198 0-196.798 0-15.841 0-21.325 5.483-21.528 21.325-0.203 33.916 0 68.036 0 102.36zM278.848 148.957c34.12 0 68.24 0 102.359 0 14.623 0 19.497-4.671 19.497-19.294 0-30.058 0-60.116 0-90.173 0-14.826-6.093-20.918-20.918-20.918-68.24 0-136.683 0-204.922 0-12.998 0-17.873 4.671-17.873 17.669-0.203 31.48-0.203 62.959 0 94.236 0 13.81 5.077 18.685 19.294 18.685 34.323-0.203 68.442-0.203 102.563-0.203z" horiz-adv-x="564" />
<glyph unicode="&#xe602;" d="M23.152 436.335c3.859 1.016 7.718 2.844 11.373 2.844 33.51 0.203 67.021 0.203 100.329 0 11.982 0 12.592-1.828 8.53-13.201-2.64-7.108-4.062-15.029-4.468-22.544-0.609-15.435-0.203-30.87-0.203-47.727-12.998 0-24.575 0-36.354 0-20.309-0.203-28.84-8.733-28.84-29.043 0-51.992 0-104.187 0-156.179 0-12.185-1.421-24.372 0.203-36.151 3.249-23.762 20.309-37.572 44.072-37.572 9.139 0 18.075 0 28.636 0 0-17.466 0.203-34.729-0.406-51.789 0-2.234-4.875-5.889-7.514-6.093-35.745-0.406-71.692-0.406-107.436-0.203-2.64 0-5.28 2.234-7.921 3.452 0 131.605 0 262.803 0 394.205zM416.952 96.964c10.154 0 19.294 0.61 28.23-0.203 36.354-2.844 53.82 22.137 53.007 53.617-1.015 49.961-1.015 100.125-1.421 150.087 0 9.546 0 18.887 0 28.433-0.203 17.466-9.139 26.606-27.012 26.808-13.201 0.203-26.402 0.203-39.603 0.203-0.61 0-1.219 0.406-3.656 1.219 0 7.311 0.203 15.232 0 23.152-0.406 17.669 2.64 35.947-8.327 52.195-0.61 1.016 1.015 5.078 2.64 5.889 2.234 1.219 5.281 0.813 7.921 0.813 32.901 0 65.6-0.203 98.5 0.203 9.342 0.203 11.982-3.046 11.982-12.389-0.203-125.512-0.203-251.024 0-376.333 0-9.139-2.437-12.389-11.982-12.185-32.698 0.61-65.6 0.406-98.5 0-9.342-0.203-12.592 2.64-12.185 12.185 1.015 14.826 0.406 29.651 0.406 46.305zM313.78 411.354c25.387 0 49.352 0.203 73.317-0.203 2.437 0 6.905-3.859 6.905-6.093 0.406-47.93 0.203-95.861 0.203-144.4-74.738 0-148.462 0-222.794 0 0 49.961 0 100.125 0 150.696 26.606 0 51.789 0 78.191 0 0.203-3.859 0.609-7.718 0.609-11.779 0-35.745 0.203-71.692 0-107.437 0-12.185 3.655-22.543 14.826-27.824 12.185-5.483 25.183-5.687 36.963 1.219 8.53 5.077 11.17 13.81 10.967 23.559-0.203 35.744 0 71.692 0 107.436 0 4.875 0.406 9.546 0.813 14.826zM409.235 96.964c0-25.387 0.203-49.352-0.406-73.317 0-2.437-4.468-5.281-7.312-7.108-1.421-1.015-3.859-0.203-5.889-0.203-76.161 0-152.321 0-228.481 0-14.013 0-14.013 0-14.013 14.014 0 21.731 0 43.259 0 66.411 18.279 0 36.15 0.203 53.82-0.203 2.031 0 4.468-2.844 6.093-4.671 39.4-44.68 99.516-44.478 138.916 0.406 1.828 2.031 4.671 4.468 7.108 4.468 16.045 0.406 32.292 0.203 50.164 0.203zM281.692 227.351c32.901 3.859 62.756-30.464 61.74-69.255-0.813-30.058-19.294-56.46-44.274-64.584-25.183-8.124-53.007 3.25-67.021 27.012-16.857 28.839-12.795 66.005 9.749 90.377 10.967 11.983 24.371 18.279 39.806 16.451zM373.49 129.663c8.53 34.932 3.859 67.021-17.466 97.892 14.419 0 26.808-0.203 39.197 0 5.077 0 10.154 0.406 15.029 1.422 13.608 3.047 20.716 12.185 20.918 25.996 0.203 21.731 0 43.259 0.203 64.99 0 0.609 0.203 1.219 0.813 3.656 9.139 0 18.887 0.406 28.433-0.406 1.828-0.203 4.265-5.889 4.265-9.139 0.406-34.526 0.203-69.052 0.203-103.578 0-21.325 0.61-42.649 0.61-63.974 0-14.014-3.656-17.669-17.263-17.669-21.731 0-43.259 0-64.99 0-2.844 0.406-5.889 0.61-9.952 0.813zM193.548 129.257c-26.606 0-52.195-0.203-77.988 0-8.327 0-10.561 6.905-10.764 13.404-0.203 9.342 1.016 18.887 1.016 28.23 0.203 46.712 0 93.423 0 139.932 0 3.656 0 7.312 0 11.983 10.358 0 19.903 0 30.667 0 0-20.31 1.016-40.619-0.203-60.725-1.625-26.199 14.216-36.354 34.729-34.932 13.201 1.016 26.402 0.203 41.635 0.203-21.731-30.058-28.839-62.147-19.091-98.095z" horiz-adv-x="564" />
<glyph unicode="&#xe603;" d="M363.52 418.56c29.44 0 58.88 0 88.32 0 4.992-4.224 7.68-9.344 7.68-16 0-101.76 0-203.392 0-305.152 0-13.312-4.864-17.92-18.304-17.92-22.656 0-45.184 0-67.84 0-13.952 0-17.28 3.328-17.28 17.28-0.128 99.84-0.128 199.552-0.256 299.392-0.128 8.576 1.024 16.256 7.68 22.4zM30.72 418.56c29.44 0 58.88 0 88.32 0 5.504-5.504 6.912-12.032 6.912-19.712-0.128-99.2-0.128-198.272-0.128-297.472 0-2.56 0-5.12-0.256-7.68-0.64-9.472-5.12-14.208-14.464-14.336-25.216-0.256-50.304-0.128-75.52 0-8.704 0-12.288 3.84-12.672 12.544-0.128 4.096-0.256 8.064-0.256 12.16 0 39.040 0.256 78.080 0.256 116.992 0 59.52-0.128 118.912-0.256 178.432-0.128 7.808 1.408 14.464 8.064 19.072zM137.6 290.56c0 29.056 0 57.984 0 87.040 0 15.232 4.48 19.84 19.84 19.84 55.68 0 111.36 0 166.912 0 15.744 0 20.096-4.352 20.096-20.224 0-57.6 0-115.2 0-172.672 0-2.56 0-5.12-0.384-7.68-0.896-7.296-5.12-11.52-12.288-12.544-3.2-0.384-6.4-0.512-9.6-0.512-54.4 0-108.8 0-163.072 0-2.304 0-4.736 0-7.040 0.256-9.984 1.024-13.952 5.12-14.464 15.232-0.256 5.504-0.128 11.136-0.128 16.64 0.128 24.704 0.128 49.664 0.128 74.624zM151.168 249.6c9.6 0 17.92-0.256 26.24 0.128 2.432 0.128 5.504 2.048 6.784 3.968 5.248 7.808 9.856 15.872 15.232 24.832 5.376-8.832 10.24-17.024 15.232-25.088 0.896-1.536 2.432-3.712 3.712-3.712 9.472-0.384 18.816-0.128 29.312-0.128-10.496 16.256-20.224 31.488-30.080 46.72 9.088 14.464 18.048 28.8 27.52 44.032-8.96 0-16.64-0.256-24.192 0.128-4.224 0.256-6.528-1.024-8.448-4.864-3.712-7.552-7.936-14.848-12.544-23.040-4.864 8.448-8.96 16.128-13.44 23.552-1.024 1.792-3.072 3.968-4.864 4.096-8.832 0.384-17.664 0.128-27.776 0.128 8.832-13.696 16.768-26.496 25.216-39.040 2.176-3.328 2.176-5.632 0-8.96-9.216-13.696-18.048-27.648-27.904-42.752zM256.512 340.224c0-30.208 0-60.16 0-89.984 23.552 0 46.592 0 69.504 0 0 7.296 0 13.952 0 21.376-14.080 0-27.904 0-42.496 0 0 23.296 0 45.952 0 68.736-9.472-0.128-18.048-0.128-27.008-0.128zM242.176 172.8c29.184 0 58.368 0 87.552 0 13.44 0 17.28-3.712 17.28-17.024 0-25.6 0-51.2 0-76.672 0-14.080-4.736-18.816-18.816-18.944-58.24 0-116.352 0-174.592 0-12.416 0-16.128 3.712-16.128 16 0 26.624 0 53.248 0 79.872 0 12.672 4.096 16.64 17.024 16.64 29.312 0.128 58.496 0.128 87.68 0.128z" />
<glyph unicode="&#xe604;" d="M260.48 456.32c118.144 0.896 237.696-94.080 233.6-243.584-3.072-116.736-97.92-229.504-244.608-224.64-133.376 4.352-226.304 116.992-223.872 237.824 2.56 129.536 107.648 230.656 234.88 230.4zM381.312 374.528c-61.696 55.168-181.504 66.944-262.272-16.384-78.336-80.768-65.28-197.888-11.52-257.408 91.264 91.264 182.528 182.528 273.792 273.792zM138.752 69.376c66.176-58.24 188.032-64.384 265.984 20.736 74.112 80.768 60.16 196.48 7.552 252.928-91.008-91.136-182.144-182.272-273.536-273.664zM121.344 130.176c0 3.968 0 6.016 0 8.064 0 59.52 0 118.912 0 178.432 0 12.672 1.152 13.696 13.952 13.696 14.080 0 28.16 0 42.24 0 7.68 0 10.368-2.432 10.496-10.112 0.128-11.264 0-22.656 0-33.92 0-27.904 0-55.808-0.128-83.712 0-2.56-0.384-6.016-2.048-7.68-20.864-21.248-41.984-42.24-64.512-64.768zM196.736 208.128c0 1.024-0.256 3.072-0.256 5.12 0 28.8 0 57.6 0 86.272 0 1.664 0 3.456 0.128 5.12 0.768 9.984 2.816 12.032 13.056 12.16 25.344 0.128 50.688 0 76.032 0 6.784 0 13.568 0 19.712 0-36.352-36.352-72.576-72.576-108.672-108.672zM405.632 320.256c0-3.2 0-5.248 0-7.296 0-62.592 0-125.312 0-187.904 0-12.672-2.176-14.848-14.848-14.848-13.824 0-27.648 0-41.6 0-8.064 0-10.112 2.048-10.112 10.24 0 43.264 0 86.528 0.128 129.792 0 2.304 0.768 5.248 2.304 6.784 20.352 20.608 40.96 41.088 61.44 61.568 0.384 0.384 0.896 0.64 2.688 1.664zM263.68 98.432c-18.944 0-37.888 0-56.96 0-3.84 0-8.192-0.384-9.472 4.48-1.28 4.608-1.536 8.832 2.56 12.928 17.28 16.896 34.048 34.048 51.328 50.944 2.048 1.92 5.504 3.328 8.32 3.328 20.48 0.256 40.96 0.128 61.44 0.128 8.704 0 11.008-2.048 11.136-10.88 0.256-16.384 0.256-32.768 0-49.28-0.128-9.344-2.816-11.52-12.032-11.52-18.816-0.128-37.632-0.128-56.32-0.128zM264.448 178.944c22.016 22.016 43.52 43.52 65.28 65.28 0.128-1.152 0.384-2.688 0.512-4.096 0-16.384 0-32.896 0-49.28 0-8.96-2.048-11.648-11.136-11.776-18.048-0.384-36.224-0.128-54.656-0.128z" />
<glyph unicode="&#xe605;" d="M19.072 247.424c5.76 23.424 8.96 47.872 17.664 70.272 38.144 97.664 138.368 158.72 240.896 148.48 108.288-10.88 193.792-89.472 212.608-195.328 23.552-132.736-70.016-260.224-202.88-276.224-133.888-16.256-250.496 75.136-266.624 208.768-0.384 2.944-1.152 5.76-1.792 8.576 0.128 11.776 0.128 23.68 0.128 35.456zM468.096 229.12c0.128 116.992-94.976 212.224-211.84 212.096-116.48-0.128-211.328-94.976-211.584-211.584-0.256-115.712 94.72-211.072 210.56-211.456 117.376-0.384 212.608 94.080 212.864 210.944zM113.024 97.92c0 12.416-0.768 24.832 0.256 37.12 0.896 11.136 9.472 17.024 19.456 19.84 16.64 4.864 33.664 8.704 50.304 13.696 8.448 2.56 17.024 5.632 24.448 10.112 14.72 8.96 18.176 24.064 9.728 39.168-1.92 3.456-4.48 6.528-6.784 9.6-31.488 41.344-31.744 86.528-14.72 132.736 8.96 24.448 34.176 36.48 64.896 35.072 25.728-1.152 50.304-17.536 57.088-41.472 10.496-36.608 11.776-73.344-6.528-108.416-3.712-7.296-8.576-13.952-13.568-20.48-15.36-20.224-10.88-40.576 12.672-50.176 12.928-5.376 26.88-8.32 40.448-12.416 9.728-2.944 19.584-5.504 29.056-8.96 12.416-4.608 18.688-14.336 18.432-27.52-0.128-9.216-1.152-18.304-1.792-28.16-94.72 0.256-188.672 0.256-283.392 0.256z" />
<glyph unicode="&#xe606;" d="M108.8 108.416c0 3.2 0 6.4 0 9.6 8.448 22.784 25.984 34.56 47.232 43.264 17.024 6.912 33.536 15.616 50.176 23.552 16.512 7.808 17.664 23.68 17.92 38.784 0.128 12.416-11.904 13.696-20.096 17.024-10.88 4.352-13.568 11.392-11.392 22.656 4.352 23.168 9.472 46.336 11.136 69.76 2.432 34.688 14.464 59.392 51.456 64.256 4.736 0 9.472 0 14.208 0 31.104-7.552 44.8-28.544 47.104-60.288 1.536-21.12 5.632-41.984 9.344-62.848 5.76-31.744 4.736-27.648-18.56-39.040-19.456-9.6-21.76-38.4-3.84-50.816 6.4-4.48 13.952-7.168 21.12-10.368 15.36-7.040 31.104-13.312 46.080-21.248 17.152-9.088 28.928-22.912 31.488-43.776-2.432-0.384-3.968-1.024-5.504-1.024-95.872 0.256-191.872 0.384-287.872 0.512zM30.464 243.2c5.504 22.784 8.576 46.592 16.896 68.352 36.224 94.976 131.84 154.368 229.504 144.256 103.168-10.624 184.704-87.040 202.624-189.824 22.528-129.024-66.688-253.056-193.408-268.544-127.488-15.744-238.592 73.088-253.952 203.008-0.384 2.816-1.152 5.504-1.664 8.32 0 11.392 0 22.912 0 34.432zM458.368 225.408c0.128 113.792-90.496 206.336-201.984 206.208-110.976-0.128-201.344-92.416-201.472-205.696-0.256-112.512 90.368-205.312 200.704-205.568 111.872-0.384 202.624 91.52 202.752 205.056z" />
<glyph unicode="&#xe607;" d="M120.087 40.566c0-19.606-15.894-35.5-35.5-35.5s-35.5 15.894-35.5 35.5c0 19.606 15.894 35.5 35.5 35.5s35.5-15.894 35.5-35.5zM120.087 132.711c0-19.606-15.894-35.5-35.5-35.5s-35.5 15.894-35.5 35.5c0 19.606 15.894 35.5 35.5 35.5s35.5-15.894 35.5-35.5zM120.087 224.355c0-19.606-15.894-35.5-35.5-35.5s-35.5 15.894-35.5 35.5c0 19.606 15.894 35.5 35.5 35.5s35.5-15.894 35.5-35.5zM120.087 316c0-19.606-15.894-35.5-35.5-35.5s-35.5 15.894-35.5 35.5c0 19.606 15.894 35.5 35.5 35.5s35.5-15.894 35.5-35.5zM155.587 394.333c0-19.606-15.894-35.5-35.5-35.5s-35.5 15.894-35.5 35.5c0 19.606 15.894 35.5 35.5 35.5s35.5-15.894 35.5-35.5zM236.587 382.083c0-19.606-15.894-35.5-35.5-35.5s-35.5 15.894-35.5 35.5c0 19.606 15.894 35.5 35.5 35.5s35.5-15.894 35.5-35.5zM348.58 382.083c0-19.606-15.894-35.5-35.5-35.5s-35.5 15.894-35.5 35.5c0 19.606 15.894 35.5 35.5 35.5s35.5-15.894 35.5-35.5zM291.24 132.711c0-19.606-15.894-35.5-35.5-35.5s-35.5 15.894-35.5 35.5c0 19.606 15.894 35.5 35.5 35.5s35.5-15.894 35.5-35.5zM291.24 224.355c0-19.606-15.894-35.5-35.5-35.5s-35.5 15.894-35.5 35.5c0 19.606 15.894 35.5 35.5 35.5s35.5-15.894 35.5-35.5zM291.24 316c0-19.606-15.894-35.5-35.5-35.5s-35.5 15.894-35.5 35.5c0 19.606 15.894 35.5 35.5 35.5s35.5-15.894 35.5-35.5zM462.913 40.566c0-19.606-15.894-35.5-35.5-35.5s-35.5 15.894-35.5 35.5c0 19.606 15.894 35.5 35.5 35.5s35.5-15.894 35.5-35.5zM462.913 132.711c0-19.606-15.894-35.5-35.5-35.5s-35.5 15.894-35.5 35.5c0 19.606 15.894 35.5 35.5 35.5s35.5-15.894 35.5-35.5zM462.913 224.355c0-19.606-15.894-35.5-35.5-35.5s-35.5 15.894-35.5 35.5c0 19.606 15.894 35.5 35.5 35.5s35.5-15.894 35.5-35.5zM459.913 316c0-19.606-15.894-35.5-35.5-35.5s-35.5 15.894-35.5 35.5c0 19.606 15.894 35.5 35.5 35.5s35.5-15.894 35.5-35.5zM429.58 394.333c0-19.606-15.894-35.5-35.5-35.5s-35.5 15.894-35.5 35.5c0 19.606 15.894 35.5 35.5 35.5s35.5-15.894 35.5-35.5z" />
<glyph unicode="&#xe608;" d="M485.504 222.848c0-127.232-102.784-229.76-230.016-229.76s-229.888 102.4-230.272 229.76c-0.512 126.976 103.552 230.784 230.656 230.272 127.488-0.512 229.632-102.912 229.632-230.272zM460.672 222.080c0.384 113.664-91.264 205.824-205.056 206.208-112.768 0.384-204.8-91.136-205.696-204.672-1.024-111.744 91.52-205.184 203.776-205.696 113.92-0.512 206.592 90.752 206.976 204.16zM257.28 70.528c-2.176-2.688-3.968-5.376-6.144-7.424-13.184-12.544-25.6-11.392-35.84 3.84-10.112 14.848-14.592 31.744-15.744 49.536-0.512 7.936-0.512 16-0.384 23.936 0.128 7.808-3.328 10.88-11.008 10.624-13.696-0.512-19.328 2.816-21.632 16-1.792 10.624-1.664 22.272 0.384 32.896 4.736 23.808 15.232 45.312 31.616 63.488 9.984 11.008 14.976 11.648 28.672 5.76 21.12-9.088 42.112-8.32 62.976 0.896 13.696 6.016 17.408 4.992 27.264-6.272 20.352-23.296 33.152-49.792 34.432-81.024 0.256-5.632-0.128-11.52-1.408-17.024-2.304-9.344-8.704-14.464-18.432-15.36-13.952-1.152-12.928-1.28-14.080-15.232-1.408-16.64-4.48-33.28-7.68-49.792-1.152-5.76-4.608-11.136-7.808-16.256-11.008-17.28-23.296-18.688-38.4-4.608-2.176 1.664-3.968 3.456-6.784 6.016zM256.128 402.048c33.792 1.024 64.768-28.672 65.408-62.848 0.64-32.512-28.16-61.056-62.592-62.080-35.328-1.024-61.952 24.32-63.104 60.16-1.152 34.816 25.728 63.616 60.288 64.768z" />
<glyph unicode="&#xe609;" d="M281.728 452.224c8.704-1.536 17.408-2.944 26.112-4.736 95.616-20.096 167.424-96.896 180.992-193.408 17.536-125.312-70.144-242.176-194.944-259.712-123.776-17.408-237.312 63.616-259.84 187.008-23.808 130.304 65.408 245.632 184.832 267.136 6.784 1.28 13.696 2.432 20.48 3.584 14.208 0.128 28.288 0.128 42.368 0.128zM260.736 427.264c-112.256-0.128-202.752-90.112-205.312-201.856-2.432-112.512 89.856-208.256 204.416-208.256 114.048 0 204.032 90.752 205.824 201.088 2.048 115.456-90.624 208.512-204.928 209.024zM315.008 234.88c0-13.568 0-24.96 0-36.864-35.072 0-69.632 0-104.96 0 0 11.904 0 23.424 0 35.072-0.64 0.384-1.28 0.896-1.792 1.28-2.432-2.816-4.736-5.76-7.296-8.448-10.624-10.752-21.248-21.632-32-32.128-6.144-6.016-13.824-7.040-20.608-3.712-6.016 2.944-10.368 9.6-9.088 16.128 0.768 3.968 2.944 8.064 5.504 11.136 6.016 6.912 12.8 13.056 19.2 19.584 14.848 14.976 29.696 30.080 44.416 45.056 7.68 7.808 16.64 12.16 27.904 12.032 17.28-0.128 34.56-0.256 51.712 0 11.648 0.256 20.992-3.84 29.056-12.16 20.224-20.736 40.832-41.088 61.312-61.696 4.992-4.992 9.856-10.368 7.936-18.432-3.2-13.568-18.688-18.432-29.056-8.704-11.264 10.624-22.016 21.888-33.024 32.896-2.56 2.816-5.248 5.248-9.216 8.96zM312.576 351.488c-0.128-28.16-22.4-50.176-50.56-50.048-26.88 0.128-49.28 22.912-49.28 50.176 0 27.52 22.912 49.792 50.944 49.664 26.752-0.256 49.024-22.912 48.896-49.792zM210.048 177.408c13.056-13.312 25.728-26.368 38.144-39.168-8.832-8.832-17.92-18.176-27.776-28.16 9.6-9.6 18.688-18.56 27.648-27.648 2.432-2.432 4.864-4.992 6.4-7.808 4.096-7.168 2.176-16.256-3.84-21.504-6.4-5.632-14.976-6.4-21.504-0.512-10.24 9.216-19.712 19.456-29.312 29.312-6.784 7.040-13.312 14.336-20.352 21.248-12.288 12.288-13.568 32.256 0.512 44.8 9.984 8.96 18.944 18.944 28.416 28.416 0.256 0.256 0.64 0.384 1.664 1.024zM303.488 109.184c-9.6 9.472-19.072 18.944-28.288 28.032 13.44 13.696 26.24 26.752 39.68 40.576 3.072-3.072 5.888-5.888 8.704-8.576 7.040-7.040 13.696-14.592 21.376-21.12 15.744-13.568 11.392-33.92 0.768-44.8-11.392-11.52-22.4-23.424-33.792-34.944-5.504-5.632-11.008-11.264-17.152-16.128-7.936-6.4-16-3.2-22.144 2.944-5.632 5.632-6.144 15.104-0.768 21.632 4.48 5.376 9.6 10.24 14.592 15.232 5.632 5.76 11.392 11.392 17.024 17.152z" />
<glyph unicode="&#xe60a;" d="M280.473 450.349c19.497-3.25 39.4-5.687 58.694-10.154 69.458-16.451 124.7-52.399 157.195-118.201 12.998-26.199 20.715-54.023 21.934-84.284-89.361 0-178.113 0-268.287 0 0 70.88 0 141.76 0 212.639 10.154 0 20.31 0 30.464 0zM517.077 157.080c-4.468-18.481-8.936-35.947-13.201-53.617-4.468-18.075-9.342-35.947-13.404-54.023-1.421-5.889-3.452-8.327-9.952-8.327-135.26 0.203-270.521 0-405.782 0.406-3.046 0-7.921 2.844-8.733 5.483-10.764 35.135-20.919 70.474-31.073 106.015-0.406 1.219 0 2.64 0 4.265 160.445-0.203 320.482-0.203 482.145-0.203zM33.714 184.702c0 9.952 0 19.294 0 29.043 163.897 0 327.185 0 491.284 0 0-9.546 0-18.887 0-29.043-163.694 0-327.387 0-491.284 0zM483.161 16.134c0-9.546 0-17.873 0-27.012-136.886 0-273.161 0-410.656 0 0 5.889 0 11.17 0 16.654 0 3.25 0.406 6.499 0.609 10.358 136.886 0 272.958 0 410.047 0z" horiz-adv-x="564" />
<glyph unicode="&#xe60b;" d="M126.731 174.75c0-15.841 0.203-31.683 0-47.321-0.203-21.122-4.874-25.183-26.199-24.981-21.731 0.406-43.259 0.813-64.99 1.015-13.81 0.203-20.512 5.687-20.309 16.857 0.203 10.764 8.733 18.481 21.325 18.075 15.841-0.203 31.683-1.015 47.524-1.625 2.234 0 4.671 0 8.733 0 0 13.404 0 26.199 0 38.994 0.203 11.577-0.406 23.152 1.016 34.526 0.813 6.702 3.249 13.81 7.109 19.497 14.826 22.95 30.261 45.29 45.899 68.646-12.592 3.046-21.122 1.219-27.621-9.546-5.889-9.749-13.608-18.481-20.716-27.621s-18.481-11.577-25.793-5.89c-8.124 6.499-8.53 15.435-1.016 25.793 9.749 13.404 19.7 26.606 29.448 40.010 6.499 9.342 14.623 13.81 26.606 12.998 19.497-1.421 39.197-1.625 58.694-2.437 16.654-0.609 28.433-11.373 30.261-28.23 1.625-14.42 3.047-28.839 4.671-44.68 14.419 5.687 28.433 11.374 42.446 16.654 14.42 5.483 26.199-2.437 23.762-16.451-0.813-4.671-5.281-10.561-9.546-12.592-21.528-9.749-43.462-18.685-65.397-27.418-13.404-5.281-23.356 1.625-24.168 16.451 0 1.828-0.203 3.859-0.609 8.327-5.889-9.139-10.561-16.451-15.029-23.762-4.671-7.312-9.343-14.826-14.216-22.95 15.638-14.623 30.667-29.245 46.508-42.853 6.702-5.889 9.749-12.185 8.124-20.31-5.28-26.402-10.967-53.007-16.857-79.207-2.234-9.748-9.139-14.014-18.887-12.998-8.327 0.813-14.826 7.312-13.607 17.060 2.844 19.7 6.296 39.4 11.374 58.491 2.844 11.373 1.016 18.685-8.124 25.793-12.592 9.952-24.168 21.528-36.15 32.292-1.625-0.203-2.844-0.406-4.265-0.61zM432.59 229.179c-24.575 24.168-49.149 48.54-75.551 74.535 23.356 0 44.072 0.203 64.787-0.203 2.64 0 5.889-1.828 7.921-3.859 32.089-31.683 63.772-63.365 95.657-95.251 0.813-0.813 1.422-2.234 2.64-4.062-16.654-16.45-33.105-32.901-49.555-49.555-15.029-15.029-29.651-30.667-45.29-45.29-4.468-4.062-11.577-6.905-17.669-7.312-18.481-1.015-36.963-0.406-56.866-0.406 25.793 25.387 50.164 49.758 74.738 74.13-0.406 0.813-1.015 1.828-1.421 2.64-49.352 0-98.704 0-148.868 0 0 17.669 0 33.916 0 51.179 49.149 0 98.5 0 147.649 0 0.813 1.422 1.219 2.437 1.828 3.452zM223.404 327.679c-19.091 0-34.526 15.638-34.932 34.729-0.203 19.091 16.044 35.947 35.136 35.947 19.091 0.203 35.338-16.248 35.136-35.745 0.203-19.497-15.638-35.135-35.339-34.932z" horiz-adv-x="564" />
<glyph unicode="&#xe60c;" d="M233.003 240.127c-1.859-25.866-1.859-25.875 22.612-25.823 27.373 0.059 54.765-0.481 82.109 0.438 15.967 0.536 26.298-5.334 34.217-19.187 19.623-34.333 40.197-68.122 60.427-102.106 1.662-2.797 3.609-5.424 5.749-8.617 8.034 4.965 15.515 9.666 23.078 14.237 11.79 7.129 23.935 5.007 30.106-5.163 6.002-9.894 2.768-21.371-8.513-28.433-22.52-14.093-45.19-27.942-68.779-42.502-11.347 18.938-22.32 37.209-33.25 55.507-11.749 19.674-23.691 39.241-35.049 59.142-3.729 6.529-8.017 9.059-15.71 8.989-44.019-0.39-88.044-0.425-132.063-0.11-31.811 0.228-48.611 16.843-49.941 48.276-0.249 5.91-0.709 11.811-1.040 17.717-2.071 36.915-4.58 73.813-6.064 110.752-1.288 32.061 28.287 54.184 57.406 43.267 16.163-6.059 26.046-18.203 27.994-35.506 1.812-16.1 2.466-32.33 3.739-50.015 15.285 0 29.931-0.009 44.577 0.004 12.207 0.011 24.418 0.21 36.62 0.033 14.194-0.206 23.245-8.114 23.219-19.885-0.026-11.526-9.377-20.093-23.217-20.267-24.413-0.306-48.831-0.106-73.246-0.154-1.424-0.001-2.846-0.329-4.981-0.594zM123.55 269.573c0.76-12.704 1.84-23.989 1.843-35.274 0.001-3.002-2.724-6.605-5.161-8.922-72.355-68.783-55.763-179.026 33.609-222.629 74.653-36.423 166.367 8.827 186.882 92.213 0.503 2.039 0.846 4.117 1.822 8.957 8.276-14.032 15.708-25.764 22.061-38.053 1.446-2.797-0.004-7.886-1.517-11.303-39.278-88.614-149.201-124.717-235.482-77.486-109.094 59.718-117.098 216.971-14.55 286.236 2.958 1.997 6.134 3.672 10.493 6.261zM180.716 467.599c24.134 0.13 44.536-20.243 44.559-44.498 0.024-24.4-19.997-44.593-44.331-44.712-24.854-0.122-45.433 20.41-45.168 45.068 0.26 24.262 20.365 44.010 44.94 44.142z" />
<glyph unicode="&#xe60d;" d="M394.235 84.97c-73.462-73.521-193.072-73.521-266.594 0-73.52 73.522-73.52 193.134 0 266.625 19.456 19.423 43.173 34.245 70.452 43.911 8.593 3.007 18.106 0.828 24.487-5.585 6.445-6.444 8.624-15.956 5.587-24.487-18.474-52.104-5.891-108.502 32.77-147.167 38.603-38.631 95.002-51.183 147.167-32.771 8.531 3.038 18.074 0.858 24.487-5.586 6.445-6.382 8.593-15.925 5.554-24.487-9.603-27.279-24.456-50.995-43.911-70.452zM160.964 318.271c-55.143-55.143-55.143-144.865 0-199.977 58.916-58.947 159.257-53.639 210.625 12.030-52.964-3.313-105.128 15.803-143.976 54.621-38.847 38.817-57.934 90.983-54.621 143.945-4.233-3.314-8.254-6.845-12.027-10.618z" />
<glyph unicode="&#xe60e;" d="M243.56 200.871c-49.522 49.555-62.811 121.139-40.88 183.099-23.959-8.475-46.611-21.732-65.757-40.88-68.737-68.734-68.737-180.152 0-248.853 68.702-68.704 180.086-68.738 248.821 0 19.214 19.145 32.437 41.798 40.881 65.757-61.925-21.93-133.541-8.64-183.065 40.877z" />
<glyph unicode="&#xe60f;" d="M275.044 240.871v37.502c0 10.361-8.39 18.75-18.75 18.75s-18.751-8.391-18.75-18.75v-37.502c0-10.361 8.391-18.751 18.75-18.75 10.359-0.001 18.75 8.391 18.75 18.75zM136.97 172.689c7.321 7.32 7.321 19.2 0 26.521l-26.521 26.521c-7.32 7.321-19.2 7.321-26.521 0-7.32-7.32-7.32-19.2 0-26.521l26.521-26.521c7.32-7.321 19.2-7.321 26.521 0zM402.173 225.728l-26.521-26.521c-7.32-7.32-7.32-19.2 0-26.521 7.32-7.32 19.2-7.32 26.521 0l26.521 26.521c7.32 7.32 7.32 19.2 0 26.521-7.321 7.321-19.2 7.321-26.521 0zM374.808-3.125h164.826c3.236-0.001 6.165 1.312 8.288 3.433s3.433 5.051 3.433 8.288c0 6.473-5.247 11.721-11.72 11.719h-156.32c11.248 43.558-0.139 91.811-34.181 125.854-51.175 51.175-134.466 51.175-185.643 0-34.042-34.043-45.43-82.295-34.181-125.854l-155.77 0.001c-6.473 0-11.721-5.248-11.721-11.721 0-6.474 5.248-11.721 11.721-11.721h164.275zM190.011 119.649c36.621 36.622 95.98 36.622 132.601 0 26.861-26.861 34.018-65.952 21.476-99.332h-175.554c-12.542 33.38-5.383 72.471 21.477 99.332zM181.457-3.125h149.708z" />
<glyph unicode="&#xe610;" d="M512 469.333v-208l-80 80-96-96-48 48 96 96-80 80zM224 133.333l-96-96 80-80h-208v208l80-80 96 96z" />
<glyph unicode="&#xe611;" d="M224 181.333v-208l-80 80-96-96-48 48 96 96-80 80zM512 421.333l-96-96 80-80h-208v208l80-80 96 96z" />
<glyph unicode="&#xe612;" d="M480 341.333h-128v32c0 17.6-14.4 32-32 32h-128c-17.602 0-32-14.4-32-32v-32h-128c-17.6 0-32-14.4-32-32v-288c0-17.601 14.398-32 32-32h448c17.6 0 32 14.399 32 32v288c0 17.6-14.4 32-32 32zM192 373.275c0.017 0.020 0.037 0.041 0.057 0.058h127.886c0.021-0.017 0.041-0.038 0.059-0.058v-31.942h-128.002v31.942zM480 213.333h-64v-48c0-8.801-7.2-16-16-16h-32c-8.802 0-16 7.199-16 16v48h-192v-48c0-8.801-7.2-16-16-16h-32c-8.801 0-16 7.199-16 16v48h-64v32h448v-32z" />
<glyph unicode="&#xf000;" d="M485.428 416.19q0-10-12.286-22.286l-180.571-180.572v-219.428h91.428q7.428 0 12.857-5.428t5.428-12.857-5.428-12.857-12.857-5.428h-256q-7.428 0-12.857 5.428t-5.428 12.857 5.428 12.857 12.857 5.428h91.428v219.429l-180.571 180.572q-12.285 12.285-12.285 22.285 0 6.572 5.143 10.428t10.857 5 12.285 1.143h402.286q6.572 0 12.286-1.143t10.857-5 5.143-10.428z" />
<glyph unicode="&#xf001;" d="M438.857 405.333v-320q0-14.286-9.714-25.428t-24.572-17.286-29.572-9.143-27.572-3-27.572 3-29.572 9.143-24.572 17.286-9.714 25.428 9.714 25.428 24.572 17.286 29.572 9.143 27.572 3q30 0 54.857-11.143v153.429l-219.429-67.715v-202.571q0-14.286-9.714-25.428t-24.571-17.286-29.572-9.143-27.572-3-27.572 3-29.572 9.143-24.572 17.286-9.714 25.428 9.714 25.428 24.572 17.286 29.572 9.143 27.572 3q30 0 54.857-11.143v276.286q0 8.857 5.428 16.143t14 10.143l237.714 73.143q3.428 1.143 8 1.143 11.428 0 19.428-8t8-19.428z" horiz-adv-x="439" />
<glyph unicode="&#xf002;" d="M329.143 231.619q0 52.857-37.572 90.428t-90.428 37.572-90.428-37.572-37.572-90.428 37.572-90.429 90.428-37.572 90.428 37.572 37.572 90.429zM475.428-6.095q0-14.857-10.857-25.714t-25.714-10.857q-15.428 0-25.714 10.857l-98 97.714q-51.143-35.428-114-35.428-40.857 0-78.143 15.857t-64.285 42.857-42.857 64.286-15.857 78.143 15.857 78.143 42.857 64.285 64.285 42.857 78.143 15.857 78.143-15.857 64.286-42.857 42.857-64.285 15.857-78.143q0-62.857-35.428-114l98-98q10.572-10.572 10.572-25.714z" horiz-adv-x="476" />
<glyph unicode="&#xf003;" d="M475.428 39.619v219.429q-9.143-10.286-19.714-18.857-76.572-58.857-121.714-96.572-14.572-12.286-23.714-19.143t-24.714-13.857-29.286-7h-0.571q-13.714 0-29.285 7t-24.714 13.857-23.714 19.143q-45.143 37.714-121.715 96.572-10.572 8.572-19.715 18.857v-219.429q0-3.714 2.715-6.428t6.428-2.714h420.572q3.714 0 6.428 2.714t2.714 6.428zM475.428 339.905v7t-0.143 3.714-0.857 3.572-1.572 2.572-2.572 2.143-4 0.714h-420.572q-3.715 0-6.428-2.714t-2.715-6.428q0-48 42-81.143 55.143-43.429 114.571-90.572 1.714-1.428 10-8.428t13.143-10.714 12.714-9 14.429-7.857 12.286-2.572h0.572q5.714 0 12.286 2.572t14.428 7.857 12.714 9 13.143 10.714 10 8.428q59.428 47.143 114.572 90.572 15.428 12.285 28.714 33t13.286 37.572zM512 350.476v-310.857q0-18.857-13.428-32.286t-32.286-13.428h-420.572q-18.857 0-32.285 13.428t-13.428 32.286v310.857q0 18.857 13.428 32.286t32.285 13.429h420.572q18.857 0 32.286-13.429t13.428-32.286z" />
<glyph unicode="&#xf005;" d="M475.428 284.476q0-6.286-7.428-13.714l-103.714-101.143 24.572-142.857q0.286-2 0.286-5.714 0-6-3-10.143t-8.714-4.143q-5.428 0-11.428 3.428l-128.286 67.428-128.286-67.428q-6.285-3.428-11.428-3.428-6 0-9 4.143t-3 10.143q0 1.714 0.572 5.714l24.572 142.857-104 101.143q-7.143 7.714-7.143 13.714 0 10.572 16 13.143l143.428 20.857 64.286 130q5.428 11.714 14 11.714t14-11.714l64.286-130 143.429-20.857q16-2.572 16-13.143z" horiz-adv-x="476" />
<glyph unicode="&#xf006;" d="M324.857 182.476l87.428 84.857-120.572 17.714-54 109.143-54-109.143-120.572-17.714 87.428-84.857-20.857-120.286 108 56.857 107.714-56.857zM475.428 284.476q0-6.286-7.428-13.714l-103.714-101.143 24.572-142.857q0.286-2 0.286-5.714 0-14.286-11.714-14.286-5.428 0-11.428 3.428l-128.286 67.428-128.286-67.428q-6.285-3.428-11.428-3.428-6 0-9 4.143t-3 10.143q0 1.714 0.572 5.714l24.572 142.857-104 101.143q-7.143 7.714-7.143 13.714 0 10.572 16 13.143l143.428 20.857 64.286 130q5.428 11.714 14 11.714t14-11.714l64.286-130 143.429-20.857q16-2.572 16-13.143z" horiz-adv-x="476" />
<glyph unicode="&#xf008;" d="M109.715 12.19v36.572q0 7.428-5.428 12.857t-12.857 5.428h-36.572q-7.428 0-12.857-5.428t-5.428-12.857v-36.572q0-7.428 5.428-12.857t12.857-5.428h36.572q7.428 0 12.857 5.428t5.428 12.857zM109.715 121.905v36.572q0 7.428-5.428 12.857t-12.857 5.428h-36.572q-7.428 0-12.857-5.428t-5.428-12.857v-36.572q0-7.428 5.428-12.857t12.857-5.428h36.572q7.428 0 12.857 5.428t5.428 12.857zM109.715 231.619v36.571q0 7.428-5.428 12.857t-12.857 5.429h-36.572q-7.428 0-12.857-5.428t-5.428-12.857v-36.571q0-7.428 5.428-12.857t12.857-5.429h36.572q7.428 0 12.857 5.428t5.428 12.857zM402.286 12.19v146.286q0 7.428-5.428 12.857t-12.857 5.428h-219.429q-7.429 0-12.857-5.428t-5.428-12.857v-146.286q0-7.428 5.428-12.857t12.857-5.428h219.429q7.428 0 12.857 5.428t5.428 12.857zM109.715 341.333v36.571q0 7.429-5.428 12.857t-12.857 5.428h-36.572q-7.428 0-12.857-5.428t-5.428-12.857v-36.571q0-7.428 5.428-12.857t12.857-5.429h36.572q7.428 0 12.857 5.428t5.428 12.857zM512 12.19v36.572q0 7.428-5.428 12.857t-12.857 5.428h-36.572q-7.428 0-12.857-5.428t-5.428-12.857v-36.572q0-7.428 5.428-12.857t12.857-5.428h36.572q7.428 0 12.857 5.428t5.428 12.857zM402.286 231.619v146.286q0 7.428-5.428 12.857t-12.857 5.428h-219.429q-7.429 0-12.857-5.428t-5.428-12.857v-146.286q0-7.428 5.428-12.857t12.857-5.429h219.429q7.428 0 12.857 5.428t5.428 12.857zM512 121.905v36.572q0 7.428-5.428 12.857t-12.857 5.428h-36.572q-7.428 0-12.857-5.428t-5.428-12.857v-36.572q0-7.428 5.428-12.857t12.857-5.428h36.572q7.428 0 12.857 5.428t5.428 12.857zM512 231.619v36.571q0 7.428-5.428 12.857t-12.857 5.429h-36.572q-7.428 0-12.857-5.428t-5.428-12.857v-36.571q0-7.428 5.428-12.857t12.857-5.429h36.572q7.428 0 12.857 5.428t5.428 12.857zM512 341.333v36.571q0 7.429-5.428 12.857t-12.857 5.428h-36.572q-7.428 0-12.857-5.428t-5.428-12.857v-36.571q0-7.428 5.428-12.857t12.857-5.429h36.572q7.428 0 12.857 5.428t5.428 12.857zM548.572 387.048v-384q0-18.857-13.428-32.286t-32.286-13.428h-457.143q-18.857 0-32.285 13.428t-13.428 32.286v384q0 18.857 13.428 32.286t32.285 13.428h457.143q18.857 0 32.286-13.428t13.428-32.286z" horiz-adv-x="549" />
<glyph unicode="&#xf009;" d="M219.429 176.762v-109.714q0-14.857-10.857-25.714t-25.714-10.857h-146.286q-14.857 0-25.715 10.857t-10.857 25.714v109.714q0 14.857 10.857 25.714t25.715 10.857h146.286q14.857 0 25.714-10.857t10.857-25.714zM219.429 396.19v-109.715q0-14.857-10.857-25.714t-25.714-10.857h-146.286q-14.857 0-25.715 10.857t-10.857 25.714v109.715q0 14.857 10.857 25.714t25.715 10.857h146.286q14.857 0 25.714-10.857t10.857-25.714zM475.428 176.762v-109.714q0-14.857-10.857-25.714t-25.714-10.857h-146.286q-14.857 0-25.714 10.857t-10.857 25.714v109.714q0 14.857 10.857 25.714t25.714 10.857h146.286q14.857 0 25.714-10.857t10.857-25.714zM475.428 396.19v-109.715q0-14.857-10.857-25.714t-25.714-10.857h-146.286q-14.857 0-25.714 10.857t-10.857 25.714v109.715q0 14.857 10.857 25.714t25.714 10.857h146.286q14.857 0 25.714-10.857t10.857-25.714z" horiz-adv-x="476" />
<glyph unicode="&#xf00a;" d="M146.286 112.762v-54.857q0-11.428-8-19.428t-19.428-8h-91.428q-11.428 0-19.428 8t-8 19.428v54.857q0 11.428 8 19.428t19.428 8h91.428q11.428 0 19.428-8t8-19.428zM146.286 259.048v-54.857q0-11.428-8-19.428t-19.428-8h-91.428q-11.428 0-19.428 8t-8 19.428v54.857q0 11.428 8 19.428t19.428 8h91.428q11.428 0 19.428-8t8-19.428zM329.143 112.762v-54.857q0-11.428-8-19.428t-19.428-8h-91.428q-11.428 0-19.428 8t-8 19.428v54.857q0 11.428 8 19.428t19.428 8h91.428q11.428 0 19.428-8t8-19.428zM146.286 405.333v-54.857q0-11.429-8-19.429t-19.428-8h-91.428q-11.428 0-19.428 8t-8 19.428v54.857q0 11.428 8 19.428t19.428 8h91.428q11.428 0 19.428-8t8-19.428zM329.143 259.048v-54.857q0-11.428-8-19.428t-19.428-8h-91.428q-11.428 0-19.428 8t-8 19.428v54.857q0 11.428 8 19.428t19.428 8h91.428q11.428 0 19.428-8t8-19.428zM512 112.762v-54.857q0-11.428-8-19.428t-19.428-8h-91.428q-11.428 0-19.428 8t-8 19.428v54.857q0 11.428 8 19.428t19.428 8h91.428q11.428 0 19.428-8t8-19.428zM329.143 405.333v-54.857q0-11.429-8-19.429t-19.428-8h-91.428q-11.428 0-19.428 8t-8 19.428v54.857q0 11.428 8 19.428t19.428 8h91.428q11.428 0 19.428-8t8-19.428zM512 259.048v-54.857q0-11.428-8-19.428t-19.428-8h-91.428q-11.428 0-19.428 8t-8 19.428v54.857q0 11.428 8 19.428t19.428 8h91.428q11.428 0 19.428-8t8-19.428zM512 405.333v-54.857q0-11.429-8-19.429t-19.428-8h-91.428q-11.428 0-19.428 8t-8 19.428v54.857q0 11.428 8 19.428t19.428 8h91.428q11.428 0 19.428-8t8-19.428z" />
<glyph unicode="&#xf00b;" d="M146.286 112.762v-54.857q0-11.428-8-19.428t-19.428-8h-91.428q-11.428 0-19.428 8t-8 19.428v54.857q0 11.428 8 19.428t19.428 8h91.428q11.428 0 19.428-8t8-19.428zM146.286 259.048v-54.857q0-11.428-8-19.428t-19.428-8h-91.428q-11.428 0-19.428 8t-8 19.428v54.857q0 11.428 8 19.428t19.428 8h91.428q11.428 0 19.428-8t8-19.428zM512 112.762v-54.857q0-11.428-8-19.428t-19.428-8h-274.286q-11.428 0-19.428 8t-8 19.428v54.857q0 11.428 8 19.428t19.428 8h274.286q11.428 0 19.428-8t8-19.428zM146.286 405.333v-54.857q0-11.429-8-19.429t-19.428-8h-91.428q-11.428 0-19.428 8t-8 19.428v54.857q0 11.428 8 19.428t19.428 8h91.428q11.428 0 19.428-8t8-19.428zM512 259.048v-54.857q0-11.428-8-19.428t-19.428-8h-274.286q-11.428 0-19.428 8t-8 19.428v54.857q0 11.428 8 19.428t19.428 8h274.286q11.428 0 19.428-8t8-19.428zM512 405.333v-54.857q0-11.429-8-19.429t-19.428-8h-274.286q-11.428 0-19.428 8t-8 19.428v54.857q0 11.428 8 19.428t19.428 8h274.286q11.428 0 19.428-8t8-19.428z" />
<glyph unicode="&#xf00c;" d="M477.428 307.619q0-11.428-8-19.428l-245.714-245.714q-8-8-19.428-8t-19.428 8l-142.286 142.286q-8 8-8 19.428t8 19.428l38.857 38.857q8 8 19.428 8t19.428-8l84-84.286 187.429 187.715q8 8 19.428 8t19.428-8l38.857-38.857q8-8 8-19.429z" />
<glyph unicode="&#xf00d;" d="M370.857 91.619q0-11.428-8-19.428l-38.857-38.857q-8-8-19.428-8t-19.428 8l-84 84-84-84q-8-8-19.428-8t-19.428 8l-38.857 38.857q-8 8-8 19.428t8 19.428l84 84-84 84q-8 8-8 19.428t8 19.428l38.857 38.857q8 8 19.428 8t19.428-8l84-84 84 84q8 8 19.428 8t19.428-8l38.857-38.857q8-8 8-19.428t-8-19.428l-84-84 84-84q8-8 8-19.428z" horiz-adv-x="403" />
<glyph unicode="&#xf00e;" d="M292.572 240.762v-18.286q0-3.714-2.714-6.428t-6.428-2.714h-64v-64q0-3.714-2.714-6.428t-6.428-2.714h-18.286q-3.714 0-6.428 2.714t-2.714 6.428v64h-64q-3.715 0-6.428 2.714t-2.715 6.428v18.286q0 3.714 2.715 6.428t6.428 2.714h64v64q0 3.714 2.714 6.428t6.428 2.714h18.286q3.714 0 6.428-2.714t2.714-6.428v-64h64q3.714 0 6.428-2.714t2.714-6.428zM329.143 231.619q0 52.857-37.572 90.428t-90.428 37.572-90.428-37.572-37.572-90.428 37.572-90.429 90.428-37.572 90.428 37.572 37.572 90.429zM475.428-6.095q0-15.143-10.714-25.857t-25.857-10.714q-15.428 0-25.714 10.857l-98 97.714q-51.143-35.428-114-35.428-40.857 0-78.143 15.857t-64.285 42.857-42.857 64.286-15.857 78.143 15.857 78.143 42.857 64.285 64.285 42.857 78.143 15.857 78.143-15.857 64.286-42.857 42.857-64.285 15.857-78.143q0-62.857-35.428-114l98-98q10.572-10.572 10.572-25.714z" horiz-adv-x="476" />
<glyph unicode="&#xf010;" d="M292.572 240.762v-18.286q0-3.714-2.714-6.428t-6.428-2.714h-164.571q-3.715 0-6.428 2.714t-2.715 6.428v18.286q0 3.714 2.715 6.428t6.428 2.714h164.571q3.714 0 6.428-2.714t2.714-6.428zM329.143 231.619q0 52.857-37.572 90.428t-90.428 37.572-90.428-37.572-37.572-90.428 37.572-90.429 90.428-37.572 90.428 37.572 37.572 90.429zM475.428-6.095q0-15.143-10.714-25.857t-25.857-10.714q-15.428 0-25.714 10.857l-98 97.714q-51.143-35.428-114-35.428-40.857 0-78.143 15.857t-64.285 42.857-42.857 64.286-15.857 78.143 15.857 78.143 42.857 64.285 64.285 42.857 78.143 15.857 78.143-15.857 64.286-42.857 42.857-64.285 15.857-78.143q0-62.857-35.428-114l98-98q10.572-10.572 10.572-25.714z" horiz-adv-x="476" />
<glyph unicode="&#xf011;" d="M438.857 213.333q0-44.572-17.428-85.143t-46.857-70-70-46.857-85.143-17.428-85.143 17.428-70 46.857-46.857 70-17.428 85.143q0 52 23 98t64.715 77.143q12.285 9.143 27.285 7.143t23.857-14.285q9.143-12 7-27t-14.143-24.143q-28-21.143-43.285-51.714t-15.285-65.143q0-29.715 11.572-56.715t31.285-46.714 46.715-31.286 56.714-11.572 56.714 11.572 46.714 31.286 31.286 46.714 11.572 56.714q0 34.572-15.286 65.143t-43.286 51.714q-12 9.143-14.143 24.143t7 27q8.857 12.285 24 14.285t27.143-7.143q41.714-31.143 64.714-77.143t23-98zM256 432.762v-182.857q0-14.857-10.857-25.714t-25.715-10.857-25.714 10.857-10.857 25.714v182.857q0 14.857 10.857 25.714t25.714 10.857 25.714-10.857 10.857-25.714z" horiz-adv-x="439" />
<glyph unicode="&#xf013;" d="M292.572 213.333q0 30.286-21.428 51.714t-51.714 21.428-51.714-21.428-21.428-51.714 21.428-51.714 51.714-21.428 51.714 21.428 21.428 51.714zM438.857 244.476v-63.429q0-3.428-2.286-6.572t-5.714-3.714l-52.857-8q-5.428-15.428-11.143-26 10-14.286 30.572-39.428 2.857-3.428 2.857-7.143t-2.572-6.572q-7.714-10.572-28.286-30.857t-26.857-20.286q-3.428 0-7.428 2.572l-39.428 30.857q-12.572-6.572-26-10.857-4.572-38.857-8.286-53.143-2-8-10.286-8h-63.428q-4 0-7 2.428t-3.286 6.143l-8 52.572q-14 4.572-25.714 10.572l-40.285-30.572q-2.857-2.572-7.143-2.572-4 0-7.143 3.143-36 32.572-47.143 48-2 2.857-2 6.572 0 3.428 2.285 6.572 4.285 6 14.572 19t15.428 20.143q-7.715 14.286-11.715 28.286l-52.285 7.714q-3.715 0.572-6 3.572t-2.285 6.714v63.429q0 3.429 2.285 6.572t5.428 3.714l53.143 8q4 13.143 11.143 26.285-11.428 16.286-30.572 39.428-2.857 3.429-2.857 6.857 0 2.857 2.572 6.571 7.428 10.286 28.143 30.715t27 20.428q3.715 0 7.428-2.857l39.428-30.572q12.572 6.572 26 10.857 4.572 38.857 8.286 53.143 2 8 10.286 8h63.428q4 0 7-2.428t3.286-6.143l8-52.572q14-4.572 25.714-10.572l40.572 30.572q2.572 2.572 6.857 2.572 3.714 0 7.143-2.857 36.857-34 47.143-48.572 2-2.286 2-6.286 0-3.429-2.286-6.571-4.286-6-14.572-19t-15.428-20.143q7.428-14.286 11.714-28l52.286-8q3.714-0.571 6-3.571t2.286-6.714z" horiz-adv-x="439" />
<glyph unicode="&#xf014;" d="M146.286 259.048v-164.571q0-4-2.571-6.572t-6.571-2.572h-18.285q-4 0-6.572 2.572t-2.572 6.572v164.572q0 4 2.572 6.571t6.572 2.572h18.285q4 0 6.572-2.572t2.571-6.572zM219.429 259.048v-164.571q0-4-2.571-6.572t-6.572-2.572h-18.286q-4 0-6.572 2.572t-2.571 6.572v164.572q0 4 2.571 6.571t6.572 2.572h18.286q4 0 6.572-2.572t2.571-6.572zM292.572 259.048v-164.571q0-4-2.572-6.572t-6.572-2.572h-18.286q-4 0-6.572 2.572t-2.571 6.572v164.572q0 4 2.571 6.571t6.572 2.572h18.286q4 0 6.572-2.572t2.572-6.572zM329.143 52.19v270.857h-256v-270.857q0-6.286 2-11.572t4.143-7.714 3-2.428h237.715q0.857 0 3 2.428t4.143 7.714 2 11.572zM137.143 359.619h128l-13.714 33.428q-2 2.572-4.857 3.143h-90.571q-2.857-0.572-4.857-3.143zM402.286 350.476v-18.286q0-4-2.572-6.572t-6.572-2.571h-27.428v-270.857q0-23.714-13.428-41t-32.286-17.286h-237.714q-18.857 0-32.285 16.714t-13.428 40.428v272h-27.428q-4 0-6.572 2.571t-2.571 6.571v18.286q0 4 2.571 6.572t6.572 2.571h88.285l20 47.715q4.285 10.572 15.429 18t22.572 7.428h91.428q11.428 0 22.572-7.428t15.428-18l20-47.715h88.286q4 0 6.572-2.571t2.572-6.572z" horiz-adv-x="403" />
<glyph unicode="&#xf015;" d="M402.286 185.905v-137.143q0-7.428-5.428-12.857t-12.857-5.428h-109.714v109.714h-73.143v-109.714h-109.715q-7.428 0-12.857 5.428t-5.428 12.857v137.143q0 0.286 0.143 0.857t0.143 0.857l164.286 135.429 164.285-135.429q0.286-0.572 0.286-1.714zM466 205.619l-17.714-21.143q-2.286-2.572-6-3.143h-0.857q-3.714 0-6 2l-197.714 164.857-197.714-164.857q-3.428-2.286-6.857-2-3.715 0.572-6 3.143l-17.715 21.143q-2.285 2.857-2 6.714t3.143 6.143l205.428 171.143q9.143 7.428 21.714 7.428t21.714-7.428l69.714-58.286v55.715q0 4 2.572 6.572t6.572 2.571h54.857q4 0 6.572-2.571t2.572-6.572v-116.572l62.572-52q2.857-2.286 3.143-6.143t-2-6.714z" horiz-adv-x="476" />
<glyph unicode="&#xf016;" d="M36.572 30.476h292.572v219.429h-118.857q-11.429 0-19.429 8t-8 19.429v118.857h-146.286v-365.714zM219.429 286.476h85.429l-85.428 85.428v-85.428zM365.714 249.905v-228.572q0-11.428-8-19.428t-19.428-8h-310.857q-11.428 0-19.428 8t-8 19.428v384q0 11.428 8 19.428t19.428 8h155.429q11.429 0 25.143-5.715t21.714-13.714l116.572-116.571q8-8 13.714-21.715t5.714-25.143z" horiz-adv-x="366" />
</font>
</defs>
</svg>
