<?xml version="1.0" standalone="no"?>
<!DOCTYPE svg PUBLIC "-//W3C//DTD SVG 1.1//EN" "http://www.w3.org/Graphics/SVG/1.1/DTD/svg11.dtd" >
<svg xmlns="http://www.w3.org/2000/svg">
<metadata>Generated by IcoMoon</metadata>
<defs>
<font id="ADC-icons" horiz-adv-x="1024">
<font-face units-per-em="1024" ascent="960" descent="-64" />
<missing-glyph horiz-adv-x="1024" />
<glyph unicode="&#x20;" d="" horiz-adv-x="512" />
<glyph unicode="&#xe000;" d="M528.567 659.218c148.45 0 148.45 279.657 0 279.657-148.446 0-148.446-279.657 0-279.657zM282.914 523.531l-40-258.702h81.694l40 188.839c12.466-5.269 45.801-9.84 59.867-13.639l-120-529.55h452.631l-120 533.241c9.449 2.965 38.505 6.295 47.161 9.95l40-188.839h81.691l-40 258.702c0 0-29.767 122.162-241.525 122.162-203.234-0.002-241.52-122.165-241.52-122.165z" />
<glyph unicode="&#xe001;" d="M499.056 511.474c204.409 0 204.409 316.807 0 316.807-204.405 0-204.405-316.807 0-316.807zM258.745 419.691v-168.219h92.402v96.784c11.328-3.426 41.621-6.398 54.4-8.871v-318.329h193.205v320.729c8.585 1.927 34.985 4.091 42.853 6.469v-96.784h92.395v168.219c0 0-45.218 79.435-237.625 79.435-184.67 0-237.63-79.433-237.63-79.433z" />
<glyph unicode="&#xe002;" d="M499.056 511.474c204.409 0 204.409 316.807 0 316.807-204.405 0-204.405-316.807 0-316.807zM258.745 419.691l-58.745-89.024 103.335-54 47.813 71.586c11.328-3.426 41.621-6.398 54.4-8.871v-98.329h193.205v100.729c8.585 1.927 34.985 4.091 42.853 6.469l53.735-72.919 98.661 61.335-60 83.024c0 0-45.218 79.435-237.625 79.435-184.67-0.002-237.63-79.435-237.63-79.435zM388.359 213.019l78-78-128.693-128.693-78 78zM547.691 133.698l80.635 80.633 128.69-128.693-80.633-80.633z" />
<glyph unicode="&#xe003;" d="M849.973 651.982h-168.986v112.658c0 30.98-25.348 56.328-56.328 56.328h-225.315c-30.98 0-56.328-25.348-56.328-56.328v-112.658h-168.986c-61.962 0-112.658-50.696-112.658-112.658v-450.63c0-61.962 50.696-112.658 112.658-112.658h675.944c61.962 0 112.658 50.696 112.658 112.658v450.63c0 61.962-50.696 112.658-112.658 112.658zM399.342 764.64h225.315v-112.658h-225.315v112.658zM737.315 257.681h-168.986v-168.986h-112.658v168.986h-168.986v112.658h168.986v168.986h112.658v-168.986h168.986v-112.658z" />
<glyph unicode="&#xe004;" d="M0-85.333h512v1024h-512v-1024zM320 810.667h128v-128h-128v128zM320 554.667h128v-128h-128v128zM320 298.667h128v-128h-128v128zM64 810.667h128v-128h-128v128zM64 554.667h128v-128h-128v128zM64 298.667h128v-128h-128v128zM576 618.667h448v-64h-448zM576-85.333h128v256h192v-256h128v576h-448z" />
<glyph unicode="&#xe005;" d="M768 298.667v128h-320v128h320v128l192-192zM704 362.667v-256h-320v-192l-384 192v832h704v-320h-64v256h-512l256-128v-576h256v192z" />
<glyph unicode="&#xe006;" d="M728.992 426.667c137.753 87.335 231.008 255.209 231.008 448 0 21.675-1.191 43.033-3.479 64h-889.040c-2.29-20.969-3.481-42.327-3.481-64 0-192.793 93.255-360.665 231.006-448-137.751-87.335-231.006-255.209-231.006-448 0-21.675 1.191-43.033 3.479-64h889.042c2.288 20.967 3.479 42.325 3.479 64 0 192.791-93.255 360.665-231.008 448zM160-21.333c0 186.912 80.162 345.415 224 397.707v100.585c-143.838 52.293-224 210.793-224 397.707v0h704c0-186.914-80.162-345.415-224-397.705v-100.585c143.838-52.295 224-210.798 224-397.71h-704zM619.625 269.074c-71.655 40.645-75.609 93.369-75.625 125.367v64.226c0 31.993 3.803 84.914 75.744 125.664 38.503 22.363 71.808 56.347 97.049 98.336h-409.584c25.266-42.032 58.613-76.041 97.166-98.407 71.655-40.645 75.607-93.367 75.625-125.367l0.002-64.226c0-31.993-3.803-84.914-75.744-125.664-72.622-42.181-126.738-125.685-143.090-226.336h501.671c-16.366 100.709-70.53 184.249-143.214 226.407z" />
<glyph unicode="&#xe007;" d="M512.002 745.456v65.211h128v64c0 35.346-28.654 64-64.002 64h-191.998c-35.346 0-64-28.654-64-64v-64h128v-65.211c-214.798-16.338-384-195.801-384-414.789 0-229.751 186.249-416 416-416 229.751 0 416 186.249 416 416 0 218.983-169.202 398.448-384 414.789zM706.277 104.393c-60.443-60.439-140.798-93.726-226.274-93.726s-165.833 33.287-226.274 93.726c-60.439 60.441-93.726 140.8-93.726 226.274s33.287 165.833 93.726 226.274c58.039 58.039 134.448 91.017 216.114 93.547l-21.678-314.021c-1.861-26.29 12.464-37.801 31.835-37.801s33.698 11.513 31.835 37.801l-21.675 314.023c81.666-2.533 158.075-35.513 216.117-93.55 60.439-60.439 93.726-140.8 93.726-226.274s-33.287-165.833-93.726-226.274z" />
<glyph unicode="&#xe008;" d="M977.582 744.205c-33.984 9.707-69.41-9.97-79.12-43.957l-5.022-17.582h-596.942l-8.992 71.938c-4.005 32.027-31.23 56.062-63.506 56.062h-160c-35.346 0-64-28.654-64-64s28.654-64 64-64h103.502l56.992-455.938c4.005-32.025 31.23-56.062 63.506-56.062h544c28.574 0 53.689 18.944 61.538 46.418l128 448c9.71 33.986-9.97 69.41-43.957 79.12zM512 426.667v64h127.995v-64h-127.995zM639.995 362.667v-64h-127.995v64h127.995zM512 554.667v64h127.995v-64h-127.995zM304.498 618.667h143.502v-64h-135.502l-8 64zM320.498 490.667h127.502v-64h-119.502l-8 64zM336.498 362.667h111.502v-64h-103.502l-8 64zM783.723 298.667h-79.728v64h98.014l-18.286-64zM820.297 426.667h-116.299v64h134.585l-18.286-64zM856.869 554.667h-152.873v64h171.159l-18.286-64zM256 10.667c0-53.019 42.981-96 96-96s96 42.981 96 96c0 53.019-42.981 96-96 96-53.019 0-96-42.981-96-96zM640 10.667c0-53.019 42.981-96 96-96s96 42.981 96 96c0 53.019-42.981 96-96 96-53.019 0-96-42.981-96-96z" />
<glyph unicode="&#xe009;" d="M480 874.667c-265.097 0-480-214.903-480-480s214.903-480 480-480c265.097 0 480 214.903 480 480 0 265.097-214.903 480-480 480zM480 10.667c-212.078 0-384 171.922-384 384s171.922 384 384 384c212.078 0 384-171.922 384-384 0-212.078-171.922-384-384-384zM512 426.667v128h128v64h-128v64h-64v-64h-128v-256h128v-128h-128v-64h128v-64h64v64h128.002l-0.002 256h-128zM448 426.667h-64v128h64v-128zM576.002 234.667h-64.002v128h64.002v-128z" />
<glyph unicode="&#xe00a;" d="M836.447 762.197c22.618-11.069 42.33-26.833 56.771-46.191 30.397-40.749 38.933-96.262 25.381-164.994-13.697-69.553-44.373-128.267-89.040-170.785-8.169-8.541-16.918-16.498-26.231-23.836-47.841-37.672-108.256-57.586-174.713-57.586l-211.287 0.002-56.826-266.441h-116.552l8.878 40.749h40.599l56.826 266.441h165.703c158.644 0 291.269 97.765 326.756 263.984 40.242 188.202-94.702 273.756-210.712 273.756h-395.428l-175.202-804.181h133.808l-21.151-97.078h232.056l56.826 266.441h165.703c158.644 0 291.269 97.765 326.756 263.984 29.676 138.78-35.912 221.733-118.922 255.734zM433.090 713.519h113.654c56.85 0 94.704-48.881 78.144-109.977-14.202-61.117-73.39-109.997-132.584-109.997h-108.923l49.711 219.973z" />
<glyph unicode="&#xe00b;" d="M906.301 764.64h-788.602c-31.093 0-56.327-25.235-56.327-56.327v-563.286c0-31.093 25.235-56.329 56.327-56.329h788.602c31.093 0 56.329 25.235 56.329 56.329v563.286c0 31.093-25.235 56.327-56.329 56.327zM145.863 708.311h732.273c15.575 0 28.163-12.59 28.163-28.163v-84.493h-788.602v84.493c0 15.575 12.59 28.163 28.163 28.163zM878.137 145.023h-732.273c-15.575 0-28.163 12.59-28.163 28.165v253.479h788.602v-253.479c0-15.575-12.59-28.165-28.165-28.165z" />
<glyph unicode="&#xe00c;" d="M830.169 475.348c-22.633-81.483-15.262-147.897 23.102-215.136 45.065-79.008 80.457-163.554 119.607-245.911 20.606-43.333 15.047-72.59-15.589-88.601-29.554-15.454-57.127-2.103-80.8 40.919-44.779 81.349-88.565 163.257-133.499 244.523-8.478 15.333-13.349 33.593-32.233 45.785-43.774-89.394-87.111-178.286-130.846-266.987-27.061-54.875-52.937-70.507-86.633-53.454-32.386 16.402-35.543 42.363-12.046 97.824 21.591 50.951 41.899 102.45 64.848 152.766 47.458 103.993 96.677 207.266 74.912 324.8-59.861-29.141-72.425-63.129-41.71-122.249-11.381-46.153-52.288-60.562-86.059-85.065-65.881-47.792-127.349-101.696-190.608-153.102-75.771-61.575-151.509-123.184-226.199-183.911-37.675 23.637-38.393 28.898-5.771 55.689 71.815 58.987 144.247 117.214 216.32 175.89 58.078 47.273 115.993 94.729 175.086 143.019-1.493 8.811-3.118 16.551-4.094 24.377-10.469 84.286-1.778 160.597 72.368 218.775 36.843 28.903 66.041 67.504 98.951 101.465 6.713 6.923 13.675 14.601 22.101 18.67 33.918 16.373 164.729-15.915 186.395-47.621 54.256-79.403 107.497-159.52 159.879-240.187 22.263-34.29 16.793-62.153-11.797-80.859-27.426-17.938-54.201-10.551-78.45 23.819-25.102 35.591-48.718 72.231-77.234 114.761zM424.96 336.644c-114.194-92.96-227.088-184.859-338.601-275.637-6.656 2.843-10.373 3.312-12.288 5.415-79.559 87.431-88.459 106.258 12.677 182.485 60.919 45.929 118.512 96.254 177.925 144.203 58.638 47.335 80.057 44.599 128.256-15.351 10.023-12.475 19.689-25.248 32.032-41.115zM750.379 726.724c-57.765 0.469-101.733 45.584-100.441 103.086 1.207 54.297 46.224 99.433 100.107 100.366 53.577 0.926 104.409-49.088 104.201-102.546-0.208-56.61-46.272-101.367-103.867-100.905zM254.59-80.858c-39.671-0.153-73.977 34.293-74.594 74.882-0.61 40.345 32.914 74.258 73.833 74.693 41.289 0.439 73.678-32.089 73.666-73.995-0.011-42.034-32.224-75.433-72.905-75.579z" />
<glyph unicode="&#xe00d;" d="M528.567 659.218c180.439 0 180.439 279.657 0 279.657-180.437 0-180.437-279.657 0-279.657zM364.608 413.666c12.466-5.269 45.801-9.84 59.867-13.639v-489.55h212.631v493.241c9.449 2.965 38.505 6.295 47.161 9.95v-148.839h101.691l0.002 258.702c0 0-49.767 122.162-261.525 122.162-203.239 0-261.525-122.162-261.525-122.162zM220.626 610.502c121.431 9.39 106.878 197.595-14.553 188.203-121.429-9.392-106.875-197.598 14.553-188.203zM165.275 504.861l25.824-58.245 101.175 7.829-4.629 59.835c5.013 1.543 20.597 4.039 25.161 5.81l35.271-40.846 55.799 40.965-39.461 46.565c0 0-30.67 46.971-144.816 36.274-45.129-4.231-59.536-18.288-59.536-18.288zM349.216 317.78l-82.361 70.542 44.197 51.607 82.363-70.544z" />
<glyph unicode="&#xe00e;" d="M462.569 577.168c-14.658-48.331-29.317-96.663-43.954-145.001-0.421-1.383-0.489-2.875-0.912-4.261-7.595-24.825-24.709-44.679-38.347-41.191-21.63 5.541-30.667 21.079-36.158 43.502-11.938 48.759-28.48 96.395-50.13 143.358 2.311-17.659 3.129-35.666 7.205-52.907 14.309-60.558 29.847-120.821 44.626-181.266 2.409-9.849 3.589-20.030 4.869-30.114 3.609-28.503 0.329-33.189-26.174-38.439-28.423-5.63-28.928-5.625-29.173-35.691-0.416-52.359 0.249-104.72-0.469-157.070-0.153-11.129-0.715-26.151-7.511-32.357-9.504-8.683-24.976-14.59-37.991-14.77-17.995-0.251-28.569 14.503-30.649 31.531-2.277 18.658-1.399 37.726-1.479 56.617-0.169 40.718 0.286 81.447-0.407 122.158-0.133 7.808-4.357 15.547-6.688 23.319-3.218-8.361-9.070-16.679-9.221-25.095-0.882-49.435-0.354-98.889-0.494-148.336-0.034-11.611 0.098-23.346-1.495-34.793-2.313-16.663-14.21-27.175-29.623-26.745-11.317 0.311-27.095 5.963-32.521 14.535-8.745 13.815-14.041 31.858-14.709 48.357-1.883 46.464-0.384 93.054-0.773 139.593-0.267 32.101-0.459 33.527-31.275 38.345-18.914 2.953-24.697 12.455-23.847 29.257 0.295 5.792 0.773 11.682 2.139 17.291 19.897 81.397 39.993 162.75 59.881 244.151 0.866 3.545 0.213 7.467 0.265 11.214-4.551-2.238-12.002-3.47-13.177-6.875-7.065-20.439-12.622-41.401-18.823-62.139-8.709-29.12-16.818-58.443-26.546-87.223-7.511-22.217-22.526-33.518-36.281-30.183-18.267 4.439-31.129 26.167-26.242 48.702 5.479 25.262 12.613 50.24 20.347 74.926 12.498 39.888 24.043 80.261 39.801 118.873 14.16 34.686 40.759 55.111 81.248 53.819 37.771-1.209 75.719-2 113.406 0.187 57.026 3.312 83.749-24.311 102.834-80.194 5.977-17.497 10.866-35.36 17.39-56.791 9.655 30.615 15.746 56.937 26.183 81.406 15.502 36.341 42.523 56.752 84.761 55.515 52.311-1.529 104.736-1.522 157.049-0.023 45.998 1.319 74.791-20.953 88.615-62.103 16.583-49.378 30.825-99.595 44.542-149.872 10.83-39.675 10.711-41.047 52.594-41.614 39.259-0.533 78.553 0.567 117.792-0.469 40.226-1.058 59.744-16.921 63.346-56.907 3.378-37.495 2.139-75.541 0.743-113.266-0.507-13.605-3.573-32.144-23.543-30.249-18.103 1.717-27.065 15.888-27.447 33.858-0.535 25.426-0.137 50.869-7.906 76.151 0-59.355 0-118.713 0-178.069 0-29.093 0.261-58.183-0.064-87.264-0.331-29.591-12.299-50.971-28.473-52.11-18.455-1.303-34.711 21.689-34.944 50.651-0.331 42.030-0.087 84.064-5.934 126.398-0.795-9.623-2.185-19.232-2.279-28.857-0.334-34.898 0.574-69.831-0.576-104.702-0.757-22.873-18.907-42.839-35.719-42.551-15.317 0.261-25.785 16.958-26.665 42.951-0.295 8.713-0.073 17.449-0.073 26.181-0.005 72.715 0.005 145.433-0.005 218.151-0.005 58.082-0.009 58.094-57.557 74.821-19.369 5.627-33.177 16.199-38.736 37.070-10.046 37.733-21.378 75.127-32.235 112.647-2.823 9.765-5.383 19.648-9.042 29.097-1.289 3.317-5.502 5.495-8.382 8.187-2.457-3.042-6.711-5.909-7.042-9.163-1.161-11.534-1.264-23.205-1.269-34.821-0.073-139.621-0.016-279.237-0.119-418.857-0.009-13.067 0.629-26.393-1.648-39.138-4.688-26.27-20.592-39.294-44.569-38.962-23.319 0.32-38.743 15.129-41.881 41.415-1.195 10.055-0.574 20.336-0.578 30.517-0.037 68.354-0.005 136.709-0.027 205.063-0.005 10.183 0.565 20.441-0.555 30.505-0.551 4.91-4.391 9.458-6.741 14.167-2.983-4.039-7.941-7.792-8.551-12.155-1.392-10.005-0.777-20.302-0.782-30.48-0.037-68.354 0.098-136.709-0.119-205.063-0.041-13.033 0.247-26.414-2.494-39.008-5.339-24.583-18.761-34.059-43.449-33.723-24.834 0.338-36.729 10.272-40.704 36.217-1.742 11.392-0.912 23.211-0.917 34.841-0.046 142.528 0.032 285.058-0.128 427.584-0.021 15.362-1.337 30.727-2.055 46.087-3.792 0.56-7.575 1.106-11.362 1.655zM278.535 765.817c3.255-47.614-37.525-70.933-70.064-72.167-36.471-1.383-72.222 36.672-71.769 73.045 0.414 33.099 36.832 69.586 70.098 70.231 39.559 0.773 71.097-30.498 71.735-71.109zM633.975 764.573c-0.537-37.888-31.177-68.448-69.301-69.118-41.118-0.725-71.024 29.351-70.594 70.994 0.411 39.547 34.123 72.194 72.64 70.331 35.067-1.694 67.758-36.793 67.255-72.208zM886.759 541.979c27.991-0.478 51.655-21.819 52.507-47.346 0.839-25.136-28.206-52.078-54.72-50.759-26.987 1.337-50.352 25.561-49.138 50.951 1.317 27.584 23.145 47.63 51.351 47.154z" />
<glyph unicode="&#xe00f;" d="M704 938.667c-176.729 0-320-143.269-320-320 0-20.025 1.858-39.616 5.376-58.624l-389.376-389.376v-192c0-35.346 28.654-64 64-64h64v64h128v128h128v128h128l83.042 83.042c34.009-12.315 70.695-19.042 108.958-19.042 176.729 0 320 143.269 320 320s-143.271 320-320 320zM799.874 618.541c-53.019 0-96 42.981-96 96s42.981 96 96 96 96-42.981 96-96-42.981-96-96-96z" />
<glyph unicode="&#xe010;" d="M384 426.667c70.752 0 128 57.312 128 128v256c0 70.688-57.248 128-128 128s-128-57.312-128-128v-256c0-70.688 57.248-128 128-128zM512 42.667h-64v134.496c181.248 30.624 320 187.68 320 377.504v62.016c0 35.36-28.64 64-64 64s-64-28.64-64-64v-62.016c0-141.184-114.752-256-256-256s-256 114.816-256 256v62.016c0 35.36-28.64 64-64 64s-64-28.64-64-64v-62.016c0-189.824 138.752-346.88 320-377.504v-134.496h-64c-70.752 0-128-57.248-128-128h512c0 70.752-57.248 128-128 128z" horiz-adv-x="768" />
<glyph unicode="&#xe011;" d="M512 681c-140.222 0-254.333-114.111-254.333-254.333s114.111-254.333 254.333-254.333 254.333 114.111 254.333 254.333c0 140.222-114.111 254.333-254.333 254.333zM512 245.001c-100.345 0-181.666 81.321-181.666 181.666s81.321 181.666 181.666 181.666 181.666-81.321 181.666-181.666-81.323-181.666-181.666-181.666zM512 753.665c20.058 0 36.333 16.275 36.333 36.333v72.667c0 20.058-16.275 36.333-36.333 36.333s-36.333-16.275-36.333-36.333v-72.667c0-20.058 16.275-36.333 36.333-36.333zM512 99.669c-20.058 0-36.333-16.275-36.333-36.333v-72.667c0-20.058 16.275-36.333 36.333-36.333s36.333 16.275 36.333 36.333v72.667c0 20.058-16.275 36.333-36.333 36.333zM794.575 657.912l51.378 51.378c14.194 14.194 14.194 37.185 0 51.378s-37.185 14.194-51.378 0l-51.378-51.378c-14.194-14.194-14.194-37.185 0-51.378 14.19-14.194 37.185-14.194 51.378 0zM229.425 195.418l-51.378-51.378c-14.194-14.19-14.194-37.181 0-51.375s37.185-14.194 51.378 0l51.378 51.375c14.194 14.241 14.194 37.188 0 51.378-14.19 14.196-37.185 14.243-51.378 0zM185.002 426.667c0 20.058-16.275 36.333-36.333 36.333h-72.667c-20.058 0-36.333-16.275-36.333-36.333s16.275-36.333 36.333-36.333h72.667c20.058 0 36.333 16.275 36.333 36.333zM947.998 463h-72.667c-20.058 0-36.333-16.275-36.333-36.333s16.275-36.333 36.333-36.333h72.667c20.058 0 36.333 16.275 36.333 36.333s-16.275 36.333-36.333 36.333zM229.374 657.912c14.196-14.194 37.188-14.194 51.378 0 14.196 14.194 14.196 37.185 0 51.378l-51.378 51.378c-14.194 14.194-37.181 14.194-51.378 0-14.194-14.194-14.194-37.185 0-51.378l51.378-51.378zM794.626 195.469c-14.241 14.194-37.188 14.194-51.378 0-14.196-14.194-14.241-37.185 0-51.378l51.378-51.378c14.19-14.194 37.181-14.194 51.375 0s14.194 37.181 0 51.378l-51.375 51.378z" />
<glyph unicode="&#xe012;" d="M416 810.667c17.666 0 32 14.334 32 32v64c0 17.666-14.334 32-32 32s-32-14.334-32-32v-64c0-17.666 14.334-32 32-32zM664.875 726.333l45.25 45.25c12.498 12.501 12.498 32.75 0 45.25-12.501 12.501-32.75 12.501-45.25 0l-45.25-45.25c-12.501-12.501-12.501-32.75 0-45.25 12.498-12.501 32.75-12.501 45.25 0zM32 490.667h64c17.666 0 32 14.334 32 32s-14.334 32-32 32h-64c-17.666 0-32-14.334-32-32s14.334-32 32-32zM704 522.667c0-17.666 14.334-32 32-32h64c17.666 0 32 14.334 32 32s-14.334 32-32 32h-64c-17.666 0-32-14.334-32-32zM167.081 726.333c12.503-12.501 32.752-12.501 45.25 0 12.503 12.501 12.503 32.75 0 45.25l-45.25 45.25c-12.501 12.501-32.747 12.501-45.25 0-12.501-12.501-12.501-32.75 0-45.25l45.25-45.25zM800 426.667c-10.624 0-21.125-0.75-31.584-2.249-33.543 45.751-78.247 80.665-128.917 103.001-2.581 121.248-101.623 219.248-223.499 219.248-123.499 0-224-100.501-224-224 0-34.875 8.667-67.499 23.001-96.875-119.25-4.875-215.001-102.75-215.001-223.125 0-123.499 100.501-224 224-224 27.376 0 54.167 5.001 79.417 14.665 57.915-50.498 131.584-78.665 208.583-78.665 77.083 0 150.665 28.167 208.583 78.665 25.248-9.666 52.041-14.665 79.417-14.665 123.499 0 224 100.501 224 224s-100.501 224-224 224zM416 682.667c79.623 0 145.125-58.334 157.417-134.501-20.041 4-40.498 6.501-61.415 6.501-91.877 0-177.001-39.623-236.75-106.501-11.877 22.334-19.253 47.417-19.253 74.501 0 88.375 71.625 160 160 160zM800 42.667c-34.249 0-65.831 11.001-91.877 29.335-46.955-56.585-116.875-93.335-196.123-93.335-79.25 0-149.168 36.75-196.123 93.335-26-18.336-57.627-29.335-91.877-29.335-88.377 0-160 71.623-160 160s71.623 160 160 160c15.499 0 30.123-2.917 44.249-7.081 5.623-1.584 11.335-2.834 16.624-5.042 8.75 17.125 19.751 32.793 31.959 47.499 46.752 56.249 116.293 92.624 195.168 92.624 20.249 0 39.669-2.917 58.501-7.417 21.125-4.999 41.083-12.583 59.669-22.583 46.583-24.75 84.832-63.083 108.914-110.126 18.793 7.751 39.335 12.126 60.917 12.126 88.377 0 160-71.623 160-160s-71.625-160-160-160z" />
<glyph unicode="&#xe013;" d="M800 618.667c-10.624 0-21.125-0.75-31.584-2.249-59.749 81.415-154.041 130.249-256.416 130.249s-196.624-48.834-256.416-130.249c-10.459 1.499-20.96 2.249-31.584 2.249-123.499 0-224-100.501-224-224 0-123.499 100.501-224 224-224 27.376 0 54.167 5.001 79.417 14.665 57.915-50.498 131.584-78.665 208.583-78.665 77.083 0 150.665 28.167 208.583 78.665 25.248-9.666 52.041-14.665 79.417-14.665 123.499 0 224 100.501 224 224 0 123.499-100.501 224-224 224zM800 234.667c-34.249 0-65.831 11.001-91.877 29.335-46.955-56.583-116.875-93.335-196.123-93.335-79.25 0-149.168 36.752-196.123 93.335-26-18.336-57.627-29.335-91.877-29.335-88.377 0-160 71.623-160 160s71.623 160 160 160c21.623 0 42.123-4.416 60.875-12.167 42.459 82.832 127.707 140.167 227.125 140.167s184.667-57.335 227.081-140.167c18.795 7.751 39.337 12.167 60.919 12.167 88.377 0 160-71.623 160-160s-71.625-160-160-160z" />
<glyph unicode="&#xe014;" d="M800 810.667c-10.624 0-21.125-0.75-31.584-2.249-59.749 81.415-154.041 130.249-256.416 130.249s-196.624-48.834-256.416-130.249c-10.459 1.499-20.96 2.249-31.584 2.249-123.499 0-224-100.501-224-224s100.501-224 224-224c27.376 0 54.167 5.001 79.417 14.665 57.915-50.498 131.584-78.665 208.583-78.665 77.083 0 150.665 28.167 208.583 78.665 25.248-9.666 52.041-14.665 79.417-14.665 123.499 0 224 100.501 224 224s-100.501 224-224 224zM800 426.667c-34.249 0-65.831 11.001-91.877 29.335-46.955-56.585-116.875-93.335-196.123-93.335-79.25 0-149.168 36.75-196.123 93.335-26-18.336-57.627-29.335-91.877-29.335-88.377 0-160 71.623-160 160s71.623 160 160 160c21.623 0 42.123-4.416 60.875-12.167 42.459 82.832 127.707 140.167 227.125 140.167s184.667-57.335 227.081-140.167c18.795 7.751 39.337 12.167 60.919 12.167 88.377 0 160-71.623 160-160s-71.625-160-160-160zM450-21.333c0-35.376 28.624-64 64-64s64 28.624 64 64-64 128-64 128-64-92.624-64-128zM704 42.667c0-35.376 28.624-64 64-64s64 28.624 64 64-64 128-64 128-64-92.624-64-128zM192 170.667c0-35.376 28.624-64 64-64s64 28.624 64 64-64 128-64 128-64-92.624-64-128z" />
<glyph unicode="&#xe015;" d="M652.085 51.291l-36 20.752c1.083 6.249 1.915 12.622 1.915 19.248 0 6.624-0.832 13.001-2 19.25l36.085 20.793c16.834 9.833 22.583 31.458 12.917 48.208-9.753 16.958-31.335 22.75-48.249 13.001l-36.375-21.001c-9.753 8.293-20.75 14.791-33.001 19.207v41.792c0 19.543-15.877 35.376-35.376 35.376s-35.333-15.833-35.333-35.376v-41.751c-12.251-4.377-23.291-10.958-33.042-19.25l-36.293 21.001c-16.958 9.751-38.585 4-48.334-12.958-9.751-16.834-3.877-38.501 13.001-48.251l35.918-20.75c-1.168-6.293-1.918-12.667-1.918-19.291 0-6.626 0.75-13.001 1.918-19.248l-35.918-20.752c-16.919-9.751-22.75-31.499-13.001-48.377s31.376-22.624 48.249-12.875l36.334 20.875c9.749-8.249 20.793-14.75 33.083-19.125v-41.877c0-19.497 15.833-35.248 35.333-35.248s35.376 15.751 35.376 35.248v41.877c12.249 4.377 23.376 10.875 33.042 19.25l36.334-21.001c16.917-9.751 38.498-4 48.249 12.875 9.751 16.878 4.002 38.503-12.914 48.377zM512 55.917c-19.499 0-35.376 15.877-35.376 35.376s15.877 35.291 35.376 35.291 35.335-15.792 35.335-35.291-15.835-35.376-35.335-35.376zM948.331 146.166l-24.167 6.416c-0.583 7.666-2.416 14.958-5.792 21.959l17.543 17.543c8.249 8.249 8.208 21.584 0 29.707-8.167 8.208-21.417 8.249-29.666 0l-17.582-17.499c-6.919 3.25-14.293 5.125-21.918 5.751l-6.418 24.123c-2.999 11.166-14.501 17.877-25.749 14.875-11.209-3.042-17.751-14.542-14.834-25.751l6.418-23.792c-3.168-2.169-6.169-4.583-9.001-7.335-2.75-2.834-5.083-5.831-7.253-8.919l-23.792 6.418c-11.209 2.999-22.793-3.751-25.792-14.875-2.999-11.25 3.751-22.709 14.834-25.751l24-6.457c0.667-7.543 2.585-14.917 5.959-21.918l-17.623-17.623c-8.167-8.208-8.123-21.458 0.085-29.623 8.167-8.167 21.417-8.249 29.584-0.085l17.664 17.666c6.919-3.415 14.336-5.333 22.002-5.913l6.331-24.041c3.083-11.209 14.501-17.877 25.751-14.875 11.166 3.001 17.913 14.498 14.917 25.833l-6.418 23.792c3.001 2.123 6.085 4.501 8.919 7.25 2.75 2.791 5.083 5.877 7.248 8.958l23.833-6.418c11.209-3.001 22.75 3.707 25.707 14.834 3.001 11.168-3.623 22.665-14.791 25.749zM876.624 132.79c-8.249-8.249-21.543-8.208-29.751 0-8.123 8.123-8.208 21.458 0 29.707 8.208 8.167 21.543 8.167 29.751 0 8.126-8.206 8.126-21.582 0-29.707zM237.877 253.666l-23.751-6.377c-2.208 3.001-4.501 6.041-7.291 8.875-2.832 2.75-5.831 5.125-8.958 7.25l6.377 23.877c3.001 11.209-3.669 22.75-14.75 25.707-11.25 3.001-22.75-3.669-25.751-14.834l-6.501-24.123c-7.623-0.624-14.917-2.501-21.877-5.792l-17.623 17.543c-8.249 8.249-21.499 8.208-29.669 0-8.208-8.208-8.208-21.499 0-29.707l17.543-17.543c-3.291-7.001-5.209-14.375-5.792-21.959l-24.085-6.416c-11.25-3.083-17.918-14.501-14.917-25.751 3.042-11.166 14.542-17.751 25.792-14.834l23.751 6.459c2.123-3.209 4.501-6.21 7.376-9.001 2.75-2.75 5.751-5.209 8.875-7.25l-6.377-23.792c-3.001-11.25 3.669-22.834 14.832-25.833 11.253-3.001 22.667 3.666 25.669 14.875l6.501 24c7.623 0.624 15.001 2.542 22 5.877l17.582-17.584c8.167-8.247 21.417-8.082 29.669 0.085 8.123 8.123 8.249 21.417 0 29.623l-17.623 17.623c3.376 6.919 5.376 14.375 5.877 22.002l24.123 6.377c11.125 3.042 17.792 14.501 14.791 25.751-3.003 11.122-14.503 17.79-25.794 14.873zM177.125 196.752c-8.208-8.208-21.499-8.208-29.751 0-8.123 8.167-8.123 21.543 0 29.666 8.249 8.167 21.543 8.167 29.751 0s8.126-21.502 0-29.666zM1024 586.667c0 123.499-100.501 224-224 224-10.624 0-21.125-0.75-31.584-2.249-59.749 81.415-154.041 130.249-256.416 130.249s-196.624-48.834-256.416-130.249c-10.459 1.499-20.96 2.249-31.584 2.249-123.499 0-224-100.501-224-224s100.501-224 224-224c27.376 0 54.167 5.001 79.417 14.665 57.915-50.498 131.584-78.665 208.583-78.665 77.083 0 150.665 28.167 208.583 78.665 25.248-9.666 52.041-14.665 79.417-14.665 123.499 0 224 100.501 224 224zM708.123 456.002c-46.955-56.585-116.875-93.335-196.123-93.335-79.25 0-149.168 36.75-196.123 93.335-26-18.336-57.627-29.335-91.877-29.335-88.377 0-160 71.623-160 160s71.623 160 160 160c21.623 0 42.123-4.416 60.875-12.167 42.459 82.832 127.707 140.167 227.125 140.167s184.667-57.335 227.081-140.167c18.795 7.751 39.337 12.167 60.919 12.167 88.377 0 160-71.623 160-160s-71.623-160-160-160c-34.249 0-65.831 10.999-91.877 29.335z" />
<glyph unicode="&#xe016;" d="M140.331 262.413c-31.941 0-61.625 0-93.865 0 33.769 117.726 66.761 232.754 99.753 347.783-2.718 1.001-5.438 2.002-8.155 3.001-2.919-5.957-6.715-11.646-8.624-17.911-16.786-55.097-33.232-110.295-49.781-165.465-1.543-5.145-2.855-10.377-4.693-15.422-7.474-20.539-23.285-30.391-40.352-25.344-18.48 5.465-28.553 23.047-22.825 44.249 7.808 28.903 17.568 57.271 26.263 85.936 12.711 41.895 25.013 83.913 37.87 125.765 15.415 50.178 50.064 75.415 102.875 75.463 30.839 0.030 61.685 0.066 92.523-0.009 46.921-0.114 85.266-27.28 99.095-71.842 21.394-68.958 42.414-138.048 62.201-207.479 3.287-11.531 3.355-27.285-2.201-37.029-4.795-8.407-21.419-17.106-29.735-14.763-11.109 3.136-23.929 15.179-27.808 26.272-14.688 41.989-26.007 85.154-38.697 127.847-5.687 19.134-11.351 38.286-17.657 57.218-1.575 4.725-5.6 8.626-8.501 12.907-2.663-1.131-5.328-2.263-7.991-3.397 33.28-114.896 66.56-229.792 100.651-347.481-32.485 0-62.16 0-94.354 0 0-17.33 0-32.519 0-47.712 0-68.622 0.103-137.241-0.053-205.865-0.066-28.729-12.336-43.392-35.909-43.874-24.832-0.496-37.41 14.208-37.44 44.334-0.085 83.189-0.030 166.377-0.030 248.981-20.585 10.617-18.841-3.177-18.843-14.905-0.016-79.417 0.151-158.837-0.105-238.247-0.089-28.21-15.376-42.345-41.456-39.623-21.195 2.208-31.991 16.041-32.075 42.946-0.24 75.561-0.087 151.127-0.087 226.681 0.005 8.299 0.005 16.59 0.005 26.985zM833.989 354.244c0-8.263 0-16.521 0-24.779 0-104.894-0.137-209.787 0.107-314.681 0.050-22.709-8.994-38.878-30.809-46.105-19.662-6.519-38.311-1.808-49.006 15.429-6.743 10.866-8.853 26.066-8.958 39.355-0.743 88.695-0.389 177.39-0.389 266.089 0 95.637 0.080 191.278-0.144 286.914-0.021 8.002-2.094 16-3.209 24-2.599-0.089-5.198-0.181-7.797-0.27-0.537-7.678-1.531-15.351-1.547-23.029-0.126-60.93-0.169-121.863-0.025-182.793 0.048-19.863-6.514-35.216-27.735-39.154-22.503-4.176-40.137 8.896-40.407 33.006-0.88 80.962-2.658 162.057 0.946 242.875 2.709 60.729 56.839 92.647 100.951 90.027 48.421-2.875 97.287-3.040 145.696-0.034 56.919 3.531 105.367-42.709 104.727-103.963-0.688-66.325-0.139-132.658-0.149-198.992 0-10.025 0.453-20.087-0.254-30.066-1.671-23.593-13.017-34.021-35.184-33.195-20.055 0.75-30.551 12.13-30.656 34.985-0.281 61.703-0.101 123.408-0.101 185.111 0 8.185 0 16.373 0 29.12-7.321-5.189-12.569-6.953-13.152-9.712-1.419-6.663-0.77-13.783-0.77-20.72-0.018-185.874-0.135-371.753 0.165-557.634 0.032-19.392-4.503-37.73-23.097-43.627-13.842-4.384-33.934-4.793-45.081 2.471-11.095 7.232-18.834 25.797-20.368 40.208-3.086 28.983-0.969 58.517-0.981 87.824-0.009 76.359 0.11 152.715-0.162 229.070-0.034 7.895-2.338 15.783-3.586 23.675-3.006-0.473-6.016-0.935-9.026-1.403zM494.734 882.669c28.713 0 56.117 0 84.969 0 0-303.941 0-606.624 0-910.647-28.117 0-55.607 0-84.969 0 0 302.489 0 605.104 0 910.647zM225.369 891.73c43.017-0.201 76.254-33.783 75.536-76.32-0.709-41.787-35.925-75.877-77.79-75.298-42.439 0.59-75.659 34.887-75.063 77.499 0.599 42.935 33.339 74.32 77.317 74.119zM764.903 817.522c0.144 44.101 31.351 74.402 76.425 74.208 42.617-0.185 76.489-34.345 75.662-76.311-0.823-41.783-36.055-75.872-77.84-75.305-42.608 0.576-74.391 33.719-74.247 77.408z" />
<glyph unicode="&#xe017;" d="M421.602 864.994c60.258 0 120.523 0 180.786 0 40.005-11.931 54.823-39.054 51.040-79.851-2.238-24.149-0.407-48.67-0.407-74.61 46.537 0 90.903 0 136.853 0 0-226.37 0-451.099 0-675.829-185.255 0-370.505 0-555.755 0 0.231 7.227 0.651 14.459 0.654 21.691 0.037 210.727 0.027 421.451 0.027 632.176 0 7.022 0 14.041 0 22.992 46.736 0 90.987 0 136.293 0 0 33.106 0.082 64.261-0.030 95.417-0.087 24.69 12.928 40.53 34.041 50.926 5.358 2.638 10.99 4.736 16.498 7.088zM422.089 712.155c60.702 0 119.845 0 178.521 0 0 33.367 0 65.296 0 97.605-60.091 0-118.821 0-178.521 0 0-32.905 0-64.889 0-97.605zM183.895 34.706c-27.899 0-55.799 0-83.698 0-16.13 6.528-33.097 11.545-48.197 19.936-23.351 12.976-32.601 37.115-42.199 60.414 0 171.863 0 343.723 0 515.584 7.065 13.598 12.487 28.418 21.506 40.567 28.825 38.832 97.067 54.917 154.050 37.214 0-4.688 0-9.68 0-14.67 0-214.153 0.011-428.306-0.062-642.457 0.002-5.529-0.912-11.058-1.401-16.587zM923.792 34.706c-27.895 0-55.799 0-83.701 0-0.487 6.087-1.399 12.171-1.403 18.258-0.073 212.985-0.059 425.968-0.059 638.953 0 5.959 0 11.915 0 19.175 28.007 0 54.087 0.953 80.078-0.201 51.353-2.283 94.83-45.273 95.061-96.242 0.722-161.127 0.386-322.261 0.053-483.387-0.048-22.981-9.12-43.218-23.746-61.031-17.262-21.019-41.305-29.074-66.281-35.525z" />
<glyph unicode="&#xe018;" d="M877.714 170.667v-73.143q0-14.857-10.857-25.714t-25.714-10.857h-804.571q-14.857 0-25.714 10.857t-10.857 25.714v73.143q0 14.857 10.857 25.714t25.714 10.857h804.571q14.857 0 25.714-10.857t10.857-25.714zM877.714 463.238v-73.143q0-14.857-10.857-25.714t-25.714-10.857h-804.571q-14.857 0-25.714 10.857t-10.857 25.714v73.143q0 14.857 10.857 25.714t25.714 10.857h804.571q14.857 0 25.714-10.857t10.857-25.714zM877.714 755.81v-73.143q0-14.857-10.857-25.714t-25.714-10.857h-804.571q-14.857 0-25.714 10.857t-10.857 25.714v73.143q0 14.857 10.857 25.714t25.714 10.857h804.571q14.857 0 25.714-10.857t10.857-25.714z" horiz-adv-x="878" />
<glyph unicode="&#xe019;" d="M864 618.667c-35.2 0-64-28.8-64-64v-256c0-35.2 28.8-64 64-64s64 28.8 64 64v256c0 35.2-28.8 64-64 64zM96 618.667c-35.2 0-64-28.8-64-64v-256c0-35.2 28.8-64 64-64s64 28.8 64 64v256c0 35.2-28.802 64-64 64zM192 202.667c0-53.019 42.981-96 96-96h32v-128c0-35.2 28.8-64 64-64s64 28.8 64 64v128h64v-128c0-35.2 28.802-64 64-64s64 28.8 64 64v128h32c53.019 0 96 42.981 96 96v352h-576v-352zM598.599 849.172l40.503 77.806c2.032 3.902 0.501 8.759-3.401 10.791s-8.759 0.501-10.791-3.401l-41.118-78.985c-32.199 12.446-67.193 19.285-103.792 19.285-36.597 0-71.593-6.839-103.797-19.287l-41.115 78.985c-2.032 3.902-6.887 5.433-10.791 3.401s-5.433-6.887-3.401-10.791l40.501-77.808c-90.631-41.017-156.24-127.584-167.621-230.505h572.441c-11.376 102.926-76.987 189.49-167.618 230.51zM352 668.267c-25.625 0-46.4 20.775-46.4 46.4s20.775 46.4 46.4 46.4 46.4-20.775 46.4-46.4c-0.002-25.625-20.775-46.4-46.4-46.4zM608 668.267c-25.625 0-46.402 20.775-46.402 46.4s20.777 46.4 46.402 46.4 46.398-20.775 46.398-46.4c0-25.625-20.773-46.4-46.398-46.4z" />
<glyph unicode="&#xe01a;" d="M791.497 394.576c-1.294 129.682 105.758 191.877 110.542 194.967-60.153 88.021-153.849 100.078-187.241 101.472-79.742 8.073-155.595-46.949-196.066-46.949-40.368 0-102.818 45.753-168.951 44.551-86.917-1.291-167.058-50.537-211.813-128.379-90.304-156.697-23.127-388.839 64.889-515.927 43.008-62.203 94.293-132.075 161.625-129.579 64.841 2.587 89.362 41.959 167.755 41.959 78.393 0 100.427-41.959 169.049-40.67 69.774 1.296 113.982 63.399 156.693 125.797 49.39 72.169 69.726 142.039 70.923 145.625-1.545 0.706-136.057 52.235-137.406 207.134zM662.562 775.145c35.737 43.358 59.861 103.513 53.28 163.522-51.479-2.096-113.879-34.29-150.809-77.55-33.143-38.377-62.149-99.625-54.375-158.437 57.465-4.485 116.128 29.205 151.904 72.464z" />
<glyph unicode="&#xe01b;" d="M480 874.667c-265.097 0-480-214.903-480-480s214.903-480 480-480c265.097 0 480 214.903 480 480 0 265.097-214.903 480-480 480zM751.591 234.667c8.581 40.455 13.995 83.392 15.758 128h127.447c-3.337-44.197-13.625-87.113-30.679-128h-112.526zM208.409 554.667c-8.581-40.455-13.995-83.392-15.758-128h-127.442c3.337 44.194 13.623 87.113 30.679 128h112.521zM686.037 554.667c9.614-40.962 15.399-83.854 17.28-128h-191.317v128h174.037zM512 618.667v187.337c14.59-4.247 29.045-11.369 43.227-21.369 26.583-18.741 52.011-47.607 73.541-83.486 14.882-24.802 27.751-52.416 38.496-82.485h-155.264zM331.232 701.152c21.527 35.879 46.955 64.747 73.541 83.486 14.183 10 28.638 17.125 43.227 21.369v-187.339h-155.264c10.745 30.066 23.616 57.68 38.496 82.485zM448 554.667v-128h-191.314c1.881 44.146 7.666 87.038 17.278 128h174.037zM95.888 234.667c-17.056 40.887-27.342 83.803-30.679 128h127.445c1.762-44.608 7.177-87.545 15.758-128h-112.523zM256.686 362.667h191.314v-128h-174.037c-9.611 40.96-15.397 83.854-17.278 128zM448 170.667v-187.339c-14.587 4.247-29.045 11.371-43.227 21.369-26.583 18.741-52.014 47.609-73.541 83.486-14.882 24.805-27.751 52.418-38.498 82.485h155.266zM628.768 88.182c-21.527-35.877-46.958-64.745-73.541-83.486-14.183-9.998-28.638-17.125-43.227-21.369v187.339h155.266c-10.747-30.066-23.616-57.68-38.498-82.485zM512 234.667v128h191.314c-1.881-44.146-7.666-87.040-17.28-128h-174.034zM767.349 426.667c-1.762 44.608-7.177 87.545-15.758 128h112.523c17.056-40.887 27.344-83.806 30.679-128h-127.445zM830.658 618.667h-95.899c-18.638 58.761-44.377 110.295-75.317 151.429 42.537-20.341 81.058-47.616 114.713-81.271 21.481-21.479 40.363-44.939 56.503-70.158zM185.845 688.822c33.657 33.657 72.181 60.933 114.713 81.271-30.942-41.134-56.677-92.665-75.317-151.429l-95.897 0.002c16.137 25.218 35.022 48.679 56.501 70.155zM129.344 170.667h95.897c18.64-58.761 44.377-110.295 75.319-151.431-42.537 20.341-81.058 47.616-114.713 81.273-21.481 21.479-40.366 44.939-56.503 70.158zM774.155 100.512c-33.655-33.657-72.181-60.935-114.713-81.273 30.942 41.134 56.679 92.667 75.317 151.431h95.899c-16.139-25.221-35.022-48.681-56.503-70.158z" />
<glyph unicode="&#xe01c;" d="M874.039 788.706c96.704-96.704 149.961-225.28 149.961-362.041 0-136.759-53.257-265.333-149.961-362.037-96.704-96.704-225.28-149.961-362.039-149.961-136.759 0-265.335 53.257-362.039 149.961-96.704 96.704-149.961 225.278-149.961 362.037 0 136.761 53.255 265.337 149.961 362.041 96.704 96.704 225.28 149.961 362.039 149.961 136.759 0 265.335-53.257 362.039-149.961zM828.784 109.881c63.058 63.061 104.985 141.609 122.272 227.063-13.474-19.838-26.361-27.195-34.343 17.205-8.222 72.391-74.709 26.149-116.517 51.861-44.005-29.657-142.907 57.662-126.098-40.823 25.934-44.423 140.007 59.449 83.147-34.542-36.274-65.616-132.642-210.933-120.105-286.258 1.582-109.744-112.135-22.885-151.314 13.52-26.357 72.919-8.983 200.373-77.897 236.085-74.802 3.248-139.006 10.046-167.995 93.671-17.447 59.829 18.565 148.894 82.679 162.645 93.849 58.965 127.374-69.054 215.39-71.435 27.328 28.594 101.815 37.687 107.991 69.751-57.749 10.19 73.269 48.558-5.527 70.382-43.47-5.113-71.479-45.074-48.368-78.958-84.238-19.641-86.937 121.904-167.911 77.257-2.057-70.59-132.222-22.885-45.035-8.571 29.957 13.088-48.859 51.015-6.279 44.123 20.914 1.136 91.33 25.813 72.274 42.402 39.211 24.341 72.16-58.29 110.539 1.883 27.707 46.265-11.621 54.807-46.352 31.355-19.579 21.925 34.571 69.275 82.334 89.737 15.918 6.821 31.122 10.537 42.745 9.483 24.059-27.792 68.551-32.606 70.878 3.342-59.582 28.535-125.275 43.609-193.291 43.609-97.623 0-190.471-31.024-267.307-88.391 20.649-9.458 32.373-21.237 12.478-36.295-15.456-46.055-78.169-107.877-133.225-99.125-28.585-49.296-47.41-103.605-55.458-160.528 46.112-15.255 56.743-45.449 46.834-55.55-23.495-20.487-37.936-49.529-45.376-81.321 15.010-91.838 58.174-176.478 125.271-243.577 84.617-84.615 197.118-131.214 316.784-131.214 119.664 0 232.169 46.599 316.784 131.214z" />
<glyph unicode="&#xe01d;" d="M0 810.667h128v-640h-128zM192 810.667h64v-640h-64zM320 810.667h64v-640h-64zM512 810.667h64v-640h-64zM768 810.667h64v-640h-64zM960 810.667h64v-640h-64zM640 810.667h32v-640h-32zM448 810.667h32v-640h-32zM864 810.667h32v-640h-32zM0 106.667h64v-64h-64zM192 106.667h64v-64h-64zM320 106.667h64v-64h-64zM640 106.667h64v-64h-64zM960 106.667h64v-64h-64zM768 106.667h128v-64h-128zM448 106.667h128v-64h-128z" />
<glyph unicode="&#xe01e;" d="M288 554.667h-192c-17.6 0-32-14.4-32-32v-576c0-17.6 14.4-32 32-32h192c17.6 0 32 14.4 32 32v576c0 17.6-14.4 32-32 32zM288-21.333h-192v256h192v-256zM608 682.667h-192c-17.6 0-32-14.4-32-32v-704c0-17.6 14.4-32 32-32h192c17.6 0 32 14.4 32 32v704c0 17.6-14.4 32-32 32zM608-21.333h-192v320h192v-320zM928 810.667h-192c-17.6 0-32-14.4-32-32v-832c0-17.6 14.4-32 32-32h192c17.6 0 32 14.4 32 32v832c0 17.6-14.4 32-32 32zM928-21.333h-192v384h192v-384z" />
<glyph unicode="&#xe01f;" d="M308.667-30.796v-48.192h503.577l0.002 53.015 23.065 129.422c13.824 9.262 79.39 144.459 34.418 182.434-44.969 37.973-440.933-18.592-458.487-6.889-17.557 11.705-38.208 111.182-38.208 111.182h257.911c37.234 1.95 34.306 86.064-1.033 88.809l-290.263 3.097c0 0-72.313 211.92-66.432 244.391 21.783 139.198 0 168.663 0 168.663-23.218 34.741-112.558 49.031-112.558-0.005v-220.293c0 0 117.749-559.145 127.358-567.954l20.649-137.68z" />
<glyph unicode="&#xe020;" d="M465.056 317.163l-338.496 338.496c-168.736-194.752-168.736-482.24 0-676.992l338.496 338.496zM512 362.667v576c-156.992-9.76-298.496-69.76-412.704-163.264l412.704-412.736zM576.064 810.155v-473.984l-332.256-332.256c74.496-54.752 164.256-89.248 263.52-89.248 250.176 0 452.672 202.496 452.672 452.256 0 226.496-167.264 409.984-383.936 443.232z" horiz-adv-x="960" />
<glyph unicode="&#xe021;" d="M429.294 809.616h176.706v-176.706h-176.706zM429.294 515.629h176.706v-176.706h-176.706zM429.294 220.898h176.706v-176.706h-176.706z" />
<glyph unicode="&#xe022;" d="M211.538-11.502c-112.087 0-203.278 91.191-203.278 203.278s91.191 203.28 203.278 203.28 203.278-91.191 203.278-203.28-91.191-203.278-203.278-203.278zM211.538 361.056c-93.339 0-169.278-75.938-169.278-169.28 0-93.339 75.938-169.278 169.278-169.278 93.339 0 169.278 75.938 169.278 169.278-0.002 93.344-75.941 169.28-169.278 169.28zM813.723-11.502c-112.089 0-203.282 91.191-203.282 203.278s91.191 203.28 203.282 203.28c112.087 0 203.275-91.191 203.275-203.28s-91.189-203.278-203.275-203.278zM813.723 361.056c-93.342 0-169.282-75.938-169.282-169.28 0-93.339 75.941-169.278 169.282-169.278 93.337 0 169.275 75.938 169.275 169.278 0.002 93.344-75.936 169.28-169.275 169.28zM481.696 743.746c-18.208-1.751-200.827-115.728-225.815-231.755-14.078-65.369 202.583-123.266 214.16-154.505 11.579-31.239 12.037-185.285 18.283-207.989 6.249-22.709 66.891-33.221 75.422-13.717 8.535 19.504 15.211 273.241 3.771 297.982-11.518 24.905-128.562 81.424-128.562 81.424s81.122 80.574 92.679 71.595c16.448-12.779 54.606-62.073 73.879-73.881s145.621-0.055 162.567 4.571c16.583 4.528 19.918 55.861 0 61.71-15.147 4.45-105.239-6.597-128.983 4.914-20.432 9.904-29.945 64.437-44.498 86.91-14.549 22.475-94.693 74.494-112.903 72.741zM546.375 781.686c-0.001-0.132-0.001-0.289-0.001-0.446 0-47.969 38.886-86.855 86.855-86.855 47.969 0 86.855 38.886 86.855 86.855 0 0.157 0 0.313-0.001 0.47 0.001 0.108 0.001 0.265 0.001 0.421 0 47.969-38.886 86.855-86.855 86.855-47.969 0-86.855-38.886-86.855-86.855 0-0.157 0-0.313 0.001-0.47z" />
<glyph unicode="&#xe023;" d="M336.761-54.364c-95.81 0-173.755 77.947-173.755 173.755s77.945 173.753 173.755 173.753c95.81 0 173.755-77.945 173.755-173.753s-77.945-173.755-173.755-173.755zM336.761 257.209c-75.993 0-137.819-61.824-137.819-137.815 0-75.993 61.826-137.817 137.819-137.817 75.993 0 137.819 61.824 137.819 137.817 0.002 75.991-61.824 137.815-137.819 137.815zM840.375-54.364c-95.81 0-173.758 77.947-173.758 173.755s77.947 173.753 173.758 173.753c95.808 0 173.753-77.945 173.753-173.753s-77.943-173.755-173.753-173.755zM840.375 257.209c-75.993 0-137.819-61.824-137.819-137.815 0-75.993 61.829-137.817 137.819-137.817s137.815 61.824 137.815 137.817c0.002 75.991-61.819 137.815-137.815 137.815zM562.699 581.010c-15.23-1.465-167.954-96.786-188.855-193.822-11.774-54.665 169.424-103.095 179.109-129.214 9.682-26.126 10.064-154.958 15.289-173.945 5.223-18.99 55.945-27.781 63.077-11.47 7.138 16.309 12.725 228.514 3.154 249.207-9.63 20.832-107.518 68.101-107.518 68.101s67.845 67.383 77.511 59.877c13.753-10.688 45.664-51.915 61.785-61.79 16.121-9.879 121.785-0.046 135.957 3.824 13.87 3.787 16.656 46.713 0 51.607-12.665 3.721-88.011-5.515-107.865 4.107-17.095 8.281-25.045 53.888-37.214 72.683-12.176 18.795-79.202 62.302-94.43 60.834zM616.789 612.742c0 0 0 0 0 0 0-40.115 32.52-72.635 72.635-72.635 40.115 0 72.635 32.52 72.635 72.635 0 0 0 0 0 0 0 0 0 0 0 0 0 40.115-32.52 72.635-72.635 72.635-40.115 0-72.635-32.52-72.635-72.635s0 0 0 0zM78.811-10.876c-3.625 1.262-38.715 13.461-41.223 14.334-2.505 0.873-2.745 24.423-0.729 30.222 2.018 5.799 137.481 363.022 137.481 363.022l7.655 22.007-1.893 5.342 8.039 23.115 4.599 2.457 5.424 15.598 1.737 13.829 5.817 7.895 8.521 24.505c0 0 102.489 350.19 99.511 340.016-2.978-10.176 4.123 15.895 18.306 31.095 4.386 4.697 35.986 13.71 35.986 13.71s24.043-24.27 25.287-35.019c1.383-11.952-2.238-29.216-5.328-36.857-3.088-7.643-133.703-330.622-133.703-330.622l-6.974-20.055-0.773-11.045-6.206-9.010-6.098-17.545 2.178-4.501-8.231-23.671-4.505-2.185-8.521-24.507c0 0-113.463-358.587-116.27-366.656-2.802-8.075-16.466-26.729-20.089-25.472zM52.155 2.681c-3.721 0.921-39.792 9.833-42.368 10.466-2.581 0.633-4.99 24.066-3.518 30.025 1.472 5.963 103.369 374.171 103.369 374.171l5.584 22.619-2.375 5.138 5.87 23.76 4.357 2.873 3.959 16.027 0.405 13.547 5.113 8.782 6.222 25.191c0 0 69.705 358.162 67.68 347.753-2.027-10.407 2.635 16.208 15.358 32.656 3.931 5.083 34.562 16.976 34.562 16.976s26.185-21.95 28.416-32.535c2.482-11.774 0.471-29.298-1.897-37.193-2.37-7.895-102.597-341.554-102.597-341.554l-5.093-20.617 0.306-10.679-5.399-9.927-4.455-18.037 2.585-4.281-6.009-24.331-4.281-2.592-6.224-25.191c0 0-79.856-367.529-81.906-375.829-2.053-8.295-13.938-28.142-17.664-27.221z" />
<glyph unicode="&#xe024;" d="M250.558 822.806c49.397-89.145 97.129-175.289 146.978-265.246-45.719 0.469-87.307 0.261-128.825 1.941-6.873 0.279-14.473 7.831-19.954 13.698-33.525 35.883-66.034 72.741-100.121 108.075-7.102 7.362-19.129 12.885-29.342 13.737-25.342 2.119-50.944 1.047-78.656 1.273 26.146-98.459 51.559-194.149 77.694-292.578 47.632-0.693 95.584-1.593 143.536-2.046 206.133-1.934 412.263-4.302 618.398-4.789 22.855-0.048 48.768 6.002 67.989 17.819 48.288 29.678 46.446 94.665-2.667 123.081-16.633 9.627-38.183 14.366-57.637 14.857-90.967 2.309-181.982 3.017-272.974 2.677-19.847-0.075-32.912 5.607-45.568 20.807-65.84 79.077-132.382 157.575-199.689 235.401-6.818 7.881-20.267 13.538-30.871 13.931-27.803 1.040-55.735-1.406-88.29-2.64zM225.303 328.194c0 0 0 0 0 0 0-23.071 18.703-41.774 41.774-41.774 23.071 0 41.774 18.703 41.774 41.774 0 0 0 0 0 0 0 0 0 0 0 0 0 23.071-18.703 41.774-41.774 41.774-23.071 0-41.774-18.703-41.774-41.774s0 0 0 0zM788.272 328.194c0 0 0 0 0 0 0-23.071 18.703-41.774 41.774-41.774 23.071 0 41.774 18.703 41.774 41.774 0 0 0 0 0 0 0 0 0 0 0 0 0 23.071-18.703 41.774-41.774 41.774-23.071 0-41.774-18.703-41.774-41.774s0 0 0 0zM1.774 263.789h1024.453v-71.566h-1024.453z" />
<glyph unicode="&#xe025;" d="M144.939 632.052c86.080-54.56 169.264-107.287 256.128-162.343-40.347-21.504-76.75-41.621-113.991-60.041-6.167-3.049-16.455-0.064-24.078 2.457-46.622 15.429-92.821 32.192-139.671 46.869-9.76 3.056-22.962 2.137-32.334-2.009-23.257-10.288-45.211-23.499-69.641-36.583 70.139-73.881 138.304-145.685 208.418-219.543 42.135 22.224 84.654 44.414 126.958 67.001 181.838 97.104 363.886 193.822 545.029 292.199 20.085 10.907 39.927 28.64 51.129 48.224 28.151 49.193-4.613 105.346-61.335 106.747-19.216 0.475-40.398-5.696-57.707-14.585-80.944-41.575-161.163-84.578-240.859-128.487-17.378-9.577-31.573-10.855-49.966-3.579-95.685 37.842-191.71 74.846-288.085 110.889-9.76 3.65-24.277 2.167-33.769-2.567-24.903-12.43-48.247-27.963-76.226-44.649zM857.769 511.14c0-12.702 10.297-22.999 22.999-22.999s22.999 10.297 22.999 22.999c0 0 0 0 0 0 0 12.702-10.297 22.999-22.999 22.999-12.702 0-22.999-10.297-22.999-22.999 0 0 0 0 0 0zM321.941 231.846c-0.001-0.068-0.001-0.149-0.001-0.229 0-12.703 10.298-23.001 23.001-23.001 12.703 0 23.001 10.298 23.001 23.001 0 0.081 0 0.161-0.001 0.242 0.001 0.056 0.001 0.136 0.001 0.217 0 12.703-10.298 23.001-23.001 23.001-12.703 0-23.001-10.298-23.001-23.001 0-0.081 0-0.161 0.001-0.242z" />
<glyph unicode="&#xe026;" d="M768 298.699l-182.821 182.823 438.821 329.15-128.009 127.995-548.519-219.442-172.702 172.706c-49.781 49.778-119.303 61.705-154.503 26.507-35.198-35.198-23.269-104.725 26.51-154.501l172.686-172.683-219.463-548.581 127.991-128.007 329.189 438.869 182.825-182.827v-255.979l127.995-0.002 63.991 191.989 191.989 63.995v127.993l-255.979-0.005z" />
<glyph unicode="&#xe027;" d="M640 730.667h-576c-35.2 0-64-28.8-64-64v-432l64-64h81.166c-10.898-18.832-17.166-40.679-17.166-64 0-70.693 57.307-128 128-128 70.695 0 128 57.307 128 128 0 23.321-6.267 45.168-17.166 64h354.334c-10.896-18.832-17.168-40.679-17.168-64 0-70.693 57.307-128 128-128 70.695 0 128 57.307 128 128 0 23.321-6.27 45.168-17.168 64h81.168v192l-128 368h-192zM736 434.667v210h132.667l80-210h-212.667zM49.913 641.666h121.81v-162.999h-121.81zM218.066 641.666h121.813v-162.999h-121.813zM374.304 641.666h121.813v-162.999h-121.813zM533.189 641.666h121.813v-162.999h-121.813z" />
<glyph unicode="&#xe028;" d="M512 938.667c-176.731 0-320-143.269-320-320 0-320 320-704 320-704s320 384 320 704c0 176.731-143.271 320-320 320zM512 422.667c-108.247 0-196 87.753-196 196s87.753 196 196 196 196-87.753 196-196-87.751-196-196-196zM388 618.667c0-68.483 55.517-124 124-124s124 55.517 124 124c0 68.483-55.517 124-124 124-68.483 0-124-55.517-124-124z" />
<glyph unicode="&#xe029;" d="M512 938.667c-176.731 0-320-143.269-320-320 0-320 320-704 320-704s320 384 320 704c0 176.731-143.271 320-320 320zM512 426.667c-106.041 0-192 85.959-192 192s85.959 192 192 192 192-85.959 192-192-85.961-192-192-192z" />
<glyph unicode="&#xe02a;" d="M960 106.667c-35.328 0-64 28.672-64 64v256c0 212.064-171.936 384-384 384s-384-171.936-384-384v-256c0-35.328-28.672-64-64-64s-64 28.672-64 64v256c0 282.784 229.248 512 512 512s512-229.216 512-512v-256c0-35.328-28.672-64-64-64zM224 362.667h64c17.664 0 32-14.304 32-32v-320c0-17.696-14.336-32-32-32h-64c-17.664 0-32 14.304-32 32v320c0 17.696 14.336 32 32 32zM736 362.667h64c17.696 0 32-14.304 32-32v-320c0-17.696-14.304-32-32-32h-64c-17.696 0-32 14.304-32 32v320c0 17.696 14.304 32 32 32z" />
<glyph unicode="&#xe02b;" d="M1014-86.988h-791.333c-51.817 97.614-85.911 701.438-94.007 755.826 0 0-13.161 142.329 0 220.293 8.498 50.35 119.138 26.306 158.555 0 0 0 227.975-182.231-30.043-258.555 3.193-34.569 36.475-114.496 36.475-114.496s218.352 60.4 290.263 36.905c249.253-39.504 430.089-639.973 430.089-639.973z" />
<glyph unicode="&#xe02c;" d="M882.99 499.536c-75.031 0-135.854-68.955-135.854-154.014v-108.491l-471.431-0.002v108.491c0 85.058-60.823 154.014-135.851 154.014s-135.854-68.953-135.854-154.011c0-55.568 25.966-104.247 64.885-131.335v-299.52h904.336v315.758c27.979 28.21 45.623 69.307 45.623 115.097 0 85.058-60.823 154.014-135.854 154.014zM318.286 351.908v-66.61h387.285v66.61c0 0-22.304 186.4 177.419 182.21 0 0 0.258 3.577 0.549 9.913-10.679 178.489-132.587 325.369-293.991 365.481-74.898 9.774-149.255 4.871-223.339-14.505-126.425-49.531-221.209-166.898-243.995-309.815-2.631-30.608-2.635-51.072-2.635-51.072 213.088 10.549 198.709-182.213 198.709-182.213z" />
<glyph unicode="&#xe02d;" d="M513.001 930.667c-278.905 0-505.001-226.096-505.001-505.001 0-278.901 226.096-504.999 505.001-504.999 278.901 0 504.999 226.098 504.999 504.999 0 278.905-226.098 505.001-504.999 505.001zM798.345 140.322c-37.077-37.081-80.238-66.185-128.283-86.505-49.717-21.029-102.562-31.689-157.061-31.689-54.503 0-107.344 10.663-157.061 31.689-39.808 16.839-76.249 39.721-108.67 68.158l110.231 110.233-37.961 37.961-110.233-110.233c-28.437 32.421-51.321 68.864-68.16 108.67-21.024 49.717-31.687 102.565-31.687 157.061 0 54.503 10.663 107.344 31.689 157.061 20.325 48.046 49.426 91.209 86.505 128.286 37.079 37.079 80.24 66.181 128.286 86.505 49.717 21.029 102.558 31.689 157.061 31.689 54.498 0 107.344-10.663 157.061-31.689 39.806-16.839 76.249-39.721 108.67-68.16l-109.495-109.497 37.961-37.961 109.495 109.497c28.437-32.421 51.321-68.862 68.158-108.67 21.029-49.717 31.689-102.558 31.689-157.061 0-54.498-10.663-107.344-31.689-157.061-20.32-48.043-49.426-91.207-86.505-128.283zM496.615 636.562v-168.126c0-10.507-3.154-20.146-9.458-28.896-6.304-8.768-34.366-14.891-44.167-18.391v-204.901c0-9.095-3.335-16.976-9.984-23.641-6.665-6.649-14.546-9.982-23.641-9.982h6.377c-9.111 0-16.994 3.333-23.641 9.982-6.665 6.665-9.982 14.546-9.982 23.641l-0.002 204.898c-9.817 3.499-37.865 9.625-44.167 18.391-6.304 8.75-9.458 18.389-9.458 28.896v168.126c0 4.201 1.739 8.041 5.255 11.559 3.497 3.497 7.355 5.253 11.559 5.253s8.043-1.755 11.559-5.253c3.497-3.515 5.255-7.355 5.255-11.559v-109.282c0-4.203 1.739-8.062 5.255-11.561 3.497-3.513 7.355-5.253 11.561-5.253 4.201 0 8.043 1.739 11.559 5.253 3.497 3.497 5.253 7.355 5.253 11.561v109.282c0 4.201 1.739 8.041 5.255 11.559 3.497 3.497 7.353 5.253 11.559 5.253 4.201 0 8.043-1.755 11.559-5.253 3.497-3.515 5.255-7.355 5.255-11.559v-109.282c0-4.203 1.739-8.062 5.255-11.561 3.497-3.513 7.355-5.253 11.559-5.253s8.043 1.739 11.559 5.253c3.497 3.497 5.255 7.355 5.255 11.561v109.282c0 4.201 1.739 8.041 5.255 11.559 3.497 3.497 7.353 5.253 11.559 5.253 4.201 0 8.043-1.755 11.559-5.253 3.483-3.513 5.241-7.355 5.241-11.557zM658.363 636.562v-420.315c0-9.095-3.33-16.976-9.979-23.641-6.665-6.649-14.549-9.982-23.641-9.982h6.377c-9.113 0-16.994 3.333-23.643 9.982-6.665 6.665-9.979 14.546-9.979 23.641v134.503h-58.846c-2.103 0-4.041 0.869-5.778 2.626-1.758 1.739-2.629 3.68-2.629 5.781l-0.002 210.155c0 23.118 8.226 42.903 24.697 59.369 16.453 16.453 36.251 24.695 59.369 24.695h27.248c4.203 0 8.046-1.755 11.561-5.253 3.488-3.518 5.246-7.36 5.246-11.561z" />
<glyph unicode="&#xe02e;" d="M575.15 319.65c0 16.802-4.823 30.489-14.469 41.070-9.643 10.578-26.187 20.427-49.623 29.557-46.048 16.8-80.224 35.518-102.519 56.16-22.299 20.635-33.447 49.726-33.447 87.271 0 34.846 11.147 63.415 33.447 85.717 22.295 22.295 52.318 35.415 90.073 39.358v66.894h49.467v-67.513c36.503-5.397 65.182-20.642 86.027-45.735 20.846-25.099 31.058-57.666 30.647-97.696l-0.935-1.557h-88.672c0 24.473-5.033 43.351-15.090 56.626-10.064 13.271-23.801 19.911-41.223 19.911-17.842 0-31.111-5.134-39.824-15.399-8.711-10.267-13.067-23.911-13.067-40.914 0-16.178 4.615-29.301 13.845-39.358 9.227-10.064 26.185-19.966 50.871-29.714 45.838-18.043 79.803-37.335 101.895-57.872 22.091-20.535 33.136-49.264 33.136-86.183 0-36.091-11.099-64.923-33.291-86.496-22.197-21.575-52.377-34.325-90.537-38.267v-61.607h-49.467v61.294c-38.791 3.943-70.837 17.68-96.139 41.223-25.307 23.541-37.543 58.126-36.713 103.762l0.622 1.557h88.672c0-27.799 6.377-47.71 19.134-59.737 12.757-12.032 28.985-18.043 48.693-18.043 18.871 0 33.337 5.029 43.401 15.090 10.057 10.062 15.088 23.595 15.088 40.603zM860.912 778.112c-93.040 93.040-216.741 144.279-348.318 144.279-0.009 0 0.009 0-0.002 0-170.311-0.002-327.093-87.394-416.985-230.224l-96.624 28.201 71.024-290.581 216.144 206.768-89.659 26.167c73.422 99.657 190.107 159.666 316.101 159.666 216.478 0 392.599-176.119 392.599-392.599s-176.119-392.597-392.597-392.597c-27.614 0-50-22.386-50-50s22.386-50 50-50c131.577 0 255.28 51.239 348.32 144.281 93.040 93.040 144.279 216.741 144.279 348.318 0 131.577-51.239 255.28-144.281 348.32z" />
<glyph unicode="&#xe02f;" d="M513.001 930.667c-278.905 0-505.001-226.096-505.001-505.001 0-278.901 226.096-504.999 505.001-504.999 278.901 0 504.999 226.098 504.999 504.999 0 278.905-226.098 505.001-504.999 505.001zM798.345 140.322c-37.077-37.081-80.238-66.185-128.283-86.505-49.717-21.029-102.562-31.689-157.061-31.689-54.503 0-107.344 10.663-157.061 31.689-39.808 16.839-76.249 39.721-108.67 68.158l110.231 110.233-37.961 37.961-110.233-110.233c-28.437 32.421-51.321 68.864-68.16 108.67-21.024 49.717-31.687 102.565-31.687 157.061 0 54.503 10.663 107.344 31.689 157.061 20.325 48.046 49.426 91.209 86.505 128.286 37.079 37.079 80.24 66.181 128.286 86.505 49.717 21.029 102.558 31.689 157.061 31.689 54.498 0 107.344-10.663 157.061-31.689 39.806-16.839 76.249-39.721 108.67-68.16l-109.495-109.497 37.961-37.961 109.495 109.497c28.437-32.421 51.321-68.862 68.158-108.67 21.029-49.717 31.689-102.558 31.689-157.061 0-54.498-10.663-107.344-31.689-157.061-20.32-48.043-49.426-91.207-86.505-128.283zM572.933 335.026c0 16.802-4.823 30.489-14.469 41.070-9.643 10.578-26.187 20.427-49.623 29.557-46.048 16.8-80.224 35.518-102.519 56.16-22.299 20.635-33.447 49.726-33.447 87.271 0 34.846 11.147 63.415 33.447 85.717 22.295 22.295 52.318 35.415 90.073 39.358l-0.002 66.891h49.47v-67.513c36.503-5.397 65.182-20.642 86.027-45.735 20.846-25.099 31.058-57.666 30.647-97.696l-0.935-1.557h-88.672c0 24.473-5.033 43.351-15.090 56.626-10.064 13.271-23.801 19.911-41.223 19.911-17.842 0-31.113-5.134-39.826-15.399-8.711-10.267-13.067-23.911-13.067-40.914 0-16.178 4.615-29.301 13.845-39.358 9.227-10.064 26.185-19.966 50.871-29.714 45.838-18.043 79.803-37.335 101.895-57.872 22.091-20.535 33.136-49.264 33.136-86.183 0-36.091-11.099-64.923-33.291-86.496-22.197-21.575-52.377-34.325-90.537-38.267v-61.607h-49.47v61.294c-38.791 3.943-70.837 17.68-96.139 41.223-25.307 23.541-37.543 58.126-36.713 103.762l0.622 1.557h88.672c0-27.799 6.377-47.71 19.134-59.737 12.757-12.032 28.985-18.043 48.693-18.043 18.871 0 33.337 5.029 43.401 15.090 10.057 10.062 15.093 23.595 15.093 40.606z" />
<glyph unicode="&#xe030;" d="M178 812.080h478.119v-58.695h-478.119zM739.506 670.162h13.872v-13.87h-13.872zM767.246 670.162h13.872v-13.87h-13.872zM739.506 822.738h13.872v-138.706h-13.872zM697.895 822.738h27.739v-138.706h-27.739zM864.341 822.738h13.872v-138.706h-13.872zM794.987 822.738h6.937v-138.706h-6.937zM836.599 822.738h6.937v-138.706h-6.937zM697.895 670.162h13.872v-13.87h-13.872zM905.952 670.162h13.872v-13.87h-13.872zM885.145 822.738h6.937v-138.706h-6.937zM864.341 670.162h27.742v-13.87h-27.742zM905.952 822.738h13.872v-138.706h-13.872zM836.599 670.162h13.874v-13.87h-13.874zM794.987 670.162h27.742v-13.87h-27.742zM808.859 822.738h13.87v-138.706h-13.87zM767.246 822.738h13.872v-138.706h-13.872zM912.48 890.866h-711.216c-48.119 0-87.264-36.704-87.264-81.822v-239.966l-75.945-112.578c-19.922-29.529-10.030-71.033 22.089-92.702l614.96-414.848c32.121-21.671 74.311-15.298 94.231 14.231l148.519 220.165c19.925 29.529 10.034 71.035-22.087 92.704l-291.458 196.617h308.171c48.119 0 87.264 36.704 87.264 81.819v254.558c0 45.118-39.145 81.822-87.264 81.822zM959.744 554.486c0-23.061-21.205-41.819-47.264-41.819h-367.465l-264.208 178.233c-32.121 21.669-74.311 15.294-94.231-14.233l-32.576-48.293v180.67c0 23.061 21.202 41.819 47.264 41.819h711.216c26.059 0 47.264-18.761 47.264-41.819v-254.558z" />
<glyph unicode="&#xe031;" d="M866.073 546.505c-12.341 0-20.702-1.195-25.077-2.389v-79.191c5.175-1.193 11.543-1.593 20.297-1.593 32.24 0 52.139 16.313 52.139 43.774 0.005 24.674-17.109 39.399-47.36 39.399zM1024.16 638.884l-300.064 299.84-424.247-0.114-299.906-300.005 0.114-424.153 300.069-299.84 424.247 0.117 299.909 300-0.121 424.155zM139.687 318.084c-30.649 0-60.901 7.959-76.025 16.315l12.338 50.139c16.32-8.354 41.397-16.711 67.269-16.711 27.865 0 42.587 11.543 42.587 29.047 0 16.713-12.736 26.265-44.976 37.803-44.581 15.52-73.634 40.192-73.634 79.191 0 45.762 38.21 80.782 101.497 80.782 30.249 0 52.539-6.366 68.459-13.527l-13.534-48.949c-10.745 5.175-29.849 12.734-56.121 12.734-26.272 0-39.008-11.938-39.008-25.865 0-17.111 15.127-24.672 49.755-37.806 47.365-17.509 69.655-42.181 69.655-79.989 0.002-44.96-34.629-83.166-108.263-83.166zM474.823 539.341h-73.239v-217.278h-60.901v217.278h-72.043v50.937h206.183v-50.937zM609.351 317.684c-79.609 0-126.176 60.091-126.176 136.496 0 80.386 51.346 140.473 130.555 140.473 82.391 0 127.369-61.68 127.369-135.701 0-87.943-53.337-141.269-131.749-141.269zM948.866 445.028c-20.702-19.499-51.349-28.256-87.173-28.256-7.959 0-15.127 0.4-20.697 1.195v-95.904h-60.105l0.002 264.633c18.709 3.184 44.976 5.573 81.993 5.573 37.415 0 64.082-7.163 81.993-21.488 17.115-13.531 28.661-35.817 28.661-62.080s-8.754-48.553-24.674-63.673zM612.135 546.505c-40.997 0-64.875-39.001-64.875-91.129 0-52.53 24.679-89.536 65.278-89.536 40.999 0 64.482 38.999 64.482 91.127-0.002 48.151-23.090 89.538-64.885 89.538z" />
<glyph unicode="&#xe032;" d="M698 268.667c37.234 1.95-78.809 288-156.898 284.315l-370.265-36.903c0 0-36.475 114.496-39.669 149.065 217.353 70.19-6.763 223.986-6.763 223.986-39.417 26.306-110.057 50.35-118.555 0-13.159-77.963-5.849-220.293-5.849-220.293l-2-757.826 687.552-0.347c-0.016 0 208.601-3.653 298.967-0.343h41.481v358.345z" />
<glyph unicode="&#xe033;" d="M422.089 712.155c60.704 0 119.845 0 178.521 0 0 33.369 0 65.296 0 97.605-60.094 0-118.821 0-178.521 0 0-32.905 0-64.889 0-97.605zM128 711.563c0 0 197.79 0 243.093 0 0 33.106 0.082 64.261-0.030 95.417-0.087 24.69 12.928 40.53 34.041 50.926 5.362 2.638 10.992 4.738 16.501 7.088 60.261 0 120.526 0 180.789 0 40.005-11.931 54.823-39.051 51.042-79.851-2.238-24.149-0.407-48.67-0.407-74.61 46.537 0 90.903 0 136.853 0l48.754 0.56c28.007 0 54.087 0.955 80.078-0.201 51.353-2.283 94.83-45.273 95.061-96.242 0.72-161.127 0.384-322.261 0.050-483.387-0.046-22.978-9.12-43.216-23.746-61.031-17.259-21.017-41.303-29.072-66.281-35.525-27.895 0-55.799 0-83.701 0h-656.197c-27.899 0-55.799 0-83.698 0-16.13 6.528-33.099 11.543-48.199 19.936-23.351 12.976-32.601 37.118-42.199 60.414 0 171.863 0 515.584 0 515.584s-9.803 80.923 118.197 80.923z" />
<glyph unicode="&#xe034;" d="M1070.286 911.81c-17.904 17.906-39.429 26.857-64.571 26.857h-914.286c-25.143 0-46.665-8.951-64.571-26.857-17.904-17.904-26.857-39.429-26.857-64.571v-621.714c0-25.143 8.953-46.665 26.857-64.571 17.906-17.904 39.429-26.857 64.571-26.857h310.857c0-14.475-3.047-29.333-9.143-44.571-6.094-15.237-12.19-28.571-18.286-40-6.094-11.429-9.143-19.808-9.143-25.143 0-9.904 3.621-18.475 10.857-25.714 7.239-7.237 15.81-10.857 25.714-10.857h292.571c9.906 0 18.478 3.621 25.714 10.857 7.239 7.239 10.857 15.81 10.857 25.714 0 4.953-3.047 13.239-9.143 24.857-6.094 11.621-12.19 25.143-18.286 40.571-6.094 15.429-9.143 30.192-9.143 44.286h310.857c25.143 0 46.667 8.953 64.571 26.857 17.906 17.906 26.857 39.429 26.857 64.571v621.714c0 25.143-8.951 46.667-26.857 64.571zM1024 234.667c0-4.951-1.808-9.237-5.429-12.857-3.618-3.618-7.904-5.429-12.857-5.429h-914.286c-4.951 0-9.237 1.81-12.857 5.429-3.618 3.621-5.429 7.906-5.429 12.857v612.571c0 4.953 1.81 9.239 5.429 12.857 3.621 3.621 7.906 5.429 12.857 5.429h914.286c4.953 0 9.239-1.808 12.857-5.429 3.621-3.618 5.429-7.904 5.429-12.857v-612.571zM781.349 721.705l-496.375-328.146-48.137 73.778-98.551-197.241 218.976 12.672-48.137 73.776 496.375 328.149 48.137-73.778 98.551 197.241-218.978-12.67z" horiz-adv-x="1097" />
<glyph unicode="&#xe035;" d="M1024 656.166l-90.505 90.501-178.747-178.752-101.499 101.502 178.75 178.75-90.501 90.501-178.75-178.75-114.747 114.75-86.626-86.624 512.002-512.002 86.624 86.624-114.752 114.752zM274.747 189.412c165.767-165.762 385.193-36.361 519.291 75.465l-443.822 443.824c-111.826-134.096-241.23-353.522-75.47-519.289zM191.998 234.662l127.993-127.995-191.991-191.991-127.995 127.993z" />
<glyph unicode="&#xe036;" d="M528.567 659.218c180.439 0 180.439 279.657 0 279.657-180.437 0-180.437-279.657 0-279.657zM262.914 523.531v-258.702h101.694v148.837c12.466-5.269 45.801-9.84 59.867-13.639v-489.55h212.631v493.241c9.449 2.965 38.505 6.295 47.161 9.95v-148.839h101.691l0.002 258.702c0 0-49.767 122.162-261.525 122.162-203.237 0-261.522-122.162-261.522-122.162z" />
<glyph unicode="&#xe037;" d="M840.93 488.052c-1.826 52.235-6.201 104.377-9.28 156.571-2.816 47.783-22.825 83.063-66.51 107.008-64.681 35.451-127.202 74.846-190.898 112.121-47.815 27.977-97.44 26.009-135.609-4.473-37.431-29.893-51.861-79.975-36.665-130.907 14.569-48.83 28.837-97.813 45.68-145.874 8.921-25.465 1.909-37.241-23.214-42.187-10.462-2.057-20.507-6.261-30.709-9.589-36.958-12.046-74.642-22.281-110.631-36.743-33.991-13.659-50.293-51.113-40.183-82.473 9.349-28.992 46.224-52.149 77.835-42.432 84.535 25.998 168.631 53.698 251.792 83.801 32.759 11.863 43.595 40.443 35.785 75.979-5.749 26.153-13.966 51.753-20.192 77.817-1.673 7.017-0.073 14.825 0.025 22.267 6.24-1.657 13.198-2.062 18.601-5.17 29.063-16.731 58.775-32.686 86.037-52.050 10.386-7.378 18.521-22.327 21.25-35.195 6.112-28.743 8.126-58.352 11.904-87.591 4.034-31.291 18.647-53.941 47.607-69.701 53.013-28.839 105.086-59.554 156.295-91.499 27.433-17.106 52.144-18.699 77.931 0.839 0 21.493 0 42.992 0 64.487-44.107 25.568-87.815 51.883-132.496 76.414-24.009 13.179-33.419 31.744-34.357 58.581zM953.369-23.109c-9.337-6.8-28.542-5.84-40.839-1.511-19.95 7.033-38.178 19.264-56.647 30.121-264.64 155.547-529.33 310.997-793.504 467.321-22.142 13.104-38.624 15.358-54.185-6.905 0-5.376 0-10.752 0-16.126 13.198-6.393 26.907-11.913 39.518-19.312 273.975-160.727 547.785-321.746 821.746-482.507 60.645-35.593 87.305-31.776 138.327 18.151 0 2.683 0 5.371 0 8.059-17.52 12.277-33.456 17.979-54.416 2.709zM927.591 535.028c50.080 0 90.681 40.139 90.681 89.653 0 49.515-40.601 89.657-90.681 89.657-50.087 0-90.688-40.139-90.688-89.657 0-49.513 40.599-89.653 90.688-89.653z" />
<glyph unicode="&#xe038;" d="M582.738 463.652c0 0 0 0 0 0 0-28.666 23.238-51.904 51.904-51.904 28.666 0 51.904 23.238 51.904 51.904 0 0 0 0 0 0 0 0 0 0 0 0 0 28.666-23.238 51.904-51.904 51.904-28.666 0-51.904-23.238-51.904-51.904s0 0 0 0zM799.755-16.89c2.567 6.377 2.649 13.851-0.743 21.125-3.285 7.051-7.959 13.477-12.263 20.007-35.534 53.909-70.919 107.918-106.907 161.515-5.959 8.878-7.184 16.629-4.448 26.853 11.719 43.696 22.702 87.584 33.872 131.419 5.232 20.526-1.127 30.418-22.085 34.304-56.645 10.501-113.305 20.905-174.638 32.215l-25.12 5.205c-3.061-2.041-6.091-4.128-9.001-6.373-8.421-6.489-13.755-15.774-8.983-25.275 3.593-7.15 11.614-15.086 18.969-16.736 34.336-7.694 69.127-13.301 103.739-19.728 3.481-0.649 6.88-1.792 11.337-2.974-10.352-41.959-18.171-83.829-31.234-123.959-5.207-15.979-8.526-31.879-10.338-47.776l-250.898 431.438-229.966 245.097c0 0-70.731-163.127-72.359-220.93-7.179-255.049 116.971-615.019 116.971-615.019l453.847-23.161c3.086-9.298 9.397-15.365 17.806-17.534-3.47-0.016-6.949-0.027-10.441-0.027-248.919 0-450.706-13.65-450.706-24.343 0-10.686 201.785 0 450.706 0 248.917 0 429.029 47.582 429.029 58.27-0.002 7.296-83.84-11.15-216.146-23.611zM24.437 623.458l156.025 42.491 4.155-17.003-156.025-42.494-4.155 17.006zM65.682 334.489l-6.823 16.014 251.15 119.25 6.823-16.016-251.15-119.248zM128.421 130.203l303.909 144.295 6.823-16.016-303.911-144.297-6.821 16.018zM375.865 18.292l-5.815 16.626 149.353 85.641 5.813-16.626-149.351-85.641zM612.77-27.038c11.376 3.081 19.646 13.234 18.505 26.121-2.315 26.235-6.066 52.343-9.438 78.478-3.015 23.39-7.205 46.665-9.074 70.142-0.793 10.002 3.001 20.379 5.275 33.991 4.926-7.042 7.849-10.99 10.537-15.090 39.973-60.937 79.961-121.854 119.813-182.871 1.067-1.637 2.169-3.198 3.305-4.679-42.674-3.173-89.296-5.481-138.923-6.091z" />
<glyph unicode="&#xe039;" d="M736.786 645.389c-124.32 82.002-243.202 160.416-364.078 240.149-7.776-11.033-14.885-21.497-22.393-31.669-9.589-12.985-21.497-20.599-36.862-9.872-14.629 10.21-14.649 23.739-5.035 37.797 12.359 18.071 24.839 36.066 37.963 55.104 6.715-3.673 12.103-6.144 16.997-9.367 138.411-91.145 276.777-182.368 415.129-273.598 5.077-3.346 10.117-6.777 14.949-10.462 13.993-10.663 22.85-25.918 14.928-41.515-5.968-11.753-19.294-24.793-31.511-27.499-57.031-12.64-114.811-21.851-172.302-32.414-5.79-1.065-11.429-2.937-18.832-4.88 17.191-68.933 30.181-137.719 51.874-203.639 25.131-76.329 24.318-151.499 10.078-228.745-7.705-41.783-11.6-84.277-17.33-126.425-0.919-6.768-1.993-13.577-3.799-20.144-6.553-23.81-25.291-36.014-49.973-32.953-22.037 2.729-39.093 20.727-36.994 44.176 3.847 43.095 10.080 85.991 15.673 128.923 5.008 38.423 11.963 76.665 15.065 115.225 1.321 16.434-4.976 33.49-8.754 55.847-8.183-11.57-13.035-18.055-17.495-24.791-66.391-100.103-132.814-200.185-198.997-300.423-11.070-16.766-23.787-29.307-45.861-28.183-31.959 1.639-51.899 32.853-38.233 61.854 5.461 11.589 13.221 22.139 20.375 32.873 59.015 88.56 117.783 177.289 177.557 265.337 9.904 14.587 11.931 27.321 7.381 44.117-19.451 71.778-37.703 143.877-56.249 215.895-8.686 33.719 1.877 49.973 36.679 56.354 94.071 17.255 188.178 34.354 290.050 52.928zM424.354 765.588c41.925 0.338 76.199-33.017 76.325-74.277 0.126-40.955-34.777-75.445-75.991-75.090-40.386 0.345-74.274 33.467-75.335 73.63-1.070 40.594 33.403 75.406 75.001 75.737z" />
<glyph unicode="&#xe03a;" d="M221.051 384.74c52.352 0 94.786 41.527 94.786 92.75 0 51.227-42.434 92.761-94.786 92.761-52.345 0-94.782-41.534-94.782-92.761 0-51.223 42.439-92.75 94.782-92.75zM425.721 503.794h378.873c55.582 0 88.327-35.008 88.327-81.879v-134.206h-467.2v216.085zM322.594 455.776v-80.491l-145.669-0.002c-70.327-0.247-70.439-88.709 0-88.709h190.969c27.886 0 45.349 22.025 45.349 46.939v122.261c0.002 66.974-90.649 66.974-90.649 0.002zM108.171 581.129c0 73.040-103.554 73.040-103.554 0v-585.701h105.851v151.257h805.401v-150.121h103.547v452.379c0 77.079-104.699 77.079-104.699 0v-180.565h-806.546v312.75z" />
<glyph unicode="&#xe03b;" d="M1023.833 195.101c-0.521 65.191-32.288 111.874-86.974 144.139-35.040 20.672-74.247 26.274-114.023 25.616-21.55-0.359-36.507 7.81-49.499 23.813-36.802 45.326-74.871 89.643-110.939 135.541-20.283 25.803-45.611 36.743-77.456 36.658-84.622-0.226-169.246-0.066-253.87-0.096-6.631 0-13.342 0.311-19.881-0.546-14.747-1.931-28.567-6.197-37.92-19.049-5.65-7.767-11.042-15.728-16.864-23.362-33.792-44.309-67.847-88.414-101.429-132.882-10.208-13.515-22.565-20.409-39.822-19.765-19.55 0.731-39.193-0.741-58.72 0.265-25.063 1.289-43.223-7.111-51.881-31.808 0-70.357 0-140.711 0-211.065 6.519-16.709 16.734-30.226 35.966-30.997 26.789-1.070 53.65-0.272 80.391-0.272 16.35 85.257 86.331 120.359 137.639 119.607 30.146-0.441 57.493-8.542 81.872-26.222 31.879-23.12 50.091-54.805 56.939-93.321 78.277 0 155.845 0 233.289 0 24.871 79.927 68.667 118.089 136.683 119.371 30.162 0.567 57.559-7.977 82.055-25.486 32.341-23.122 50.789-55.038 57.776-94.126 26.857 0 53.065-0.798 79.205 0.242 22.16 0.882 37.033 17.57 37.401 40.039 0.354 21.225 0.233 42.469 0.062 63.705zM435.856 365.78c-67.079 0-133.57 0-202.025 0 27.335 36.439 53.319 71.55 79.941 106.169 5.664 7.365 13.913 11.511 24.267 11.351 29.504-0.455 59.019-0.146 88.53-0.183 2.903-0.002 5.806-0.309 9.287-0.505 0-39.111 0-77.691 0-116.832zM514.464 365.963c0 39.015 0 77.39 0 116.151 24.649 0 49.042 0.734 73.36-0.345 10.286-0.457 18.903-6.688 25.769-15.255 24.878-31.045 50.201-61.737 75.333-92.578 1.831-2.249 3.525-4.61 6.080-7.973-60.665 0-120.082 0-180.542 0zM259.73 185.252c-49.191 0.571-90.377-40.711-90.245-90.455 0.133-50.046 40.688-90.272 90.635-89.897 49.529 0.373 89.461 40.766 89.257 90.29-0.203 49.563-39.938 89.486-89.648 90.062zM769.552 185.252c-49.077 0.718-90.389-40.617-90.325-90.377 0.062-49.639 40.009-89.771 89.561-89.975 49.954-0.203 90.469 40.261 90.331 90.208-0.137 49.577-39.721 89.417-89.568 90.144z" />
<glyph unicode="&#xe03c;" d="M948.704 208.998c0 119.333-46.471 231.52-130.853 315.899-77.271 77.269-177.865 122.72-285.902 129.835v22.265h79.87v100l-215.598 0.002v-100h75.728v-22.265c-108.037-7.115-208.629-52.567-285.897-129.835-84.377-84.379-130.848-196.569-130.848-315.899v-50h893.497l0.002 49.998zM158.8 258.998c24.311 167.589 168.935 296.75 343.15 296.75 174.219 0 318.843-129.161 343.161-296.75h-686.311zM1.886 122.619h1020.802v-100h-1020.802z" />
<glyph unicode="&#xe600;" d="M466.006 480.255c-3.718-51.732-3.718-51.75 45.224-51.646 54.746 0.118 109.53-0.962 164.218 0.876 31.934 1.072 52.596-10.668 68.434-38.374 39.246-68.666 80.394-136.244 120.854-204.212 3.324-5.594 7.218-10.848 11.498-17.234 16.068 9.93 31.030 19.332 46.156 28.474 23.58 14.258 47.87 10.014 60.212-10.326 12.004-19.788 5.536-42.742-17.026-56.866-45.040-28.186-90.38-55.884-137.558-85.004-22.694 37.876-44.64 74.418-66.5 111.014-23.498 39.348-47.382 78.482-70.098 118.284-7.458 13.058-16.034 18.118-31.42 17.978-88.038-0.78-176.088-0.85-264.126-0.22-63.622 0.456-97.222 33.686-99.882 96.552-0.498 11.82-1.418 23.622-2.080 35.434-4.142 73.83-9.16 147.626-12.128 221.504-2.576 64.122 56.574 108.368 114.812 86.534 32.326-12.118 52.092-36.406 55.988-71.012 3.624-32.2 4.932-64.66 7.478-100.030 30.57 0 59.862-0.018 89.154 0.008 24.414 0.022 48.836 0.42 73.24 0.066 28.388-0.412 46.49-16.228 46.438-39.77-0.052-23.052-18.754-40.186-46.434-40.534-48.826-0.612-97.662-0.212-146.492-0.308-2.848-0.002-5.692-0.658-9.962-1.188zM247.1 539.147c1.52-25.408 3.68-47.978 3.686-70.548 0.002-6.004-5.448-13.21-10.322-17.844-144.71-137.566-111.526-358.052 67.218-445.258 149.306-72.846 332.734 17.654 373.764 184.426 1.006 4.078 1.692 8.234 3.644 17.914 16.552-28.064 31.416-51.528 44.122-76.106 2.892-5.594-0.008-15.772-3.034-22.606-78.556-177.228-298.402-249.434-470.964-154.972-218.188 119.436-234.196 433.942-29.1 572.472 5.916 3.994 12.268 7.344 20.986 12.522zM361.432 935.199c48.268 0.26 89.072-40.486 89.118-88.996 0.048-48.8-39.994-89.186-88.662-89.424-49.708-0.244-90.866 40.82-90.336 90.136 0.52 48.524 40.73 88.020 89.88 88.284z" />
<glyph unicode="&#xe601;" d="M550.088 481.742v75.003c0 20.721-16.781 37.501-37.5 37.5-20.721 0-37.502-16.781-37.501-37.5v-75.003c0-20.721 16.781-37.502 37.501-37.501 20.718-0.002 37.501 16.781 37.5 37.501zM273.941 345.379c14.641 14.641 14.641 38.401 0 53.042l-53.042 53.041c-14.641 14.641-38.399 14.641-53.042 0-14.641-14.639-14.641-38.399 0-53.041l53.042-53.042c14.641-14.642 38.399-14.642 53.042 0zM804.345 451.457l-53.042-53.041c-14.641-14.639-14.641-38.399 0-53.042 14.639-14.641 38.399-14.641 53.042 0l53.042 53.042c14.639 14.639 14.639 38.399 0 53.041-14.642 14.641-38.401 14.641-53.042 0zM749.615-6.25h329.652c6.472-0.002 12.331 2.623 16.575 6.865s6.866 10.102 6.865 16.576c0.001 12.946-10.494 23.441-23.439 23.438h-312.64c22.497 87.117-0.277 183.622-68.363 251.708-102.351 102.351-268.933 102.351-371.285 0-68.085-68.086-90.86-164.59-68.363-251.708l-311.541 0.002c-12.946 0-23.441-10.496-23.441-23.441 0-12.948 10.495-23.441 23.441-23.441h328.551zM380.022 239.298c73.243 73.243 191.959 73.243 265.203 0 53.722-53.722 68.036-131.904 42.951-198.664h-351.107c-25.083 66.76-10.767 144.943 42.953 198.664zM362.914-6.25h299.417z" />
<glyph unicode="&#xe602;" d="M788.469 169.941c-146.924-147.041-386.145-147.041-533.187 0-147.041 147.045-147.041 386.267 0 533.25 38.911 38.845 86.347 68.49 140.903 87.821 17.186 6.014 36.212 1.655 48.974-11.171 12.89-12.887 17.248-31.911 11.173-48.974-36.947-104.208-11.782-217.004 65.54-294.334 77.207-77.262 190.005-102.366 294.334-65.542 17.062 6.075 36.148 1.717 48.974-11.171 12.89-12.764 17.186-31.851 11.108-48.974-19.207-54.557-48.912-101.991-87.821-140.903zM321.929 636.542c-110.286-110.286-110.286-289.73 0-399.954 117.831-117.893 318.515-107.278 421.25 24.060-105.929-6.627-210.257 31.606-287.951 109.243-77.695 77.634-115.867 181.965-109.243 287.89-8.466-6.629-16.508-13.69-24.054-21.236z" />
<glyph unicode="&#xe603;" d="M487.12 401.743c-99.043 99.11-125.622 242.278-81.759 366.197-47.918-16.95-93.222-43.465-131.514-81.759-137.473-137.469-137.473-360.304 0-497.705 137.405-137.407 360.172-137.477 497.641 0 38.427 38.291 64.874 83.595 81.762 131.514-123.849-43.861-267.082-17.281-366.13 81.755z" />
<glyph unicode="&#xe604;" d="M1024 938.667v-416l-160 160-192-192-96 96 192 192-160 160zM448 266.667l-192-192 160-160h-416v416l160-160 192 192z" />
<glyph unicode="&#xe605;" d="M448 362.667v-416l-160 160-192-192-96 96 192 192-160 160zM1024 842.667l-192-192 160-160h-416v416l160-160 192 192z" />
<glyph unicode="&#xe606;" d="M960 682.667h-256v64c0 35.2-28.8 64-64 64h-256c-35.204 0-64-28.8-64-64v-64h-256c-35.2 0-64-28.8-64-64v-576c0-35.202 28.796-64 64-64h896c35.2 0 64 28.798 64 64v576c0 35.2-28.8 64-64 64zM384 746.551c0.034 0.040 0.074 0.082 0.114 0.116h255.772c0.042-0.034 0.082-0.076 0.118-0.116v-63.884h-256.004v63.884zM960 426.667h-128v-96c0-17.602-14.4-32-32-32h-64c-17.604 0-32 14.398-32 32v96h-384v-96c0-17.602-14.4-32-32-32h-64c-17.602 0-32 14.398-32 32v96h-128v64h896v-64z" />
<glyph unicode="&#xf000;" d="M970.857 832.381q0-20-24.571-44.571l-361.143-361.143v-438.857h182.857q14.857 0 25.714-10.857t10.857-25.714-10.857-25.714-25.714-10.857h-512q-14.857 0-25.714 10.857t-10.857 25.714 10.857 25.714 25.714 10.857h182.857v438.857l-361.143 361.143q-24.571 24.571-24.571 44.571 0 13.143 10.286 20.857t21.714 10 24.571 2.286h804.571q13.143 0 24.571-2.286t21.714-10 10.286-20.857z" />
<glyph unicode="&#xf001;" d="M877.714 810.667v-640q0-28.571-19.429-50.857t-49.143-34.571-59.143-18.286-55.143-6-55.143 6-59.143 18.286-49.143 34.571-19.429 50.857 19.429 50.857 49.143 34.571 59.143 18.286 55.143 6q60 0 109.714-22.286v306.857l-438.857-135.429v-405.143q0-28.571-19.429-50.857t-49.143-34.571-59.143-18.286-55.143-6-55.143 6-59.143 18.286-49.143 34.571-19.429 50.857 19.429 50.857 49.143 34.571 59.143 18.286 55.143 6q60 0 109.714-22.286v552.571q0 17.714 10.857 32.286t28 20.286l475.429 146.286q6.857 2.286 16 2.286 22.857 0 38.857-16t16-38.857z" horiz-adv-x="878" />
<glyph unicode="&#xf002;" d="M658.286 463.238q0 105.714-75.143 180.857t-180.857 75.143-180.857-75.143-75.143-180.857 75.143-180.857 180.857-75.143 180.857 75.143 75.143 180.857zM950.857-12.19q0-29.714-21.714-51.429t-51.429-21.714q-30.857 0-51.429 21.714l-196 195.429q-102.286-70.857-228-70.857-81.714 0-156.286 31.714t-128.571 85.714-85.714 128.571-31.714 156.286 31.714 156.286 85.714 128.571 128.571 85.714 156.286 31.714 156.286-31.714 128.571-85.714 85.714-128.571 31.714-156.286q0-125.714-70.857-228l196-196q21.143-21.143 21.143-51.429z" horiz-adv-x="951" />
<glyph unicode="&#xf003;" d="M950.857 79.238v438.857q-18.286-20.571-39.429-37.714-153.143-117.714-243.429-193.143-29.143-24.571-47.429-38.286t-49.429-27.714-58.571-14h-1.143q-27.429 0-58.571 14t-49.429 27.714-47.429 38.286q-90.286 75.429-243.429 193.143-21.143 17.143-39.429 37.714v-438.857q0-7.429 5.429-12.857t12.857-5.429h841.143q7.429 0 12.857 5.429t5.429 12.857zM950.857 679.81v14t-0.286 7.429-1.714 7.143-3.143 5.143-5.143 4.286-8 1.429h-841.143q-7.429 0-12.857-5.429t-5.429-12.857q0-96 84-162.286 110.286-86.857 229.143-181.143 3.429-2.857 20-16.857t26.286-21.429 25.429-18 28.857-15.714 24.571-5.143h1.143q11.429 0 24.571 5.143t28.857 15.714 25.429 18 26.286 21.429 20 16.857q118.857 94.286 229.143 181.143 30.857 24.571 57.429 66t26.571 75.143zM1024 700.953v-621.714q0-37.714-26.857-64.571t-64.571-26.857h-841.143q-37.714 0-64.571 26.857t-26.857 64.571v621.714q0 37.714 26.857 64.571t64.571 26.857h841.143q37.714 0 64.571-26.857t26.857-64.571z" />
<glyph unicode="&#xf005;" d="M950.857 568.953q0-12.571-14.857-27.429l-207.429-202.286 49.143-285.714q0.571-4 0.571-11.429 0-12-6-20.286t-17.429-8.286q-10.857 0-22.857 6.857l-256.571 134.857-256.571-134.857q-12.571-6.857-22.857-6.857-12 0-18 8.286t-6 20.286q0 3.429 1.143 11.429l49.143 285.714-208 202.286q-14.286 15.429-14.286 27.429 0 21.143 32 26.286l286.857 41.714 128.571 260q10.857 23.429 28 23.429t28-23.429l128.571-260 286.857-41.714q32-5.143 32-26.286z" horiz-adv-x="951" />
<glyph unicode="&#xf006;" d="M649.714 364.953l174.857 169.714-241.143 35.429-108 218.286-108-218.286-241.143-35.429 174.857-169.714-41.714-240.571 216 113.714 215.429-113.714zM950.857 568.953q0-12.571-14.857-27.429l-207.429-202.286 49.143-285.714q0.571-4 0.571-11.429 0-28.571-23.429-28.571-10.857 0-22.857 6.857l-256.571 134.857-256.571-134.857q-12.571-6.857-22.857-6.857-12 0-18 8.286t-6 20.286q0 3.429 1.143 11.429l49.143 285.714-208 202.286q-14.286 15.429-14.286 27.429 0 21.143 32 26.286l286.857 41.714 128.571 260q10.857 23.429 28 23.429t28-23.429l128.571-260 286.857-41.714q32-5.143 32-26.286z" horiz-adv-x="951" />
<glyph unicode="&#xf007;" d="M804.571 135.81q0-68.571-41.714-108.286t-110.857-39.714h-499.429q-69.143 0-110.857 39.714t-41.714 108.286q0 30.286 2 59.143t8 62.286 15.143 62 24.571 55.714 35.429 46.286 48.857 30.571 63.714 11.429q5.143 0 24-12.286t42.571-27.429 61.714-27.429 76.286-12.286 76.286 12.286 61.714 27.429 42.571 27.429 24 12.286q34.857 0 63.714-11.429t48.857-30.571 35.429-46.286 24.571-55.714 15.143-62 8-62.286 2-59.143zM621.714 646.096q0-90.857-64.286-155.143t-155.143-64.286-155.143 64.286-64.286 155.143 64.286 155.143 155.143 64.286 155.143-64.286 64.286-155.143z" horiz-adv-x="805" />
<glyph unicode="&#xf008;" d="M219.429 24.381v73.143q0 14.857-10.857 25.714t-25.714 10.857h-73.143q-14.857 0-25.714-10.857t-10.857-25.714v-73.143q0-14.857 10.857-25.714t25.714-10.857h73.143q14.857 0 25.714 10.857t10.857 25.714zM219.429 243.81v73.143q0 14.857-10.857 25.714t-25.714 10.857h-73.143q-14.857 0-25.714-10.857t-10.857-25.714v-73.143q0-14.857 10.857-25.714t25.714-10.857h73.143q14.857 0 25.714 10.857t10.857 25.714zM219.429 463.238v73.143q0 14.857-10.857 25.714t-25.714 10.857h-73.143q-14.857 0-25.714-10.857t-10.857-25.714v-73.143q0-14.857 10.857-25.714t25.714-10.857h73.143q14.857 0 25.714 10.857t10.857 25.714zM804.571 24.381v292.571q0 14.857-10.857 25.714t-25.714 10.857h-438.857q-14.857 0-25.714-10.857t-10.857-25.714v-292.571q0-14.857 10.857-25.714t25.714-10.857h438.857q14.857 0 25.714 10.857t10.857 25.714zM219.429 682.667v73.143q0 14.857-10.857 25.714t-25.714 10.857h-73.143q-14.857 0-25.714-10.857t-10.857-25.714v-73.143q0-14.857 10.857-25.714t25.714-10.857h73.143q14.857 0 25.714 10.857t10.857 25.714zM1024 24.381v73.143q0 14.857-10.857 25.714t-25.714 10.857h-73.143q-14.857 0-25.714-10.857t-10.857-25.714v-73.143q0-14.857 10.857-25.714t25.714-10.857h73.143q14.857 0 25.714 10.857t10.857 25.714zM804.571 463.238v292.571q0 14.857-10.857 25.714t-25.714 10.857h-438.857q-14.857 0-25.714-10.857t-10.857-25.714v-292.571q0-14.857 10.857-25.714t25.714-10.857h438.857q14.857 0 25.714 10.857t10.857 25.714zM1024 243.81v73.143q0 14.857-10.857 25.714t-25.714 10.857h-73.143q-14.857 0-25.714-10.857t-10.857-25.714v-73.143q0-14.857 10.857-25.714t25.714-10.857h73.143q14.857 0 25.714 10.857t10.857 25.714zM1024 463.238v73.143q0 14.857-10.857 25.714t-25.714 10.857h-73.143q-14.857 0-25.714-10.857t-10.857-25.714v-73.143q0-14.857 10.857-25.714t25.714-10.857h73.143q14.857 0 25.714 10.857t10.857 25.714zM1024 682.667v73.143q0 14.857-10.857 25.714t-25.714 10.857h-73.143q-14.857 0-25.714-10.857t-10.857-25.714v-73.143q0-14.857 10.857-25.714t25.714-10.857h73.143q14.857 0 25.714 10.857t10.857 25.714zM1097.143 774.096v-768q0-37.714-26.857-64.571t-64.571-26.857h-914.286q-37.714 0-64.571 26.857t-26.857 64.571v768q0 37.714 26.857 64.571t64.571 26.857h914.286q37.714 0 64.571-26.857t26.857-64.571z" horiz-adv-x="1097" />
<glyph unicode="&#xf009;" d="M438.857 353.524v-219.429q0-29.714-21.714-51.429t-51.429-21.714h-292.571q-29.714 0-51.429 21.714t-21.714 51.429v219.429q0 29.714 21.714 51.429t51.429 21.714h292.571q29.714 0 51.429-21.714t21.714-51.429zM438.857 792.381v-219.429q0-29.714-21.714-51.429t-51.429-21.714h-292.571q-29.714 0-51.429 21.714t-21.714 51.429v219.429q0 29.714 21.714 51.429t51.429 21.714h292.571q29.714 0 51.429-21.714t21.714-51.429zM950.857 353.524v-219.429q0-29.714-21.714-51.429t-51.429-21.714h-292.571q-29.714 0-51.429 21.714t-21.714 51.429v219.429q0 29.714 21.714 51.429t51.429 21.714h292.571q29.714 0 51.429-21.714t21.714-51.429zM950.857 792.381v-219.429q0-29.714-21.714-51.429t-51.429-21.714h-292.571q-29.714 0-51.429 21.714t-21.714 51.429v219.429q0 29.714 21.714 51.429t51.429 21.714h292.571q29.714 0 51.429-21.714t21.714-51.429z" horiz-adv-x="951" />
<glyph unicode="&#xf00a;" d="M292.571 225.524v-109.714q0-22.857-16-38.857t-38.857-16h-182.857q-22.857 0-38.857 16t-16 38.857v109.714q0 22.857 16 38.857t38.857 16h182.857q22.857 0 38.857-16t16-38.857zM292.571 518.096v-109.714q0-22.857-16-38.857t-38.857-16h-182.857q-22.857 0-38.857 16t-16 38.857v109.714q0 22.857 16 38.857t38.857 16h182.857q22.857 0 38.857-16t16-38.857zM658.286 225.524v-109.714q0-22.857-16-38.857t-38.857-16h-182.857q-22.857 0-38.857 16t-16 38.857v109.714q0 22.857 16 38.857t38.857 16h182.857q22.857 0 38.857-16t16-38.857zM292.571 810.667v-109.714q0-22.857-16-38.857t-38.857-16h-182.857q-22.857 0-38.857 16t-16 38.857v109.714q0 22.857 16 38.857t38.857 16h182.857q22.857 0 38.857-16t16-38.857zM658.286 518.096v-109.714q0-22.857-16-38.857t-38.857-16h-182.857q-22.857 0-38.857 16t-16 38.857v109.714q0 22.857 16 38.857t38.857 16h182.857q22.857 0 38.857-16t16-38.857zM1024 225.524v-109.714q0-22.857-16-38.857t-38.857-16h-182.857q-22.857 0-38.857 16t-16 38.857v109.714q0 22.857 16 38.857t38.857 16h182.857q22.857 0 38.857-16t16-38.857zM658.286 810.667v-109.714q0-22.857-16-38.857t-38.857-16h-182.857q-22.857 0-38.857 16t-16 38.857v109.714q0 22.857 16 38.857t38.857 16h182.857q22.857 0 38.857-16t16-38.857zM1024 518.096v-109.714q0-22.857-16-38.857t-38.857-16h-182.857q-22.857 0-38.857 16t-16 38.857v109.714q0 22.857 16 38.857t38.857 16h182.857q22.857 0 38.857-16t16-38.857zM1024 810.667v-109.714q0-22.857-16-38.857t-38.857-16h-182.857q-22.857 0-38.857 16t-16 38.857v109.714q0 22.857 16 38.857t38.857 16h182.857q22.857 0 38.857-16t16-38.857z" />
<glyph unicode="&#xf00b;" d="M292.571 225.524v-109.714q0-22.857-16-38.857t-38.857-16h-182.857q-22.857 0-38.857 16t-16 38.857v109.714q0 22.857 16 38.857t38.857 16h182.857q22.857 0 38.857-16t16-38.857zM292.571 518.096v-109.714q0-22.857-16-38.857t-38.857-16h-182.857q-22.857 0-38.857 16t-16 38.857v109.714q0 22.857 16 38.857t38.857 16h182.857q22.857 0 38.857-16t16-38.857zM1024 225.524v-109.714q0-22.857-16-38.857t-38.857-16h-548.571q-22.857 0-38.857 16t-16 38.857v109.714q0 22.857 16 38.857t38.857 16h548.571q22.857 0 38.857-16t16-38.857zM292.571 810.667v-109.714q0-22.857-16-38.857t-38.857-16h-182.857q-22.857 0-38.857 16t-16 38.857v109.714q0 22.857 16 38.857t38.857 16h182.857q22.857 0 38.857-16t16-38.857zM1024 518.096v-109.714q0-22.857-16-38.857t-38.857-16h-548.571q-22.857 0-38.857 16t-16 38.857v109.714q0 22.857 16 38.857t38.857 16h548.571q22.857 0 38.857-16t16-38.857zM1024 810.667v-109.714q0-22.857-16-38.857t-38.857-16h-548.571q-22.857 0-38.857 16t-16 38.857v109.714q0 22.857 16 38.857t38.857 16h548.571q22.857 0 38.857-16t16-38.857z" />
<glyph unicode="&#xf00c;" d="M954.857 615.238q0-22.857-16-38.857l-491.429-491.429q-16-16-38.857-16t-38.857 16l-284.571 284.571q-16 16-16 38.857t16 38.857l77.714 77.714q16 16 38.857 16t38.857-16l168-168.571 374.857 375.429q16 16 38.857 16t38.857-16l77.714-77.714q16-16 16-38.857z" />
<glyph unicode="&#xf00d;" d="M741.714 183.238q0-22.857-16-38.857l-77.714-77.714q-16-16-38.857-16t-38.857 16l-168 168-168-168q-16-16-38.857-16t-38.857 16l-77.714 77.714q-16 16-16 38.857t16 38.857l168 168-168 168q-16 16-16 38.857t16 38.857l77.714 77.714q16 16 38.857 16t38.857-16l168-168 168 168q16 16 38.857 16t38.857-16l77.714-77.714q16-16 16-38.857t-16-38.857l-168-168 168-168q16-16 16-38.857z" horiz-adv-x="805" />
<glyph unicode="&#xf00e;" d="M585.143 481.524v-36.571q0-7.429-5.429-12.857t-12.857-5.429h-128v-128q0-7.429-5.429-12.857t-12.857-5.429h-36.571q-7.429 0-12.857 5.429t-5.429 12.857v128h-128q-7.429 0-12.857 5.429t-5.429 12.857v36.571q0 7.429 5.429 12.857t12.857 5.429h128v128q0 7.429 5.429 12.857t12.857 5.429h36.571q7.429 0 12.857-5.429t5.429-12.857v-128h128q7.429 0 12.857-5.429t5.429-12.857zM658.286 463.238q0 105.714-75.143 180.857t-180.857 75.143-180.857-75.143-75.143-180.857 75.143-180.857 180.857-75.143 180.857 75.143 75.143 180.857zM950.857-12.19q0-30.286-21.429-51.714t-51.714-21.429q-30.857 0-51.429 21.714l-196 195.429q-102.286-70.857-228-70.857-81.714 0-156.286 31.714t-128.571 85.714-85.714 128.571-31.714 156.286 31.714 156.286 85.714 128.571 128.571 85.714 156.286 31.714 156.286-31.714 128.571-85.714 85.714-128.571 31.714-156.286q0-125.714-70.857-228l196-196q21.143-21.143 21.143-51.429z" horiz-adv-x="951" />
<glyph unicode="&#xf010;" d="M585.143 481.524v-36.571q0-7.429-5.429-12.857t-12.857-5.429h-329.143q-7.429 0-12.857 5.429t-5.429 12.857v36.571q0 7.429 5.429 12.857t12.857 5.429h329.143q7.429 0 12.857-5.429t5.429-12.857zM658.286 463.238q0 105.714-75.143 180.857t-180.857 75.143-180.857-75.143-75.143-180.857 75.143-180.857 180.857-75.143 180.857 75.143 75.143 180.857zM950.857-12.19q0-30.286-21.429-51.714t-51.714-21.429q-30.857 0-51.429 21.714l-196 195.429q-102.286-70.857-228-70.857-81.714 0-156.286 31.714t-128.571 85.714-85.714 128.571-31.714 156.286 31.714 156.286 85.714 128.571 128.571 85.714 156.286 31.714 156.286-31.714 128.571-85.714 85.714-128.571 31.714-156.286q0-125.714-70.857-228l196-196q21.143-21.143 21.143-51.429z" horiz-adv-x="951" />
<glyph unicode="&#xf011;" d="M877.714 426.667q0-89.143-34.857-170.286t-93.714-140-140-93.714-170.286-34.857-170.286 34.857-140 93.714-93.714 140-34.857 170.286q0 104 46 196t129.429 154.286q24.571 18.286 54.571 14.286t47.714-28.571q18.286-24 14-54t-28.286-48.286q-56-42.286-86.571-103.429t-30.571-130.286q0-59.429 23.143-113.429t62.571-93.429 93.429-62.571 113.429-23.143 113.429 23.143 93.429 62.571 62.571 93.429 23.143 113.429q0 69.143-30.571 130.286t-86.571 103.429q-24 18.286-28.286 48.286t14 54q17.714 24.571 48 28.571t54.286-14.286q83.429-62.286 129.429-154.286t46-196zM512 865.524v-365.714q0-29.714-21.714-51.429t-51.429-21.714-51.429 21.714-21.714 51.429v365.714q0 29.714 21.714 51.429t51.429 21.714 51.429-21.714 21.714-51.429z" horiz-adv-x="878" />
<glyph unicode="&#xf013;" d="M585.143 426.667q0 60.571-42.857 103.429t-103.429 42.857-103.429-42.857-42.857-103.429 42.857-103.429 103.429-42.857 103.429 42.857 42.857 103.429zM877.714 488.953v-126.857q0-6.857-4.571-13.143t-11.429-7.429l-105.714-16q-10.857-30.857-22.286-52 20-28.571 61.143-78.857 5.714-6.857 5.714-14.286t-5.143-13.143q-15.429-21.143-56.571-61.714t-53.714-40.571q-6.857 0-14.857 5.143l-78.857 61.714q-25.143-13.143-52-21.714-9.143-77.714-16.571-106.286-4-16-20.571-16h-126.857q-8 0-14 4.857t-6.571 12.286l-16 105.143q-28 9.143-51.429 21.143l-80.571-61.143q-5.714-5.143-14.286-5.143-8 0-14.286 6.286-72 65.143-94.286 96-4 5.714-4 13.143 0 6.857 4.571 13.143 8.571 12 29.143 38t30.857 40.286q-15.429 28.571-23.429 56.571l-104.571 15.429q-7.429 1.143-12 7.143t-4.571 13.429v126.857q0 6.857 4.571 13.143t10.857 7.429l106.286 16q8 26.286 22.286 52.571-22.857 32.571-61.143 78.857-5.714 6.857-5.714 13.714 0 5.714 5.143 13.143 14.857 20.571 56.286 61.429t54 40.857q7.429 0 14.857-5.714l78.857-61.143q25.143 13.143 52 21.714 9.143 77.714 16.571 106.286 4 16 20.571 16h126.857q8 0 14-4.857t6.571-12.286l16-105.143q28-9.143 51.429-21.143l81.143 61.143q5.143 5.143 13.714 5.143 7.429 0 14.286-5.714 73.714-68 94.286-97.143 4-4.571 4-12.571 0-6.857-4.571-13.143-8.571-12-29.143-38t-30.857-40.286q14.857-28.571 23.429-56l104.571-16q7.429-1.143 12-7.143t4.571-13.429z" horiz-adv-x="878" />
<glyph unicode="&#xf014;" d="M292.571 518.096v-329.143q0-8-5.143-13.143t-13.143-5.143h-36.571q-8 0-13.143 5.143t-5.143 13.143v329.143q0 8 5.143 13.143t13.143 5.143h36.571q8 0 13.143-5.143t5.143-13.143zM438.857 518.096v-329.143q0-8-5.143-13.143t-13.143-5.143h-36.571q-8 0-13.143 5.143t-5.143 13.143v329.143q0 8 5.143 13.143t13.143 5.143h36.571q8 0 13.143-5.143t5.143-13.143zM585.143 518.096v-329.143q0-8-5.143-13.143t-13.143-5.143h-36.571q-8 0-13.143 5.143t-5.143 13.143v329.143q0 8 5.143 13.143t13.143 5.143h36.571q8 0 13.143-5.143t5.143-13.143zM658.286 104.381v541.714h-512v-541.714q0-12.571 4-23.143t8.286-15.429 6-4.857h475.429q1.714 0 6 4.857t8.286 15.429 4 23.143zM274.286 719.238h256l-27.429 66.857q-4 5.143-9.714 6.286h-181.143q-5.714-1.143-9.714-6.286zM804.571 700.953v-36.571q0-8-5.143-13.143t-13.143-5.143h-54.857v-541.714q0-47.429-26.857-82t-64.571-34.571h-475.429q-37.714 0-64.571 33.429t-26.857 80.857v544h-54.857q-8 0-13.143 5.143t-5.143 13.143v36.571q0 8 5.143 13.143t13.143 5.143h176.571l40 95.429q8.571 21.143 30.857 36t45.143 14.857h182.857q22.857 0 45.143-14.857t30.857-36l40-95.429h176.571q8 0 13.143-5.143t5.143-13.143z" horiz-adv-x="805" />
<glyph unicode="&#xf015;" d="M804.571 371.81v-274.286q0-14.857-10.857-25.714t-25.714-10.857h-219.429v219.429h-146.286v-219.429h-219.429q-14.857 0-25.714 10.857t-10.857 25.714v274.286q0 0.571 0.286 1.714t0.286 1.714l328.571 270.857 328.571-270.857q0.571-1.143 0.571-3.429zM932 411.238l-35.429-42.286q-4.571-5.143-12-6.286h-1.714q-7.429 0-12 4l-395.429 329.714-395.429-329.714q-6.857-4.571-13.714-4-7.429 1.143-12 6.286l-35.429 42.286q-4.571 5.714-4 13.429t6.286 12.286l410.857 342.286q18.286 14.857 43.429 14.857t43.429-14.857l139.429-116.571v111.429q0 8 5.143 13.143t13.143 5.143h109.714q8 0 13.143-5.143t5.143-13.143v-233.143l125.143-104q5.714-4.571 6.286-12.286t-4-13.429z" horiz-adv-x="951" />
<glyph unicode="&#xf016;" d="M73.143 60.953h585.143v438.857h-237.714q-22.857 0-38.857 16t-16 38.857v237.714h-292.571v-731.429zM438.857 572.953h170.857l-170.857 170.857v-170.857zM731.429 499.81v-457.143q0-22.857-16-38.857t-38.857-16h-621.714q-22.857 0-38.857 16t-16 38.857v768q0 22.857 16 38.857t38.857 16h310.857q22.857 0 50.286-11.429t43.429-27.429l233.143-233.143q16-16 27.429-43.429t11.429-50.286z" horiz-adv-x="731" />
<glyph unicode="&#xf017;" d="M621.714 408.381v-36.571q0-7.429-5.429-12.857t-12.857-5.429h-219.429q-7.429 0-12.857 5.429t-5.429 12.857v256q0 7.429 5.429 12.857t12.857 5.429h36.571q7.429 0 12.857-5.429t5.429-12.857v-201.143h164.571q7.429 0 12.857-5.429t5.429-12.857zM731.429 426.667q0 59.429-23.143 113.429t-62.571 93.429-93.429 62.571-113.429 23.143-113.429-23.143-93.429-62.571-62.571-93.429-23.143-113.429 23.143-113.429 62.571-93.429 93.429-62.571 113.429-23.143 113.429 23.143 93.429 62.571 62.571 93.429 23.143 113.429zM877.714 426.667q0-119.429-58.857-220.286t-159.714-159.714-220.286-58.857-220.286 58.857-159.714 159.714-58.857 220.286 58.857 220.286 159.714 159.714 220.286 58.857 220.286-58.857 159.714-159.714 58.857-220.286z" horiz-adv-x="878" />
<glyph unicode="&#xf018;" d="M634.857 369.524v2.286l-13.714 182.857q-0.571 7.429-6.286 12.857t-13.143 5.429h-106.286q-7.429 0-13.143-5.429t-6.286-12.857l-13.714-182.857v-2.286q-0.571-6.857 4.571-11.429t12-4.571h139.429q6.857 0 12 4.571t4.571 11.429zM1068.571 102.667q0-41.714-26.286-41.714h-402.286q7.429 0 12.571 5.429t4.571 12.857l-11.429 146.286q-0.571 7.429-6.286 12.857t-13.143 5.429h-155.429q-7.429 0-13.143-5.429t-6.286-12.857l-11.429-146.286q-0.571-7.429 4.571-12.857t12.571-5.429h-402.286q-26.286 0-26.286 41.714 0 30.857 14.857 66.286l238.286 596.571q4.571 10.857 14.857 18.857t21.714 8h193.714q-7.429 0-13.143-5.429t-6.286-12.857l-8.571-109.714q-0.571-8 4.571-13.143t12.571-5.143h94.857q7.429 0 12.571 5.143t4.571 13.143l-8.571 109.714q-0.571 7.429-6.286 12.857t-13.143 5.429h193.714q11.429 0 21.714-8t14.857-18.857l238.286-596.571q14.857-35.429 14.857-66.286z" horiz-adv-x="1097" />
<glyph unicode="&#xf019;" d="M765.143 477.524q9.714-23.429-8-40l-256-256q-10.286-10.857-25.714-10.857t-25.714 10.857l-256 256q-17.714 16.571-8 40 9.714 22.286 33.714 22.286h146.286v256q0 14.857 10.857 25.714t25.714 10.857h146.286q14.857 0 25.714-10.857t10.857-25.714v-256h146.286q24 0 33.714-22.286zM932.571 353.524q8 0 13.143-5.143t5.143-13.143v-329.143q0-8-5.143-13.143t-13.143-5.143h-914.286q-8 0-13.143 5.143t-5.143 13.143v329.143q0 8 5.143 13.143t13.143 5.143h109.714q8 0 13.143-5.143t5.143-13.143v-201.143h658.286v201.143q0 8 5.143 13.143t13.143 5.143h109.714z" horiz-adv-x="951" />
<glyph unicode="&#xf01a;" d="M640 408.381q0-6.857-5.714-13.714l-182.286-182.286q-5.143-5.143-13.143-5.143t-13.143 5.143l-182.857 182.857q-5.143 5.143-5.143 13.143 0 7.429 5.429 12.857t12.857 5.429h109.714v201.143q0 7.429 5.429 12.857t12.857 5.429h109.714q7.429 0 12.857-5.429t5.429-12.857v-201.143h109.714q8 0 13.143-5.143t5.143-13.143zM731.429 426.667q0 59.429-23.143 113.429t-62.571 93.429-93.429 62.571-113.429 23.143-113.429-23.143-93.429-62.571-62.571-93.429-23.143-113.429 23.143-113.429 62.571-93.429 93.429-62.571 113.429-23.143 113.429 23.143 93.429 62.571 62.571 93.429 23.143 113.429zM877.714 426.667q0-119.429-58.857-220.286t-159.714-159.714-220.286-58.857-220.286 58.857-159.714 159.714-58.857 220.286 58.857 220.286 159.714 159.714 220.286 58.857 220.286-58.857 159.714-159.714 58.857-220.286z" horiz-adv-x="878" />
<glyph unicode="&#xf01b;" d="M640 444.953q0-7.429-5.429-12.857t-12.857-5.429h-109.714v-201.143q0-7.429-5.429-12.857t-12.857-5.429h-109.714q-7.429 0-12.857 5.429t-5.429 12.857v201.143h-109.714q-8 0-13.143 5.143t-5.143 13.143q0 6.857 5.714 13.714l182.286 182.286q5.143 5.143 13.143 5.143t13.143-5.143l182.857-182.857q5.143-5.143 5.143-13.143zM731.429 426.667q0 59.429-23.143 113.429t-62.571 93.429-93.429 62.571-113.429 23.143-113.429-23.143-93.429-62.571-62.571-93.429-23.143-113.429 23.143-113.429 62.571-93.429 93.429-62.571 113.429-23.143 113.429 23.143 93.429 62.571 62.571 93.429 23.143 113.429zM877.714 426.667q0-119.429-58.857-220.286t-159.714-159.714-220.286-58.857-220.286 58.857-159.714 159.714-58.857 220.286 58.857 220.286 159.714 159.714 220.286 58.857 220.286-58.857 159.714-159.714 58.857-220.286z" horiz-adv-x="878" />
<glyph unicode="&#xf01d;" d="M658.286 426.667q0-21.143-18.857-32l-292.571-164.571q-8-4.571-17.714-4.571t-18.286 5.143q-18.286 10.286-18.286 31.429v329.143q0 21.143 18.286 31.429 17.714 11.429 36 0.571l292.571-164.571q18.857-10.857 18.857-32zM731.429 426.667q0 59.429-23.143 113.429t-62.571 93.429-93.429 62.571-113.429 23.143-113.429-23.143-93.429-62.571-62.571-93.429-23.143-113.429 23.143-113.429 62.571-93.429 93.429-62.571 113.429-23.143 113.429 23.143 93.429 62.571 62.571 93.429 23.143 113.429zM877.714 426.667q0-119.429-58.857-220.286t-159.714-159.714-220.286-58.857-220.286 58.857-159.714 159.714-58.857 220.286 58.857 220.286 159.714 159.714 220.286 58.857 220.286-58.857 159.714-159.714 58.857-220.286z" horiz-adv-x="878" />
<glyph unicode="&#xf01e;" d="M877.714 792.381v-256q0-14.857-10.857-25.714t-25.714-10.857h-256q-24 0-33.714 22.857-9.714 22.286 8 39.429l78.857 78.857q-84.571 78.286-199.429 78.286-59.429 0-113.429-23.143t-93.429-62.571-62.571-93.429-23.143-113.429 23.143-113.429 62.571-93.429 93.429-62.571 113.429-23.143q96.571 0 173.714 56.857t105.714 149.429q4 13.143 17.143 13.143h113.714q9.143 0 14.286-6.857 5.714-7.429 4-15.429-22.286-100-84.286-178.286t-152-121.714-192.286-43.429q-89.143 0-170.286 34.857t-140 93.714-93.714 140-34.857 170.286 34.857 170.286 93.714 140 140 93.714 170.286 34.857q84 0 162.571-31.714t139.714-89.429l74.286 73.714q16.571 17.714 40 8 22.286-9.714 22.286-33.714z" horiz-adv-x="878" />
<glyph unicode="&#xf021;" d="M863.429 335.238q0-2.857-0.571-4-36.571-153.143-153.143-248.286t-273.143-95.143q-83.429 0-161.429 31.429t-139.143 89.714l-73.714-73.714q-10.857-10.857-25.714-10.857t-25.714 10.857-10.857 25.714v256q0 14.857 10.857 25.714t25.714 10.857h256q14.857 0 25.714-10.857t10.857-25.714-10.857-25.714l-78.286-78.286q40.571-37.714 92-58.286t106.857-20.571q76.571 0 142.857 37.143t106.286 102.286q6.286 9.714 30.286 66.857 4.571 13.143 17.143 13.143h109.714q7.429 0 12.857-5.429t5.429-12.857zM877.714 792.381v-256q0-14.857-10.857-25.714t-25.714-10.857h-256q-14.857 0-25.714 10.857t-10.857 25.714 10.857 25.714l78.857 78.857q-84.571 78.286-199.429 78.286-76.571 0-142.857-37.143t-106.286-102.286q-6.286-9.714-30.286-66.857-4.571-13.143-17.143-13.143h-113.714q-7.429 0-12.857 5.429t-5.429 12.857v4q37.143 153.143 154.286 248.286t274.286 95.143q83.429 0 162.286-31.714t140-89.429l74.286 73.714q10.857 10.857 25.714 10.857t25.714-10.857 10.857-25.714z" horiz-adv-x="878" />
<glyph unicode="&#xf022;" d="M228.572 267.239v-35.428q0-7.197-5.259-12.455t-12.455-5.259h-35.428q-7.197 0-12.455 5.259t-5.259 12.455v35.428q0 7.197 5.259 12.455t12.455 5.259h35.428q7.197 0 12.455-5.259t5.259-12.455zM228.572 408.952v-35.428q0-7.197-5.259-12.455t-12.455-5.259h-35.428q-7.197 0-12.455 5.259t-5.259 12.455v35.428q0 7.197 5.259 12.455t12.455 5.259h35.428q7.197 0 12.455-5.259t5.259-12.455zM228.572 550.667v-35.428q0-7.197-5.259-12.455t-12.455-5.259h-35.428q-7.197 0-12.455 5.259t-5.259 12.455v35.428q0 7.197 5.259 12.455t12.455 5.259h35.428q7.197 0 12.455-5.259t5.259-12.455zM866.285 267.239v-35.428q0-7.197-5.259-12.455t-12.455-5.259h-531.428q-7.197 0-12.455 5.259t-5.259 12.455v35.428q0 7.197 5.259 12.455t12.455 5.259h531.428q7.197 0 12.455-5.259t5.259-12.455zM866.285 408.952v-35.428q0-7.197-5.259-12.455t-12.455-5.259h-531.428q-7.197 0-12.455 5.259t-5.259 12.455v35.428q0 7.197 5.259 12.455t12.455 5.259h531.428q7.197 0 12.455-5.259t5.259-12.455zM866.285 550.667v-35.428q0-7.197-5.259-12.455t-12.455-5.259h-531.428q-7.197 0-12.455 5.259t-5.259 12.455v35.428q0 7.197 5.259 12.455t12.455 5.259h531.428q7.197 0 12.455-5.259t5.259-12.455zM937.143 160.952v460.572q0 7.197-5.259 12.455t-12.455 5.259h-814.857q-7.197 0-12.455-5.259t-5.259-12.455v-460.572q0-7.197 5.259-12.455t12.455-5.259h814.857q7.197 0 12.455 5.259t5.259 12.455zM1008 763.239v-602.285q0-36.535-26.018-62.553t-62.553-26.018h-814.857q-36.535 0-62.553 26.018t-26.018 62.553v602.285q0 36.535 26.018 62.553t62.553 26.018h814.857q36.535 0 62.553-26.018t26.018-62.553z" />
<glyph unicode="&#xf023;" d="M510.655 302.011q0 35.907-25.406 61.311t-61.311 25.406-61.311-25.406-25.406-61.311q0-25.066 12.872-45.392t34.552-31.841l-46.747-155.142q-3.387-10.162 3.387-18.969t17.614-8.808h130.076q10.841 0 17.614 8.808t3.387 18.969l-46.747 155.142q21.68 11.517 34.552 31.841t12.872 45.392zM250.502 475.446h346.869v130.076q0 71.813-50.81 122.623t-122.623 50.81-122.623-50.81-50.81-122.623v-130.076zM814.166 410.409v-390.229q0-27.099-18.969-46.069t-46.069-18.969h-650.379q-27.099 0-46.069 18.969t-18.969 46.069v390.229q0 27.099 18.969 46.069t46.069 18.969h21.68v130.076q0 124.656 89.428 214.082t214.082 89.428 214.082-89.428 89.428-214.082v-130.076h21.68q27.099 0 46.069-18.969t18.969-46.069z" horiz-adv-x="850" />
<glyph unicode="&#xf024;" d="M182.857 792.381q0-41.143-36.571-62.857v-723.429q0-7.429-5.429-12.857t-12.857-5.429h-36.571q-7.429 0-12.857 5.429t-5.429 12.857v723.429q-36.571 21.714-36.571 62.857 0 30.286 21.429 51.714t51.714 21.429 51.714-21.429 21.429-51.714zM1024 755.81v-436q0-14.286-7.143-22t-22.571-15.714q-122.857-66.286-210.857-66.286-34.857 0-70.571 12.571t-62 27.429-66 27.429-81.429 12.571q-109.714 0-265.143-83.429-9.714-5.143-18.857-5.143-14.857 0-25.714 10.857t-10.857 25.714v424q0 18.286 17.714 31.429 12 8 45.143 24.571 134.857 68.571 240.571 68.571 61.143 0 114.286-16.571t125.143-50.286q21.714-10.857 50.286-10.857 30.857 0 67.143 12t62.857 26.857 50.286 26.857 31.143 12q14.857 0 25.714-10.857t10.857-25.714z" />
<glyph unicode="&#xf026;" d="M438.857 737.524v-621.714q0-14.857-10.857-25.714t-25.714-10.857-25.714 10.857l-190.286 190.286h-149.714q-14.857 0-25.714 10.857t-10.857 25.714v219.429q0 14.857 10.857 25.714t25.714 10.857h149.714l190.286 190.286q10.857 10.857 25.714 10.857t25.714-10.857 10.857-25.714z" horiz-adv-x="439" />
<glyph unicode="&#xf027;" d="M438.857 737.524v-621.714q0-14.857-10.857-25.714t-25.714-10.857-25.714 10.857l-190.286 190.286h-149.714q-14.857 0-25.714 10.857t-10.857 25.714v219.429q0 14.857 10.857 25.714t25.714 10.857h149.714l190.286 190.286q10.857 10.857 25.714 10.857t25.714-10.857 10.857-25.714zM658.286 426.667q0-43.429-24.286-80.857t-64.286-53.429q-5.714-2.857-14.286-2.857-14.857 0-25.714 10.571t-10.857 26q0 12 6.857 20.286t16.571 14.286 19.429 13.143 16.571 20.286 6.857 32.571-6.857 32.571-16.571 20.286-19.429 13.143-16.571 14.286-6.857 20.286q0 15.429 10.857 26t25.714 10.571q8.571 0 14.286-2.857 40-15.429 64.286-53.143t24.286-81.143z" horiz-adv-x="658" />
</font>
</defs>
</svg>
